{
  "accessors": [
    {
      "bufferView": 2,
      "componentType": 5126,
      "count": 16862,
      "max": [
        41.15120315551758,
        93.49806213378906,
        8.161750793457031
      ],
      "min": [
        -41.15120315551758,
        -255.16683959960938,
        -50.422637939453125
      ],
      "type": "VEC3"
    },
    {
      "bufferView": 2,
      "byteOffset": 202344,
      "componentType": 5126,
      "count": 16862,
      "max": [
        1.0,
        1.0,
        1.0
      ],
      "min": [
        -1.0,
        -1.0,
        -1.0
      ],
      "type": "VEC3"
    },
    {
      "bufferView": 3,
      "componentType": 5126,
      "count": 16862,
      "max": [
        0.9999830722808838,
        0.9999523162841797,
        1.0,
        1.0
      ],
      "min": [
        -1.0,
        -0.9998325109481812,
        -1.0,
        -1.0
      ],
      "type": "VEC4"
    },
    {
      "bufferView": 1,
      "componentType": 5126,
      "count": 16862,
      "max": [
        0.9928372502326965,
        0.995893657207489
      ],
      "min": [
        0.003906218335032463,
        0.0039061899296939373
      ],
      "type": "VEC2"
    },
    {
      "bufferView": 1,
      "byteOffset": 134896,
      "componentType": 5126,
      "count": 16862,
      "max": [
        0.9928372502326965,
        0.995893657207489
      ],
      "min": [
        0.003906218335032463,
        0.0039061899296939373
      ],
      "type": "VEC2"
    },
    {
      "bufferView": 0,
      "componentType": 5125,
      "count": 50298,
      "type": "SCALAR"
    }
  ],
  "asset": {
    "extras": {
      "author": "nodgerty (https://sketchfab.com/nodgerty)",
      "license": "CC-BY-4.0 (http://creativecommons.org/licenses/by/4.0/)",
      "source": "https://sketchfab.com/3d-models/the-majestic-sword-of-golden-blood-game-ready-d30c32d54aca476a8e817345580c6aaa",
      "title": "The Majestic Sword of Golden Blood (Game-Ready)"
    },
    "generator": "Sketchfab-0.3.0",
    "version": "2.0"
  },
  "bufferViews": [
    {
      "buffer": 0,
      "byteLength": 201192,
      "name": "floatBufferViews",
      "target": 34963
    },
    {
      "buffer": 0,
      "byteLength": 269792,
      "byteOffset": 201192,
      "byteStride": 8,
      "name": "floatBufferViews",
      "target": 34962
    },
    {
      "buffer": 0,
      "byteLength": 404688,
      "byteOffset": 470984,
      "byteStride": 12,
      "name": "floatBufferViews",
      "target": 34962
    },
    {
      "buffer": 0,
      "byteLength": 269792,
      "byteOffset": 875672,
      "byteStride": 16,
      "name": "floatBufferViews",
      "target": 34962
    }
  ],
  "buffers": [
    {
      "byteLength": 1145464,
      "uri": "scene.bin"
    }
  ],
  "extensionsUsed": [
    "KHR_materials_specular"
  ],
  "images": [
    {
      "uri": "textures/Material.001_baseColor.png"
    },
    {
      "uri": "textures/Material.001_metallicRoughness.png"
    },
    {
      "uri": "textures/Material.001_normal.png"
    },
    {
      "uri": "textures/Material.001_specularf0.png"
    }
  ],
  "materials": [
    {
      "alphaMode": "BLEND",
      "doubleSided": true,
      "extensions": {
        "KHR_materials_specular": {
          "specularColorFactor": [
            1.0,
            1.0,
            1.0
          ],
          "specularFactor": 1.0,
          "specularTexture": {
            "index": 3
          }
        }
      },
      "name": "Material.001",
      "normalTexture": {
        "index": 2
      },
      "occlusionTexture": {
        "index": 1
      },
      "pbrMetallicRoughness": {
        "baseColorTexture": {
          "index": 0
        },
        "metallicRoughnessTexture": {
          "index": 1
        }
      }
    }
  ],
  "meshes": [
    {
      "name": "BladeMain.007_Material.001_0",
      "primitives": [
        {
          "attributes": {
            "NORMAL": 1,
            "POSITION": 0,
            "TANGENT": 2,
            "TEXCOORD_0": 3,
            "TEXCOORD_1": 4
          },
          "indices": 5,
          "material": 0,
          "mode": 4
        }
      ]
    }
  ],
  "nodes": [
    {
      "children": [
        1
      ],
      "matrix": [
        0.5743129849433899,
        0.3133249282836916,
        -0.7563015818595885,
        0.0,
        -0.4475165605545044,
        -0.6534311771392821,
        -0.6105380058288575,
        0.0,
        -0.6854878067970276,
        0.6890973448753357,
        -0.2350559234619139,
        0.0,
        0.0,
        0.0,
        0.0,
        1.0
      ],
      "name": "Sketchfab_model"
    },
    {
      "children": [
        2
      ],
      "matrix": [
        0.009999999776482582,
        0.0,
        0.0,
        0.0,
        0.0,
        0.0,
        0.009999999776482582,
        0.0,
        0.0,
        -0.009999999776482582,
        0.0,
        0.0,
        0.0,
        0.0,
        0.0,
        1.0
      ],
      "name": "ChrisSword.fbx"
    },
    {
      "children": [
        3
      ],
      "name": "RootNode"
    },
    {
      "children": [
        4
      ],
      "matrix": [
        1.0,
        0.0,
        0.0,
        0.0,
        0.0,
        1.0,
        0.0,
        0.0,
        0.0,
        0.0,
        1.0,
        0.0,
        0.0,
        -19.80900764465332,
        0.0,
        1.0
      ],
      "name": "BladeMain.007"
    },
    {
      "mesh": 0,
      "name": "BladeMain.007_Material.001_0"
    }
  ],
  "samplers": [
    {
      "magFilter": 9729,
      "minFilter": 9987,
      "wrapS": 10497,
      "wrapT": 10497
    }
  ],
  "scene": 0,
  "scenes": [
    {
      "name": "Sketchfab_Scene",
      "nodes": [
        0
      ]
    }
  ],
  "textures": [
    {
      "sampler": 0,
      "source": 0
    },
    {
      "sampler": 0,
      "source": 1
    },
    {
      "sampler": 0,
      "source": 2
    },
    {
      "sampler": 0,
      "source": 3
    }
  ]
}
