{
  "accessors": [
    {
      "bufferView": 2,
      "componentType": 5126,
      "count": 41751,
      "max": [
        161.44503784179688,
        251.61778259277344,
        10.024087905883789
      ],
      "min": [
        -177.3119354248047,
        -265.5287170410156,
        -64.1854248046875
      ],
      "type": "VEC3"
    },
    {
      "bufferView": 2,
      "byteOffset": 501012,
      "componentType": 5126,
      "count": 41751,
      "max": [
        0.9999704360961914,
        0.9984728097915649,
        1.0
      ],
      "min": [
        -0.9998831152915955,
        -0.9982861876487732,
        -1.0
      ],
      "type": "VEC3"
    },
    {
      "bufferView": 3,
      "componentType": 5126,
      "count": 41751,
      "max": [
        0.9999906420707703,
        0.9998817443847656,
        1.0,
        1.0
      ],
      "min": [
        -0.9999991655349731,
        -0.9979001879692078,
        -0.9999902844429016,
        -1.0
      ],
      "type": "VEC4"
    },
    {
      "bufferView": 1,
      "componentType": 5126,
      "count": 41751,
      "max": [
        0.9969106316566467,
        1.0
      ],
      "min": [
        5.981131145915697e-09,
        -4.169918454977051e-08
      ],
      "type": "VEC2"
    },
    {
      "bufferView": 1,
      "byteOffset": 334008,
      "componentType": 5126,
      "count": 41751,
      "max": [
        0.9969106316566467,
        1.0
      ],
      "min": [
        5.981131145915697e-09,
        -4.169918454977051e-08
      ],
      "type": "VEC2"
    },
    {
      "bufferView": 0,
      "componentType": 5125,
      "count": 63396,
      "type": "SCALAR"
    }
  ],
  "asset": {
    "extras": {
      "author": "nodgerty𓅂 (https://sketchfab.com/nodgert111)",
      "license": "CC-BY-4.0 (http://creativecommons.org/licenses/by/4.0/)",
      "source": "https://sketchfab.com/3d-models/demonic-twinblades-stylized-weapon-free-e6d39e2c2e6d4024b82fe1d62aae3836",
      "title": "Demonic Twinblades - Stylized Weapon | FREE"
    },
    "generator": "Sketchfab-17.8.0",
    "version": "2.0"
  },
  "bufferViews": [
    {
      "buffer": 0,
      "byteLength": 253584,
      "name": "floatBufferViews",
      "target": 34963
    },
    {
      "buffer": 0,
      "byteLength": 668016,
      "byteOffset": 253584,
      "byteStride": 8,
      "name": "floatBufferViews",
      "target": 34962
    },
    {
      "buffer": 0,
      "byteLength": 1002024,
      "byteOffset": 921600,
      "byteStride": 12,
      "name": "floatBufferViews",
      "target": 34962
    },
    {
      "buffer": 0,
      "byteLength": 668016,
      "byteOffset": 1923624,
      "byteStride": 16,
      "name": "floatBufferViews",
      "target": 34962
    }
  ],
  "buffers": [
    {
      "byteLength": 2591640,
      "uri": "scene.bin"
    }
  ],
  "images": [
    {
      "uri": "textures/Material_baseColor.png"
    },
    {
      "uri": "textures/Material_metallicRoughness.png"
    },
    {
      "uri": "textures/Material_normal.png"
    }
  ],
  "materials": [
    {
      "doubleSided": true,
      "name": "Material",
      "normalTexture": {
        "index": 2
      },
      "occlusionTexture": {
        "index": 1
      },
      "pbrMetallicRoughness": {
        "baseColorTexture": {
          "index": 0
        },
        "metallicRoughnessTexture": {
          "index": 1
        }
      }
    }
  ],
  "meshes": [
    {
      "name": "Cube.004_Material_0",
      "primitives": [
        {
          "attributes": {
            "NORMAL": 1,
            "POSITION": 0,
            "TANGENT": 2,
            "TEXCOORD_0": 3,
            "TEXCOORD_1": 4
          },
          "indices": 5,
          "material": 0,
          "mode": 4
        }
      ]
    }
  ],
  "nodes": [
    {
      "children": [
        1
      ],
      "matrix": [
        0.7449806332588196,
        -0.6670860648155212,
        -1.4812286171295624e-16,
        0.0,
        0.0,
        2.220446049250313e-16,
        -1.0,
        0.0,
        0.6670860648155212,
        0.7449806332588196,
        1.6541893038875423e-16,
        0.0,
        0.0,
        0.0,
        0.0,
        1.0
      ],
      "name": "Sketchfab_model"
    },
    {
      "children": [
        2
      ],
      "matrix": [
        0.009999999776482582,
        0.0,
        0.0,
        0.0,
        0.0,
        0.0,
        0.009999999776482582,
        0.0,
        0.0,
        -0.009999999776482582,
        0.0,
        0.0,
        0.0,
        0.0,
        0.0,
        1.0
      ],
      "name": "2BladesChain.fbx"
    },
    {
      "children": [
        3
      ],
      "name": "RootNode"
    },
    {
      "children": [
        4
      ],
      "name": "Cube.004"
    },
    {
      "mesh": 0,
      "name": "Cube.004_Material_0"
    }
  ],
  "samplers": [
    {
      "magFilter": 9729,
      "minFilter": 9987,
      "wrapS": 10497,
      "wrapT": 10497
    }
  ],
  "scene": 0,
  "scenes": [
    {
      "name": "Sketchfab_Scene",
      "nodes": [
        0
      ]
    }
  ],
  "textures": [
    {
      "sampler": 0,
      "source": 0
    },
    {
      "sampler": 0,
      "source": 1
    },
    {
      "sampler": 0,
      "source": 2
    }
  ]
}
