{
  "accessors": [
    {
      "bufferView": 2,
      "componentType": 5126,
      "count": 292,
      "max": [
        12.98408031463623,
        1.9758003950119019,
        2.697941303253174
      ],
      "min": [
        11.71984577178955,
        1.198359727859497,
        1.7898257970809937
      ],
      "type": "VEC3"
    },
    {
      "bufferView": 2,
      "byteOffset": 3504,
      "componentType": 5126,
      "count": 292,
      "max": [
        0.9980219006538391,
        0.999721109867096,
        0.9999690055847168
      ],
      "min": [
        -0.9980219006538391,
        -0.9957130551338196,
        -0.9999690055847168
      ],
      "type": "VEC3"
    },
    {
      "bufferView": 3,
      "componentType": 5126,
      "count": 292,
      "max": [
        0.9999960660934448,
        0.9992281794548035,
        0.3430739641189575,
        1.0
      ],
      "min": [
        -1.0,
        -1.0,
        -0.33669763803482056,
        1.0
      ],
      "type": "VEC4"
    },
    {
      "bufferView": 1,
      "componentType": 5126,
      "count": 292,
      "max": [
        0.6650390625,
        0.88262939453125
      ],
      "min": [
        0.59375,
        0.72509765625
      ],
      "type": "VEC2"
    },
    {
      "bufferView": 1,
      "byteOffset": 2336,
      "componentType": 5126,
      "count": 292,
      "max": [
        0.99169921875,
        0.9919357299804688
      ],
      "min": [
        0.00806427001953125,
        0.017578125
      ],
      "type": "VEC2"
    },
    {
      "bufferView": 1,
      "byteOffset": 4672,
      "componentType": 5126,
      "count": 292,
      "max": [
        0.6650390625,
        0.88262939453125
      ],
      "min": [
        0.59375,
        0.72509765625
      ],
      "type": "VEC2"
    },
    {
      "bufferView": 1,
      "byteOffset": 7008,
      "componentType": 5126,
      "count": 292,
      "max": [
        0.6650390625,
        0.88262939453125
      ],
      "min": [
        0.59375,
        0.72509765625
      ],
      "type": "VEC2"
    },
    {
      "bufferView": 0,
      "componentType": 5125,
      "count": 1218,
      "type": "SCALAR"
    },
    {
      "bufferView": 2,
      "byteOffset": 7008,
      "componentType": 5126,
      "count": 7703,
      "max": [
        24.37508773803711,
        1.8201625347137451,
        5.601898193359375
      ],
      "min": [
        -6.705583572387695,
        -1.8201625347137451,
        -4.329045295715332
      ],
      "type": "VEC3"
    },
    {
      "bufferView": 2,
      "byteOffset": 99444,
      "componentType": 5126,
      "count": 7703,
      "max": [
        1.0,
        1.0,
        1.0
      ],
      "min": [
        -1.0,
        -1.0,
        -1.0
      ],
      "type": "VEC3"
    },
    {
      "bufferView": 3,
      "byteOffset": 4672,
      "componentType": 5126,
      "count": 7703,
      "max": [
        1.0,
        1.0,
        1.0,
        1.0
      ],
      "min": [
        -1.0,
        -1.0,
        -1.0,
        -1.0
      ],
      "type": "VEC4"
    },
    {
      "bufferView": 1,
      "byteOffset": 9344,
      "componentType": 5126,
      "count": 7703,
      "max": [
        0.99462890625,
        0.980133056640625
      ],
      "min": [
        0.008331298828125,
        0.0078125
      ],
      "type": "VEC2"
    },
    {
      "bufferView": 1,
      "byteOffset": 70968,
      "componentType": 5126,
      "count": 7703,
      "max": [
        0.99169921875,
        0.9919357299804688
      ],
      "min": [
        0.00806427001953125,
        0.0166015625
      ],
      "type": "VEC2"
    },
    {
      "bufferView": 1,
      "byteOffset": 132592,
      "componentType": 5126,
      "count": 7703,
      "max": [
        0.99462890625,
        0.980133056640625
      ],
      "min": [
        0.008331298828125,
        0.0078125
      ],
      "type": "VEC2"
    },
    {
      "bufferView": 1,
      "byteOffset": 194216,
      "componentType": 5126,
      "count": 7703,
      "max": [
        0.99462890625,
        0.980133056640625
      ],
      "min": [
        0.008331298828125,
        0.0078125
      ],
      "type": "VEC2"
    },
    {
      "bufferView": 0,
      "byteOffset": 4872,
      "componentType": 5125,
      "count": 34530,
      "type": "SCALAR"
    },
    {
      "bufferView": 2,
      "byteOffset": 191880,
      "componentType": 5126,
      "count": 119,
      "max": [
        0.4508628845214844,
        0.1513073444366455,
        0.29631590843200684
      ],
      "min": [
        -0.24591445922851563,
        -0.20282191038131714,
        -1.5765361785888672
      ],
      "type": "VEC3"
    },
    {
      "bufferView": 2,
      "byteOffset": 193308,
      "componentType": 5126,
      "count": 119,
      "max": [
        0.9946886301040649,
        0.999225914478302,
        0.9247061610221863
      ],
      "min": [
        -0.9950917959213257,
        -0.9987314343452454,
        -0.964387059211731
      ],
      "type": "VEC3"
    },
    {
      "bufferView": 3,
      "byteOffset": 127920,
      "componentType": 5126,
      "count": 119,
      "max": [
        0.964697539806366,
        0.9988730549812317,
        0.9998674988746643,
        1.0
      ],
      "min": [
        -0.9820474982261658,
        -0.1409706175327301,
        -0.9987679123878479,
        1.0
      ],
      "type": "VEC4"
    },
    {
      "bufferView": 1,
      "byteOffset": 255840,
      "componentType": 5126,
      "count": 119,
      "max": [
        0.6416015625,
        0.7640380859375
      ],
      "min": [
        0.54296875,
        0.670654296875
      ],
      "type": "VEC2"
    },
    {
      "bufferView": 1,
      "byteOffset": 256792,
      "componentType": 5126,
      "count": 119,
      "max": [
        0.94091796875,
        0.9919357299804688
      ],
      "min": [
        0.00806427001953125,
        0.02880859375
      ],
      "type": "VEC2"
    },
    {
      "bufferView": 1,
      "byteOffset": 257744,
      "componentType": 5126,
      "count": 119,
      "max": [
        0.6416015625,
        0.7640380859375
      ],
      "min": [
        0.54296875,
        0.670654296875
      ],
      "type": "VEC2"
    },
    {
      "bufferView": 1,
      "byteOffset": 258696,
      "componentType": 5126,
      "count": 119,
      "max": [
        0.6416015625,
        0.7640380859375
      ],
      "min": [
        0.54296875,
        0.670654296875
      ],
      "type": "VEC2"
    },
    {
      "bufferView": 0,
      "byteOffset": 142992,
      "componentType": 5125,
      "count": 450,
      "type": "SCALAR"
    }
  ],
  "asset": {
    "extras": {
      "author": "Michael Wright (https://sketchfab.com/rawer)",
      "license": "CC-BY-4.0 (http://creativecommons.org/licenses/by/4.0/)",
      "source": "https://sketchfab.com/3d-models/energy-rifle-weapon-design-3792aecdb5014f7183912d775e16c30e",
      "title": "Energy Rifle - Weapon Design"
    },
    "generator": "Sketchfab-12.68.0",
    "version": "2.0"
  },
  "bufferViews": [
    {
      "buffer": 0,
      "byteLength": 144792,
      "name": "floatBufferViews",
      "target": 34963
    },
    {
      "buffer": 0,
      "byteLength": 259648,
      "byteOffset": 144792,
      "byteStride": 8,
      "name": "floatBufferViews",
      "target": 34962
    },
    {
      "buffer": 0,
      "byteLength": 194736,
      "byteOffset": 404440,
      "byteStride": 12,
      "name": "floatBufferViews",
      "target": 34962
    },
    {
      "buffer": 0,
      "byteLength": 129824,
      "byteOffset": 599176,
      "byteStride": 16,
      "name": "floatBufferViews",
      "target": 34962
    }
  ],
  "buffers": [
    {
      "byteLength": 729000,
      "uri": "scene.bin"
    }
  ],
  "images": [
    {
      "uri": "textures/Weapon_MAT_baseColor.png"
    },
    {
      "uri": "textures/Weapon_MAT_metallicRoughness.png"
    },
    {
      "uri": "textures/Weapon_MAT_emissive.png"
    },
    {
      "uri": "textures/Weapon_MAT_normal.png"
    },
    {
      "uri": "textures/Weapon_MAT2_metallicRoughness.png"
    }
  ],
  "materials": [
    {
      "doubleSided": true,
      "emissiveFactor": [
        1.0,
        1.0,
        1.0
      ],
      "emissiveTexture": {
        "index": 2
      },
      "name": "Weapon_MAT",
      "normalTexture": {
        "index": 3
      },
      "occlusionTexture": {
        "index": 1
      },
      "pbrMetallicRoughness": {
        "baseColorTexture": {
          "index": 0
        },
        "metallicRoughnessTexture": {
          "index": 1
        }
      }
    },
    {
      "doubleSided": true,
      "emissiveFactor": [
        1.0,
        1.0,
        1.0
      ],
      "emissiveTexture": {
        "index": 2
      },
      "name": "Weapon_MAT1",
      "normalTexture": {
        "index": 3
      },
      "occlusionTexture": {
        "index": 1
      },
      "pbrMetallicRoughness": {
        "baseColorTexture": {
          "index": 0
        },
        "metallicRoughnessTexture": {
          "index": 1
        }
      }
    },
    {
      "doubleSided": true,
      "emissiveFactor": [
        1.0,
        1.0,
        1.0
      ],
      "emissiveTexture": {
        "index": 2
      },
      "name": "Weapon_MAT2",
      "normalTexture": {
        "index": 3
      },
      "occlusionTexture": {
        "index": 4
      },
      "pbrMetallicRoughness": {
        "baseColorTexture": {
          "index": 0
        },
        "metallicRoughnessTexture": {
          "index": 4
        }
      }
    }
  ],
  "meshes": [
    {
      "name": "Gun_Lever_Weapon_MAT_0",
      "primitives": [
        {
          "attributes": {
            "NORMAL": 1,
            "POSITION": 0,
            "TANGENT": 2,
            "TEXCOORD_0": 3,
            "TEXCOORD_1": 4,
            "TEXCOORD_2": 5,
            "TEXCOORD_3": 6
          },
          "indices": 7,
          "material": 0,
          "mode": 4
        }
      ]
    },
    {
      "name": "Gun_Main_Weapon_MAT1_0",
      "primitives": [
        {
          "attributes": {
            "NORMAL": 9,
            "POSITION": 8,
            "TANGENT": 10,
            "TEXCOORD_0": 11,
            "TEXCOORD_1": 12,
            "TEXCOORD_2": 13,
            "TEXCOORD_3": 14
          },
          "indices": 15,
          "material": 1,
          "mode": 4
        }
      ]
    },
    {
      "name": "Gun_Trigger_Weapon_MAT2_0",
      "primitives": [
        {
          "attributes": {
            "NORMAL": 17,
            "POSITION": 16,
            "TANGENT": 18,
            "TEXCOORD_0": 19,
            "TEXCOORD_1": 20,
            "TEXCOORD_2": 21,
            "TEXCOORD_3": 22
          },
          "indices": 23,
          "material": 2,
          "mode": 4
        }
      ]
    }
  ],
  "nodes": [
    {
      "children": [
        1
      ],
      "matrix": [
        1.0,
        0.0,
        0.0,
        0.0,
        0.0,
        2.220446049250313e-16,
        -1.0,
        0.0,
        0.0,
        1.0,
        2.220446049250313e-16,
        0.0,
        0.0,
        0.0,
        0.0,
        1.0
      ],
      "name": "Sketchfab_model"
    },
    {
      "children": [
        2
      ],
      "matrix": [
        1.0,
        0.0,
        0.0,
        0.0,
        0.0,
        0.0,
        1.0,
        0.0,
        0.0,
        -1.0,
        0.0,
        0.0,
        0.0,
        0.0,
        0.0,
        1.0
      ],
      "name": "a71ea01d274c4821bdfc4b63e8e00ef9.fbx"
    },
    {
      "children": [
        3,
        5,
        7
      ],
      "name": "RootNode"
    },
    {
      "children": [
        4
      ],
      "matrix": [
        1.0,
        0.0,
        0.0,
        0.0,
        0.0,
        2.220446049250313e-16,
        -1.0,
        0.0,
        0.0,
        1.0,
        2.220446049250313e-16,
        0.0,
        -8.031169891357422,
        0.0,
        0.0,
        1.0
      ],
      "name": "Gun_Lever"
    },
    {
      "mesh": 0,
      "name": "Gun_Lever_Weapon_MAT_0"
    },
    {
      "children": [
        6
      ],
      "matrix": [
        1.0,
        0.0,
        0.0,
        0.0,
        0.0,
        2.220446049250313e-16,
        -1.0,
        0.0,
        0.0,
        1.0,
        2.220446049250313e-16,
        0.0,
        -8.031169891357422,
        0.0,
        0.0,
        1.0
      ],
      "name": "Gun_Main"
    },
    {
      "mesh": 1,
      "name": "Gun_Main_Weapon_MAT1_0"
    },
    {
      "children": [
        8
      ],
      "matrix": [
        1.0,
        0.0,
        0.0,
        0.0,
        0.0,
        2.220446049250313e-16,
        -1.0,
        0.0,
        0.0,
        1.0,
        2.220446049250313e-16,
        0.0,
        -8.031169891357422,
        0.0,
        0.0,
        1.0
      ],
      "name": "Gun_Trigger"
    },
    {
      "mesh": 2,
      "name": "Gun_Trigger_Weapon_MAT2_0"
    }
  ],
  "samplers": [
    {
      "magFilter": 9729,
      "minFilter": 9987,
      "wrapS": 10497,
      "wrapT": 10497
    }
  ],
  "scene": 0,
  "scenes": [
    {
      "name": "Sketchfab_Scene",
      "nodes": [
        0
      ]
    }
  ],
  "textures": [
    {
      "sampler": 0,
      "source": 0
    },
    {
      "sampler": 0,
      "source": 1
    },
    {
      "sampler": 0,
      "source": 2
    },
    {
      "sampler": 0,
      "source": 3
    },
    {
      "sampler": 0,
      "source": 4
    }
  ]
}
