{
  "accessors": [
    {
      "bufferView": 2,
      "componentType": 5126,
      "count": 6390,
      "max": [
        8.616765975952148,
        49.837242126464844,
        12.3860445022583
      ],
      "min": [
        -8.61677074432373,
        -49.83723831176758,
        -12.429361343383789
      ],
      "type": "VEC3"
    },
    {
      "bufferView": 2,
      "byteOffset": 76680,
      "componentType": 5126,
      "count": 6390,
      "max": [
        1.0,
        1.0,
        1.0
      ],
      "min": [
        -1.0,
        -1.0,
        -1.0
      ],
      "type": "VEC3"
    },
    {
      "bufferView": 1,
      "componentType": 5126,
      "count": 6390,
      "max": [
        0.9587589502334595,
        0.992205023765564
      ],
      "min": [
        0.0005000000237487257,
        0.020490847527980804
      ],
      "type": "VEC2"
    },
    {
      "bufferView": 0,
      "componentType": 5125,
      "count": 27696,
      "type": "SCALAR"
    },
    {
      "bufferView": 2,
      "byteOffset": 153360,
      "componentType": 5126,
      "count": 6145,
      "max": [
        14.259907722473145,
        36.41801071166992,
        14.259055137634277
      ],
      "min": [
        -14.259904861450195,
        -1.3877275932827615e-06,
        -14.259068489074707
      ],
      "type": "VEC3"
    },
    {
      "bufferView": 2,
      "byteOffset": 227100,
      "componentType": 5126,
      "count": 6145,
      "max": [
        1.0,
        0.9908316135406494,
        1.0
      ],
      "min": [
        -1.0,
        -1.0,
        -1.0
      ],
      "type": "VEC3"
    },
    {
      "bufferView": 3,
      "componentType": 5126,
      "count": 6145,
      "max": [
        1.0,
        0.9870327711105347,
        1.0,
        1.0
      ],
      "min": [
        -1.0,
        -1.0,
        -0.9958376288414001,
        1.0
      ],
      "type": "VEC4"
    },
    {
      "bufferView": 1,
      "byteOffset": 51120,
      "componentType": 5126,
      "count": 6145,
      "max": [
        0.9633323550224304,
        0.9826025366783142
      ],
      "min": [
        0.10545196384191513,
        0.035483989864587784
      ],
      "type": "VEC2"
    },
    {
      "bufferView": 0,
      "byteOffset": 110784,
      "componentType": 5125,
      "count": 25488,
      "type": "SCALAR"
    },
    {
      "bufferView": 2,
      "byteOffset": 300840,
      "componentType": 5126,
      "count": 1357,
      "max": [
        8.213431358337402,
        35.001983642578125,
        8.212939262390137
      ],
      "min": [
        -8.213431358337402,
        32.75387954711914,
        -8.212950706481934
      ],
      "type": "VEC3"
    },
    {
      "bufferView": 2,
      "byteOffset": 317124,
      "componentType": 5126,
      "count": 1357,
      "max": [
        0.9990299344062805,
        1.0,
        0.99905925989151
      ],
      "min": [
        -0.9990299344062805,
        -4.989969966118224e-07,
        -0.99905925989151
      ],
      "type": "VEC3"
    },
    {
      "bufferView": 1,
      "byteOffset": 100280,
      "componentType": 5126,
      "count": 1357,
      "max": [
        0.772695004940033,
        0.9812320470809937
      ],
      "min": [
        0.020490847527980804,
        0.19569852948188782
      ],
      "type": "VEC2"
    },
    {
      "bufferView": 0,
      "byteOffset": 212736,
      "componentType": 5125,
      "count": 6048,
      "type": "SCALAR"
    },
    {
      "bufferView": 2,
      "byteOffset": 333408,
      "componentType": 5126,
      "count": 6239,
      "max": [
        13.058673858642578,
        49.837242126464844,
        11.363370895385742
      ],
      "min": [
        -11.390045166015625,
        -49.83723831176758,
        -10.454788208007813
      ],
      "type": "VEC3"
    },
    {
      "bufferView": 2,
      "byteOffset": 408276,
      "componentType": 5126,
      "count": 6239,
      "max": [
        0.9998756051063538,
        1.0,
        0.997795581817627
      ],
      "min": [
        -0.9999997019767761,
        -1.0,
        -0.9999033212661743
      ],
      "type": "VEC3"
    },
    {
      "bufferView": 1,
      "byteOffset": 111136,
      "componentType": 5126,
      "count": 6239,
      "max": [
        0.9189581871032715,
        0.999500036239624
      ],
      "min": [
        0.0005000000237487257,
        0.0005000000237487257
      ],
      "type": "VEC2"
    },
    {
      "bufferView": 0,
      "byteOffset": 236928,
      "componentType": 5125,
      "count": 27696,
      "type": "SCALAR"
    },
    {
      "bufferView": 2,
      "byteOffset": 483144,
      "componentType": 5126,
      "count": 6239,
      "max": [
        11.39004135131836,
        49.837242126464844,
        11.363361358642578
      ],
      "min": [
        -13.058676719665527,
        -49.83723831176758,
        -10.454782485961914
      ],
      "type": "VEC3"
    },
    {
      "bufferView": 2,
      "byteOffset": 558012,
      "componentType": 5126,
      "count": 6239,
      "max": [
        0.9999997019767761,
        1.0,
        0.9977957010269165
      ],
      "min": [
        -0.999875545501709,
        -1.0,
        -0.9999033212661743
      ],
      "type": "VEC3"
    },
    {
      "bufferView": 1,
      "byteOffset": 161048,
      "componentType": 5126,
      "count": 6239,
      "max": [
        0.9762969017028809,
        0.9973871111869812
      ],
      "min": [
        0.0005000000237487257,
        0.0005000000237487257
      ],
      "type": "VEC2"
    },
    {
      "bufferView": 0,
      "byteOffset": 347712,
      "componentType": 5125,
      "count": 27696,
      "type": "SCALAR"
    },
    {
      "bufferView": 2,
      "byteOffset": 632880,
      "componentType": 5126,
      "count": 1256,
      "max": [
        9.026322364807129,
        20.591045379638672,
        30.289329528808594
      ],
      "min": [
        -9.026322364807129,
        -20.89081573486328,
        -29.514400482177734
      ],
      "type": "VEC3"
    },
    {
      "bufferView": 2,
      "byteOffset": 647952,
      "componentType": 5126,
      "count": 1256,
      "max": [
        0.9997955560684204,
        0.864880383014679,
        0.9072781205177307
      ],
      "min": [
        -0.9997956156730652,
        -0.893639326095581,
        -0.7861773371696472
      ],
      "type": "VEC3"
    },
    {
      "bufferView": 3,
      "byteOffset": 98320,
      "componentType": 5126,
      "count": 1256,
      "max": [
        0.9347763657569885,
        0.9911263585090637,
        0.9344046115875244,
        1.0
      ],
      "min": [
        -0.949489414691925,
        -0.8316458463668823,
        -0.999887228012085,
        1.0
      ],
      "type": "VEC4"
    },
    {
      "bufferView": 1,
      "byteOffset": 210960,
      "componentType": 5126,
      "count": 1256,
      "max": [
        0.9223147034645081,
        0.9820704460144043
      ],
      "min": [
        0.10045424848794937,
        0.035483989864587784
      ],
      "type": "VEC2"
    },
    {
      "bufferView": 0,
      "byteOffset": 458496,
      "componentType": 5125,
      "count": 3936,
      "type": "SCALAR"
    },
    {
      "bufferView": 2,
      "byteOffset": 663024,
      "componentType": 5126,
      "count": 349,
      "max": [
        4.792705535888672,
        20.176815032958984,
        29.231578826904297
      ],
      "min": [
        -4.792715072631836,
        -20.44021224975586,
        -29.68692398071289
      ],
      "type": "VEC3"
    },
    {
      "bufferView": 2,
      "byteOffset": 667212,
      "componentType": 5126,
      "count": 349,
      "max": [
        0.49376457929611206,
        0.9999832510948181,
        0.9975666999816895
      ],
      "min": [
        -0.4888034462928772,
        -0.9978768825531006,
        -0.9994015097618103
      ],
      "type": "VEC3"
    },
    {
      "bufferView": 1,
      "byteOffset": 221008,
      "componentType": 5126,
      "count": 349,
      "max": [
        0.915158212184906,
        0.9371386766433716
      ],
      "min": [
        0.2805497646331787,
        0.06547025591135025
      ],
      "type": "VEC2"
    },
    {
      "bufferView": 0,
      "byteOffset": 474240,
      "componentType": 5125,
      "count": 1344,
      "type": "SCALAR"
    },
    {
      "bufferView": 2,
      "byteOffset": 671400,
      "componentType": 5126,
      "count": 3785,
      "max": [
        30.12554359436035,
        5.815277099609375,
        33.35830307006836
      ],
      "min": [
        -30.12554359436035,
        -5.815277576446533,
        -20.528457641601563
      ],
      "type": "VEC3"
    },
    {
      "bufferView": 2,
      "byteOffset": 716820,
      "componentType": 5126,
      "count": 3785,
      "max": [
        1.0,
        0.9997828602790833,
        1.0
      ],
      "min": [
        -1.0,
        -0.9997828006744385,
        -1.0
      ],
      "type": "VEC3"
    },
    {
      "bufferView": 1,
      "byteOffset": 223800,
      "componentType": 5126,
      "count": 3785,
      "max": [
        0.9215876460075378,
        0.9976437091827393
      ],
      "min": [
        0.00549771124497056,
        0.10545196384191513
      ],
      "type": "VEC2"
    },
    {
      "bufferView": 0,
      "byteOffset": 479616,
      "componentType": 5125,
      "count": 16704,
      "type": "SCALAR"
    },
    {
      "bufferView": 2,
      "byteOffset": 762240,
      "componentType": 5126,
      "count": 3788,
      "max": [
        20.74003028869629,
        3.428044080734253,
        14.13288688659668
      ],
      "min": [
        -20.740034103393555,
        -3.4280447959899902,
        -22.965633392333984
      ],
      "type": "VEC3"
    },
    {
      "bufferView": 2,
      "byteOffset": 807696,
      "componentType": 5126,
      "count": 3788,
      "max": [
        1.0,
        0.9998407959938049,
        1.0
      ],
      "min": [
        -1.0,
        -0.9998407959938049,
        -1.0
      ],
      "type": "VEC3"
    },
    {
      "bufferView": 3,
      "byteOffset": 118416,
      "componentType": 5126,
      "count": 3788,
      "max": [
        1.0,
        1.0,
        0.8840852379798889,
        1.0
      ],
      "min": [
        -1.0,
        -1.0,
        -1.0,
        1.0
      ],
      "type": "VEC4"
    },
    {
      "bufferView": 1,
      "byteOffset": 254080,
      "componentType": 5126,
      "count": 3788,
      "max": [
        0.877805769443512,
        0.9470622539520264
      ],
      "min": [
        0.12044508755207062,
        0.040481697767972946
      ],
      "type": "VEC2"
    },
    {
      "bufferView": 0,
      "byteOffset": 546432,
      "componentType": 5125,
      "count": 16704,
      "type": "SCALAR"
    },
    {
      "bufferView": 2,
      "byteOffset": 853152,
      "componentType": 5126,
      "count": 714,
      "max": [
        3.6534981727600098,
        29.46867561340332,
        26.301748275756836
      ],
      "min": [
        -3.6534981727600098,
        -26.837923049926758,
        -12.272323608398438
      ],
      "type": "VEC3"
    },
    {
      "bufferView": 2,
      "byteOffset": 861720,
      "componentType": 5126,
      "count": 714,
      "max": [
        1.0,
        1.0,
        1.0
      ],
      "min": [
        -1.0,
        -1.0,
        -1.0
      ],
      "type": "VEC3"
    },
    {
      "bufferView": 3,
      "byteOffset": 179024,
      "componentType": 5126,
      "count": 714,
      "max": [
        1.0,
        1.0,
        1.0,
        1.0
      ],
      "min": [
        -1.0,
        -1.0,
        -1.0,
        1.0
      ],
      "type": "VEC4"
    },
    {
      "bufferView": 1,
      "byteOffset": 284384,
      "componentType": 5126,
      "count": 714,
      "max": [
        0.9526762366294861,
        0.9973182678222656
      ],
      "min": [
        0.3253512680530548,
        0.14543366432189941
      ],
      "type": "VEC2"
    },
    {
      "bufferView": 0,
      "byteOffset": 613248,
      "componentType": 5125,
      "count": 2784,
      "type": "SCALAR"
    },
    {
      "bufferView": 2,
      "byteOffset": 870288,
      "componentType": 5126,
      "count": 180,
      "max": [
        2.6903023719787598,
        17.507713317871094,
        23.89565658569336
      ],
      "min": [
        -2.6903023719787598,
        -10.452756881713867,
        -2.2198586463928223
      ],
      "type": "VEC3"
    },
    {
      "bufferView": 2,
      "byteOffset": 872448,
      "componentType": 5126,
      "count": 180,
      "max": [
        1.0,
        0.9956266283988953,
        0.9996100664138794
      ],
      "min": [
        -1.0,
        -0.9966936111450195,
        -0.9973266124725342
      ],
      "type": "VEC3"
    },
    {
      "bufferView": 3,
      "byteOffset": 190448,
      "componentType": 5126,
      "count": 180,
      "max": [
        1.0,
        0.9936431646347046,
        0.9947041869163513,
        1.0
      ],
      "min": [
        -1.0,
        -1.0,
        -0.9956493973731995,
        1.0
      ],
      "type": "VEC4"
    },
    {
      "bufferView": 1,
      "byteOffset": 290096,
      "componentType": 5126,
      "count": 180,
      "max": [
        0.9596795439720154,
        0.9989894032478333
      ],
      "min": [
        0.045479413121938705,
        0.10045424848794937
      ],
      "type": "VEC2"
    },
    {
      "bufferView": 0,
      "byteOffset": 624384,
      "componentType": 5125,
      "count": 444,
      "type": "SCALAR"
    },
    {
      "bufferView": 2,
      "byteOffset": 874608,
      "componentType": 5126,
      "count": 548,
      "max": [
        1.3900844351155683e-06,
        12.062973022460938,
        12.249063491821289
      ],
      "min": [
        -17.002805709838867,
        -12.06299114227295,
        -12.249065399169922
      ],
      "type": "VEC3"
    },
    {
      "bufferView": 2,
      "byteOffset": 881184,
      "componentType": 5126,
      "count": 548,
      "max": [
        1.0,
        0.9848078489303589,
        1.0
      ],
      "min": [
        -1.0,
        -0.9848079681396484,
        -1.0
      ],
      "type": "VEC3"
    },
    {
      "bufferView": 1,
      "byteOffset": 291536,
      "componentType": 5126,
      "count": 548,
      "max": [
        0.9697466492652893,
        0.9842806458473206
      ],
      "min": [
        0.025488561019301414,
        0.19541077315807343
      ],
      "type": "VEC2"
    },
    {
      "bufferView": 0,
      "byteOffset": 626160,
      "componentType": 5125,
      "count": 1404,
      "type": "SCALAR"
    },
    {
      "bufferView": 2,
      "byteOffset": 887760,
      "componentType": 5126,
      "count": 782,
      "max": [
        9.649310111999512,
        20.856918334960938,
        17.196434020996094
      ],
      "min": [
        -9.649307250976563,
        -20.420928955078125,
        -24.146438598632813
      ],
      "type": "VEC3"
    },
    {
      "bufferView": 2,
      "byteOffset": 897144,
      "componentType": 5126,
      "count": 782,
      "max": [
        1.0,
        1.0,
        1.0
      ],
      "min": [
        -1.0,
        -1.0,
        -0.999982476234436
      ],
      "type": "VEC3"
    },
    {
      "bufferView": 3,
      "byteOffset": 193328,
      "componentType": 5126,
      "count": 782,
      "max": [
        1.0,
        1.0,
        1.0,
        1.0
      ],
      "min": [
        -1.0,
        -1.0,
        -1.0,
        1.0
      ],
      "type": "VEC4"
    },
    {
      "bufferView": 1,
      "byteOffset": 295920,
      "componentType": 5126,
      "count": 782,
      "max": [
        0.9426000118255615,
        0.9380406141281128
      ],
      "min": [
        0.13044050335884094,
        0.10045424848794937
      ],
      "type": "VEC2"
    },
    {
      "bufferView": 0,
      "byteOffset": 631776,
      "componentType": 5125,
      "count": 2124,
      "type": "SCALAR"
    },
    {
      "bufferView": 2,
      "byteOffset": 906528,
      "componentType": 5126,
      "count": 173,
      "max": [
        5.5428690910339355,
        5.73870325088501,
        5.496328353881836
      ],
      "min": [
        -5.542868614196777,
        1.4271562099456787,
        -5.558411121368408
      ],
      "type": "VEC3"
    },
    {
      "bufferView": 2,
      "byteOffset": 908604,
      "componentType": 5126,
      "count": 173,
      "max": [
        0.9488574862480164,
        1.0,
        0.9408901333808899
      ],
      "min": [
        -0.948857307434082,
        -1.0,
        -0.9515181183815002
      ],
      "type": "VEC3"
    },
    {
      "bufferView": 1,
      "byteOffset": 302176,
      "componentType": 5126,
      "count": 173,
      "max": [
        0.9032805562019348,
        0.9188136458396912
      ],
      "min": [
        0.16542451083660126,
        0.2353924661874771
      ],
      "type": "VEC2"
    },
    {
      "bufferView": 0,
      "byteOffset": 640272,
      "componentType": 5125,
      "count": 630,
      "type": "SCALAR"
    },
    {
      "bufferView": 2,
      "byteOffset": 910680,
      "componentType": 5126,
      "count": 173,
      "max": [
        4.5694732666015625,
        -1.1765300035476685,
        4.531105995178223
      ],
      "min": [
        -4.569473743438721,
        -4.730916976928711,
        -4.582286357879639
      ],
      "type": "VEC3"
    },
    {
      "bufferView": 2,
      "byteOffset": 912756,
      "componentType": 5126,
      "count": 173,
      "max": [
        0.9488576054573059,
        1.0,
        0.9408901929855347
      ],
      "min": [
        -0.9488571882247925,
        -1.0,
        -0.9515182971954346
      ],
      "type": "VEC3"
    },
    {
      "bufferView": 1,
      "byteOffset": 303560,
      "componentType": 5126,
      "count": 173,
      "max": [
        0.894158124923706,
        0.9192001819610596
      ],
      "min": [
        0.10545196384191513,
        0.2253970503807068
      ],
      "type": "VEC2"
    },
    {
      "bufferView": 0,
      "byteOffset": 642792,
      "componentType": 5125,
      "count": 630,
      "type": "SCALAR"
    },
    {
      "bufferView": 2,
      "byteOffset": 914832,
      "componentType": 5126,
      "count": 173,
      "max": [
        6.025514602661133,
        6.238400936126709,
        5.974920749664307
      ],
      "min": [
        -6.025514125823975,
        1.5514259338378906,
        -6.042410373687744
      ],
      "type": "VEC3"
    },
    {
      "bufferView": 2,
      "byteOffset": 916908,
      "componentType": 5126,
      "count": 173,
      "max": [
        0.9488574862480164,
        1.0,
        0.9408904314041138
      ],
      "min": [
        -0.948857307434082,
        -1.0,
        -0.9515180587768555
      ],
      "type": "VEC3"
    },
    {
      "bufferView": 1,
      "byteOffset": 304944,
      "componentType": 5126,
      "count": 173,
      "max": [
        0.9695430994033813,
        0.9747225642204285
      ],
      "min": [
        0.10045424848794937,
        0.025488561019301414
      ],
      "type": "VEC2"
    },
    {
      "bufferView": 0,
      "byteOffset": 645312,
      "componentType": 5125,
      "count": 630,
      "type": "SCALAR"
    },
    {
      "bufferView": 2,
      "byteOffset": 918984,
      "componentType": 5126,
      "count": 173,
      "max": [
        5.055779933929443,
        -1.3017423152923584,
        5.01332950592041
      ],
      "min": [
        -5.055780410766602,
        -5.234405040740967,
        -5.0699567794799805
      ],
      "type": "VEC3"
    },
    {
      "bufferView": 2,
      "byteOffset": 921060,
      "componentType": 5126,
      "count": 173,
      "max": [
        0.9488576054573059,
        1.0,
        0.9408901333808899
      ],
      "min": [
        -0.9488571882247925,
        -1.0,
        -0.9515181183815002
      ],
      "type": "VEC3"
    },
    {
      "bufferView": 1,
      "byteOffset": 306328,
      "componentType": 5126,
      "count": 173,
      "max": [
        0.876234769821167,
        0.941224992275238
      ],
      "min": [
        0.10545196384191513,
        0.035483986139297485
      ],
      "type": "VEC2"
    },
    {
      "bufferView": 0,
      "byteOffset": 647832,
      "componentType": 5125,
      "count": 630,
      "type": "SCALAR"
    },
    {
      "bufferView": 2,
      "byteOffset": 923136,
      "componentType": 5126,
      "count": 165,
      "max": [
        8.898268699645996,
        5.053650379180908,
        8.823554039001465
      ],
      "min": [
        -8.89826774597168,
        1.256790041923523,
        -8.923218727111816
      ],
      "type": "VEC3"
    },
    {
      "bufferView": 2,
      "byteOffset": 925116,
      "componentType": 5126,
      "count": 165,
      "max": [
        0.8591229319572449,
        1.0,
        0.851909339427948
      ],
      "min": [
        -0.8591228723526001,
        -1.0,
        -0.8615317940711975
      ],
      "type": "VEC3"
    },
    {
      "bufferView": 1,
      "byteOffset": 307712,
      "componentType": 5126,
      "count": 165,
      "max": [
        0.8361166715621948,
        0.984381914138794
      ],
      "min": [
        0.23039475083351135,
        0.09545654058456421
      ],
      "type": "VEC2"
    },
    {
      "bufferView": 0,
      "byteOffset": 650352,
      "componentType": 5125,
      "count": 630,
      "type": "SCALAR"
    },
    {
      "bufferView": 2,
      "byteOffset": 927096,
      "componentType": 5126,
      "count": 6145,
      "max": [
        14.259909629821777,
        1.8897846985055367e-06,
        14.259055137634277
      ],
      "min": [
        -14.259902954101563,
        -36.41801071166992,
        -14.259068489074707
      ],
      "type": "VEC3"
    },
    {
      "bufferView": 2,
      "byteOffset": 1000836,
      "componentType": 5126,
      "count": 6145,
      "max": [
        1.0,
        1.0,
        1.0
      ],
      "min": [
        -1.0,
        -0.990831196308136,
        -1.0
      ],
      "type": "VEC3"
    },
    {
      "bufferView": 3,
      "byteOffset": 205840,
      "componentType": 5126,
      "count": 6145,
      "max": [
        1.0,
        1.0,
        0.990273654460907,
        1.0
      ],
      "min": [
        -1.0,
        -0.982550323009491,
        -1.0,
        1.0
      ],
      "type": "VEC4"
    },
    {
      "bufferView": 1,
      "byteOffset": 309032,
      "componentType": 5126,
      "count": 6145,
      "max": [
        0.9683300852775574,
        0.9848387837409973
      ],
      "min": [
        0.1104496642947197,
        0.025488561019301414
      ],
      "type": "VEC2"
    },
    {
      "bufferView": 0,
      "byteOffset": 652872,
      "componentType": 5125,
      "count": 25488,
      "type": "SCALAR"
    },
    {
      "bufferView": 2,
      "byteOffset": 1074576,
      "componentType": 5126,
      "count": 1357,
      "max": [
        8.213436126708984,
        -32.75387954711914,
        8.212939262390137
      ],
      "min": [
        -8.21342658996582,
        -35.001983642578125,
        -8.212950706481934
      ],
      "type": "VEC3"
    },
    {
      "bufferView": 2,
      "byteOffset": 1090860,
      "componentType": 5126,
      "count": 1357,
      "max": [
        0.9990299344062805,
        5.840534527123964e-07,
        0.9990593194961548
      ],
      "min": [
        -0.9990299344062805,
        -1.0,
        -0.9990593194961548
      ],
      "type": "VEC3"
    },
    {
      "bufferView": 1,
      "byteOffset": 358192,
      "componentType": 5126,
      "count": 1357,
      "max": [
        0.7625709772109985,
        0.9812320470809937
      ],
      "min": [
        0.020490847527980804,
        0.21436764299869537
      ],
      "type": "VEC2"
    },
    {
      "bufferView": 0,
      "byteOffset": 754824,
      "componentType": 5125,
      "count": 6048,
      "type": "SCALAR"
    },
    {
      "bufferView": 2,
      "byteOffset": 1107144,
      "componentType": 5126,
      "count": 165,
      "max": [
        8.89826774597168,
        -1.2567895650863647,
        8.823554039001465
      ],
      "min": [
        -8.898268699645996,
        -5.053650379180908,
        -8.923218727111816
      ],
      "type": "VEC3"
    },
    {
      "bufferView": 2,
      "byteOffset": 1109124,
      "componentType": 5126,
      "count": 165,
      "max": [
        0.8591229915618896,
        1.0,
        0.851909339427948
      ],
      "min": [
        -0.8591228723526001,
        -1.0,
        -0.8615317940711975
      ],
      "type": "VEC3"
    },
    {
      "bufferView": 1,
      "byteOffset": 369048,
      "componentType": 5126,
      "count": 165,
      "max": [
        0.956956148147583,
        0.984381914138794
      ],
      "min": [
        0.10045424848794937,
        0.020490847527980804
      ],
      "type": "VEC2"
    },
    {
      "bufferView": 0,
      "byteOffset": 779016,
      "componentType": 5125,
      "count": 630,
      "type": "SCALAR"
    },
    {
      "bufferView": 2,
      "byteOffset": 1111104,
      "componentType": 5126,
      "count": 313,
      "max": [
        10.143183708190918,
        23.73971939086914,
        9.989086151123047
      ],
      "min": [
        -10.143183708190918,
        -29.115089416503906,
        -9.989095687866211
      ],
      "type": "VEC3"
    },
    {
      "bufferView": 2,
      "byteOffset": 1114860,
      "componentType": 5126,
      "count": 313,
      "max": [
        1.0,
        1.0,
        0.9848079085350037
      ],
      "min": [
        -1.0,
        -1.0,
        -0.9848078489303589
      ],
      "type": "VEC3"
    },
    {
      "bufferView": 1,
      "byteOffset": 370368,
      "componentType": 5126,
      "count": 313,
      "max": [
        0.8764063119888306,
        0.9837743639945984
      ],
      "min": [
        0.3153558373451233,
        0.20540618896484375
      ],
      "type": "VEC2"
    },
    {
      "bufferView": 0,
      "byteOffset": 781536,
      "componentType": 5125,
      "count": 810,
      "type": "SCALAR"
    },
    {
      "bufferView": 2,
      "byteOffset": 1118616,
      "componentType": 5126,
      "count": 224,
      "max": [
        11.771848678588867,
        8.799617767333984,
        11.592992782592773
      ],
      "min": [
        -11.771842956542969,
        -2.8635311126708984,
        -11.593013763427734
      ],
      "type": "VEC3"
    },
    {
      "bufferView": 2,
      "byteOffset": 1121304,
      "componentType": 5126,
      "count": 224,
      "max": [
        1.0,
        1.0,
        0.9848079085350037
      ],
      "min": [
        -1.0,
        -1.0,
        -0.9848079085350037
      ],
      "type": "VEC3"
    },
    {
      "bufferView": 3,
      "byteOffset": 304160,
      "componentType": 5126,
      "count": 224,
      "max": [
        0.9881654977798462,
        0.7549326419830322,
        1.0,
        1.0
      ],
      "min": [
        -0.876649796962738,
        -1.0,
        -1.0,
        1.0
      ],
      "type": "VEC4"
    },
    {
      "bufferView": 1,
      "byteOffset": 372872,
      "componentType": 5126,
      "count": 224,
      "max": [
        0.8890976905822754,
        0.9963539838790894
      ],
      "min": [
        0.2253970503807068,
        0.30536043643951416
      ],
      "type": "VEC2"
    },
    {
      "bufferView": 0,
      "byteOffset": 784776,
      "componentType": 5125,
      "count": 540,
      "type": "SCALAR"
    },
    {
      "bufferView": 2,
      "byteOffset": 1123992,
      "componentType": 5126,
      "count": 19,
      "max": [
        6.445486545562744,
        -5.468540191650391,
        6.347545146942139
      ],
      "min": [
        -6.445486545562744,
        -5.700096130371094,
        -6.347586631774902
      ],
      "type": "VEC3"
    },
    {
      "bufferView": 2,
      "byteOffset": 1124220,
      "componentType": 5126,
      "count": 19,
      "max": [
        0.06317968666553497,
        0.9999691843986511,
        0.03535633161664009
      ],
      "min": [
        -0.06317969411611557,
        0.9979901313781738,
        -0.023076867684721947
      ],
      "type": "VEC3"
    },
    {
      "bufferView": 1,
      "byteOffset": 374664,
      "componentType": 5126,
      "count": 19,
      "max": [
        0.9784654378890991,
        0.343248575925827
      ],
      "min": [
        0.9450676441192627,
        0.3103581666946411
      ],
      "type": "VEC2"
    },
    {
      "bufferView": 0,
      "byteOffset": 786936,
      "componentType": 5125,
      "count": 54,
      "type": "SCALAR"
    },
    {
      "bufferView": 2,
      "byteOffset": 1124448,
      "componentType": 5126,
      "count": 173,
      "max": [
        6.899968147277832,
        7.143749237060547,
        6.842031955718994
      ],
      "min": [
        -6.899967193603516,
        1.7765767574310303,
        -6.919315814971924
      ],
      "type": "VEC3"
    },
    {
      "bufferView": 2,
      "byteOffset": 1126524,
      "componentType": 5126,
      "count": 173,
      "max": [
        0.9488574266433716,
        1.0,
        0.9408903121948242
      ],
      "min": [
        -0.9488574266433716,
        -1.0,
        -0.9515178799629211
      ],
      "type": "VEC3"
    },
    {
      "bufferView": 1,
      "byteOffset": 374816,
      "componentType": 5126,
      "count": 173,
      "max": [
        0.7321336269378662,
        0.9138736724853516
      ],
      "min": [
        0.2353924661874771,
        0.040481697767972946
      ],
      "type": "VEC2"
    },
    {
      "bufferView": 0,
      "byteOffset": 787152,
      "componentType": 5125,
      "count": 630,
      "type": "SCALAR"
    },
    {
      "bufferView": 2,
      "byteOffset": 1128600,
      "componentType": 5126,
      "count": 3742,
      "max": [
        16.96491050720215,
        3.6768288612365723,
        11.560405731201172
      ],
      "min": [
        -16.964914321899414,
        -3.6768290996551514,
        -18.78540802001953
      ],
      "type": "VEC3"
    },
    {
      "bufferView": 2,
      "byteOffset": 1173504,
      "componentType": 5126,
      "count": 3742,
      "max": [
        1.0,
        0.9997262358665466,
        1.0
      ],
      "min": [
        -1.0,
        -0.9997262358665466,
        -1.0
      ],
      "type": "VEC3"
    },
    {
      "bufferView": 3,
      "byteOffset": 307744,
      "componentType": 5126,
      "count": 3742,
      "max": [
        1.0,
        1.0,
        1.0,
        1.0
      ],
      "min": [
        -1.0,
        -1.0,
        -0.9999483823776245,
        1.0
      ],
      "type": "VEC4"
    },
    {
      "bufferView": 1,
      "byteOffset": 376200,
      "componentType": 5126,
      "count": 3742,
      "max": [
        0.9340389966964722,
        0.9949420690536499
      ],
      "min": [
        0.0005000000237487257,
        0.030486270785331726
      ],
      "type": "VEC2"
    },
    {
      "bufferView": 0,
      "byteOffset": 789672,
      "componentType": 5125,
      "count": 16704,
      "type": "SCALAR"
    },
    {
      "bufferView": 2,
      "byteOffset": 1218408,
      "componentType": 5126,
      "count": 3742,
      "max": [
        16.964916229248047,
        3.676830530166626,
        11.560405731201172
      ],
      "min": [
        -16.964906692504883,
        -3.676830291748047,
        -18.78540802001953
      ],
      "type": "VEC3"
    },
    {
      "bufferView": 2,
      "byteOffset": 1263312,
      "componentType": 5126,
      "count": 3742,
      "max": [
        1.0,
        0.9997262358665466,
        1.0
      ],
      "min": [
        -1.0,
        -0.9997262358665466,
        -1.0
      ],
      "type": "VEC3"
    },
    {
      "bufferView": 3,
      "byteOffset": 367616,
      "componentType": 5126,
      "count": 3742,
      "max": [
        1.0,
        1.0,
        1.0,
        1.0
      ],
      "min": [
        -1.0,
        -1.0,
        -0.9999485015869141,
        1.0
      ],
      "type": "VEC4"
    },
    {
      "bufferView": 1,
      "byteOffset": 406136,
      "componentType": 5126,
      "count": 3742,
      "max": [
        0.984042227268219,
        0.9759112000465393
      ],
      "min": [
        0.005497712176293135,
        0.025488561019301414
      ],
      "type": "VEC2"
    },
    {
      "bufferView": 0,
      "byteOffset": 856488,
      "componentType": 5125,
      "count": 16704,
      "type": "SCALAR"
    },
    {
      "bufferView": 2,
      "byteOffset": 1308216,
      "componentType": 5126,
      "count": 548,
      "max": [
        17.002803802490234,
        12.062990188598633,
        12.249064445495605
      ],
      "min": [
        -7.345832955252263e-07,
        -12.062973976135254,
        -12.249063491821289
      ],
      "type": "VEC3"
    },
    {
      "bufferView": 2,
      "byteOffset": 1314792,
      "componentType": 5126,
      "count": 548,
      "max": [
        1.0,
        0.9848079681396484,
        1.0
      ],
      "min": [
        -1.0,
        -0.9848079085350037,
        -1.0
      ],
      "type": "VEC3"
    },
    {
      "bufferView": 1,
      "byteOffset": 436072,
      "componentType": 5126,
      "count": 548,
      "max": [
        0.9847397208213806,
        0.9842806458473206
      ],
      "min": [
        0.2503856122493744,
        0.045479413121938705
      ],
      "type": "VEC2"
    },
    {
      "bufferView": 0,
      "byteOffset": 923304,
      "componentType": 5125,
      "count": 1404,
      "type": "SCALAR"
    },
    {
      "bufferView": 2,
      "byteOffset": 1321368,
      "componentType": 5126,
      "count": 140,
      "max": [
        3.545102596282959,
        10.209266662597656,
        33.07288360595703
      ],
      "min": [
        -3.545102834701538,
        -54.884620666503906,
        -15.056793212890625
      ],
      "type": "VEC3"
    },
    {
      "bufferView": 2,
      "byteOffset": 1323048,
      "componentType": 5126,
      "count": 140,
      "max": [
        1.0,
        0.9999867081642151,
        0.994522213935852
      ],
      "min": [
        -1.0,
        -0.99998539686203,
        -0.9626401662826538
      ],
      "type": "VEC3"
    },
    {
      "bufferView": 3,
      "byteOffset": 427488,
      "componentType": 5126,
      "count": 140,
      "max": [
        1.0,
        0.9945220351219177,
        1.0,
        1.0
      ],
      "min": [
        -1.0,
        -0.6841952204704285,
        -0.5016490817070007,
        1.0
      ],
      "type": "VEC4"
    },
    {
      "bufferView": 1,
      "byteOffset": 440456,
      "componentType": 5126,
      "count": 140,
      "max": [
        0.5051049590110779,
        0.7168115377426147
      ],
      "min": [
        0.08046339452266693,
        0.1817411631345749
      ],
      "type": "VEC2"
    },
    {
      "bufferView": 0,
      "byteOffset": 928920,
      "componentType": 5125,
      "count": 450,
      "type": "SCALAR"
    },
    {
      "bufferView": 2,
      "byteOffset": 1324728,
      "componentType": 5126,
      "count": 254,
      "max": [
        3.8654651641845703,
        55.836936950683594,
        30.028770446777344
      ],
      "min": [
        -3.865464925765991,
        -40.669769287109375,
        -15.95518970489502
      ],
      "type": "VEC3"
    },
    {
      "bufferView": 2,
      "byteOffset": 1327776,
      "componentType": 5126,
      "count": 254,
      "max": [
        1.0,
        0.9997891783714294,
        0.9994295239448547
      ],
      "min": [
        -1.0,
        -0.9978721141815186,
        -0.9998965263366699
      ],
      "type": "VEC3"
    },
    {
      "bufferView": 1,
      "byteOffset": 441576,
      "componentType": 5126,
      "count": 254,
      "max": [
        0.9940964579582214,
        0.8970822095870972
      ],
      "min": [
        0.08046339452266693,
        0.0005000000237487257
      ],
      "type": "VEC2"
    },
    {
      "bufferView": 0,
      "byteOffset": 930720,
      "componentType": 5125,
      "count": 702,
      "type": "SCALAR"
    },
    {
      "bufferView": 2,
      "byteOffset": 1330824,
      "componentType": 5126,
      "count": 162,
      "max": [
        0.5529699921607971,
        4.304163932800293,
        5.620247840881348
      ],
      "min": [
        -0.5529665946960449,
        -3.4040324687957764,
        -5.738738536834717
      ],
      "type": "VEC3"
    },
    {
      "bufferView": 2,
      "byteOffset": 1332768,
      "componentType": 5126,
      "count": 162,
      "max": [
        1.0,
        0.9970530271530151,
        0.9961947798728943
      ],
      "min": [
        -1.0,
        -0.9961947798728943,
        -0.9828978180885315
      ],
      "type": "VEC3"
    },
    {
      "bufferView": 1,
      "byteOffset": 443608,
      "componentType": 5126,
      "count": 162,
      "max": [
        0.9413681030273438,
        0.9979100823402405
      ],
      "min": [
        0.06547025591135025,
        0.030486270785331726
      ],
      "type": "VEC2"
    },
    {
      "bufferView": 0,
      "byteOffset": 933528,
      "componentType": 5125,
      "count": 552,
      "type": "SCALAR"
    },
    {
      "bufferView": 2,
      "byteOffset": 1334712,
      "componentType": 5126,
      "count": 173,
      "max": [
        9.457658767700195,
        9.484177589416504,
        9.791805267333984
      ],
      "min": [
        -9.457657814025879,
        -9.378247261047363,
        2.435122489929199
      ],
      "type": "VEC3"
    },
    {
      "bufferView": 2,
      "byteOffset": 1336788,
      "componentType": 5126,
      "count": 173,
      "max": [
        0.9488574266433716,
        0.9515178799629211,
        1.0
      ],
      "min": [
        -0.948857307434082,
        -0.9408903121948242,
        -1.0
      ],
      "type": "VEC3"
    },
    {
      "bufferView": 1,
      "byteOffset": 444904,
      "componentType": 5126,
      "count": 173,
      "max": [
        0.98456209897995,
        0.9945574998855591
      ],
      "min": [
        0.12544280290603638,
        0.2353924661874771
      ],
      "type": "VEC2"
    },
    {
      "bufferView": 0,
      "byteOffset": 935736,
      "componentType": 5125,
      "count": 630,
      "type": "SCALAR"
    },
    {
      "bufferView": 2,
      "byteOffset": 1338864,
      "componentType": 5126,
      "count": 173,
      "max": [
        9.457658767700195,
        9.484177589416504,
        9.791805267333984
      ],
      "min": [
        -9.457657814025879,
        -9.378247261047363,
        2.435122489929199
      ],
      "type": "VEC3"
    },
    {
      "bufferView": 2,
      "byteOffset": 1340940,
      "componentType": 5126,
      "count": 173,
      "max": [
        0.9488574266433716,
        0.9515178799629211,
        1.0
      ],
      "min": [
        -0.948857307434082,
        -0.9408903121948242,
        -1.0
      ],
      "type": "VEC3"
    },
    {
      "bufferView": 1,
      "byteOffset": 446288,
      "componentType": 5126,
      "count": 173,
      "max": [
        0.9720977544784546,
        0.9177759885787964
      ],
      "min": [
        0.17541992664337158,
        0.43530094623565674
      ],
      "type": "VEC2"
    },
    {
      "bufferView": 0,
      "byteOffset": 938256,
      "componentType": 5125,
      "count": 630,
      "type": "SCALAR"
    },
    {
      "bufferView": 2,
      "byteOffset": 1343016,
      "componentType": 5126,
      "count": 173,
      "max": [
        9.457658767700195,
        9.484177589416504,
        9.791805267333984
      ],
      "min": [
        -9.457657814025879,
        -9.378247261047363,
        2.435122489929199
      ],
      "type": "VEC3"
    },
    {
      "bufferView": 2,
      "byteOffset": 1345092,
      "componentType": 5126,
      "count": 173,
      "max": [
        0.9488574266433716,
        0.9515178799629211,
        1.0
      ],
      "min": [
        -0.948857307434082,
        -0.9408903121948242,
        -1.0
      ],
      "type": "VEC3"
    },
    {
      "bufferView": 1,
      "byteOffset": 447672,
      "componentType": 5126,
      "count": 173,
      "max": [
        0.98456209897995,
        0.9923737645149231
      ],
      "min": [
        0.045479413121938705,
        0.3903215527534485
      ],
      "type": "VEC2"
    },
    {
      "bufferView": 0,
      "byteOffset": 940776,
      "componentType": 5125,
      "count": 630,
      "type": "SCALAR"
    },
    {
      "bufferView": 2,
      "byteOffset": 1347168,
      "componentType": 5126,
      "count": 173,
      "max": [
        9.457658767700195,
        9.484177589416504,
        9.791805267333984
      ],
      "min": [
        -9.457657814025879,
        -9.378247261047363,
        2.435122489929199
      ],
      "type": "VEC3"
    },
    {
      "bufferView": 2,
      "byteOffset": 1349244,
      "componentType": 5126,
      "count": 173,
      "max": [
        0.9488574266433716,
        0.9515178799629211,
        1.0
      ],
      "min": [
        -0.948857307434082,
        -0.9408903121948242,
        -1.0
      ],
      "type": "VEC3"
    },
    {
      "bufferView": 1,
      "byteOffset": 449056,
      "componentType": 5126,
      "count": 173,
      "max": [
        0.98456209897995,
        0.8496237993240356
      ],
      "min": [
        0.33034899830818176,
        0.28037190437316895
      ],
      "type": "VEC2"
    },
    {
      "bufferView": 0,
      "byteOffset": 943296,
      "componentType": 5125,
      "count": 630,
      "type": "SCALAR"
    },
    {
      "bufferView": 2,
      "byteOffset": 1351320,
      "componentType": 5126,
      "count": 173,
      "max": [
        9.457658767700195,
        9.484177589416504,
        9.791805267333984
      ],
      "min": [
        -9.457657814025879,
        -9.378247261047363,
        2.435122489929199
      ],
      "type": "VEC3"
    },
    {
      "bufferView": 2,
      "byteOffset": 1353396,
      "componentType": 5126,
      "count": 173,
      "max": [
        0.9488574266433716,
        0.9515178799629211,
        1.0
      ],
      "min": [
        -0.948857307434082,
        -0.9408903121948242,
        -1.0
      ],
      "type": "VEC3"
    },
    {
      "bufferView": 1,
      "byteOffset": 450440,
      "componentType": 5126,
      "count": 173,
      "max": [
        0.9825948476791382,
        0.9277714490890503
      ],
      "min": [
        0.3603352904319763,
        0.34534215927124023
      ],
      "type": "VEC2"
    },
    {
      "bufferView": 0,
      "byteOffset": 945816,
      "componentType": 5125,
      "count": 630,
      "type": "SCALAR"
    },
    {
      "bufferView": 2,
      "byteOffset": 1355472,
      "componentType": 5126,
      "count": 173,
      "max": [
        9.457658767700195,
        9.484177589416504,
        9.791805267333984
      ],
      "min": [
        -9.457657814025879,
        -9.378247261047363,
        2.435122489929199
      ],
      "type": "VEC3"
    },
    {
      "bufferView": 2,
      "byteOffset": 1357548,
      "componentType": 5126,
      "count": 173,
      "max": [
        0.9488574266433716,
        0.9515178799629211,
        1.0
      ],
      "min": [
        -0.948857307434082,
        -0.9408903121948242,
        -1.0
      ],
      "type": "VEC3"
    },
    {
      "bufferView": 1,
      "byteOffset": 451824,
      "componentType": 5126,
      "count": 173,
      "max": [
        0.98456209897995,
        0.9095963835716248
      ],
      "min": [
        0.28037190437316895,
        0.4303032457828522
      ],
      "type": "VEC2"
    },
    {
      "bufferView": 0,
      "byteOffset": 948336,
      "componentType": 5125,
      "count": 630,
      "type": "SCALAR"
    },
    {
      "bufferView": 2,
      "byteOffset": 1359624,
      "componentType": 5126,
      "count": 173,
      "max": [
        9.457658767700195,
        9.484177589416504,
        9.791805267333984
      ],
      "min": [
        -9.457657814025879,
        -9.378247261047363,
        2.435122489929199
      ],
      "type": "VEC3"
    },
    {
      "bufferView": 2,
      "byteOffset": 1361700,
      "componentType": 5126,
      "count": 173,
      "max": [
        0.9488574266433716,
        0.9515178799629211,
        1.0
      ],
      "min": [
        -0.948857307434082,
        -0.9408903121948242,
        -1.0
      ],
      "type": "VEC3"
    },
    {
      "bufferView": 1,
      "byteOffset": 453208,
      "componentType": 5126,
      "count": 173,
      "max": [
        0.954575777053833,
        0.9945574998855591
      ],
      "min": [
        0.08546110987663269,
        0.480280339717865
      ],
      "type": "VEC2"
    },
    {
      "bufferView": 0,
      "byteOffset": 950856,
      "componentType": 5125,
      "count": 630,
      "type": "SCALAR"
    },
    {
      "bufferView": 2,
      "byteOffset": 1363776,
      "componentType": 5126,
      "count": 173,
      "max": [
        9.457658767700195,
        9.484177589416504,
        9.791805267333984
      ],
      "min": [
        -9.457657814025879,
        -9.378247261047363,
        2.435122489929199
      ],
      "type": "VEC3"
    },
    {
      "bufferView": 2,
      "byteOffset": 1365852,
      "componentType": 5126,
      "count": 173,
      "max": [
        0.9488574266433716,
        0.9515178799629211,
        1.0
      ],
      "min": [
        -0.948857307434082,
        -0.9408903121948242,
        -1.0
      ],
      "type": "VEC3"
    },
    {
      "bufferView": 1,
      "byteOffset": 454592,
      "componentType": 5126,
      "count": 173,
      "max": [
        0.9945574998855591,
        0.9945574998855591
      ],
      "min": [
        0.3103581666946411,
        0.07046797126531601
      ],
      "type": "VEC2"
    },
    {
      "bufferView": 0,
      "byteOffset": 953376,
      "componentType": 5125,
      "count": 630,
      "type": "SCALAR"
    },
    {
      "bufferView": 2,
      "byteOffset": 1367928,
      "componentType": 5126,
      "count": 173,
      "max": [
        9.457658767700195,
        9.484177589416504,
        9.791805267333984
      ],
      "min": [
        -9.457657814025879,
        -9.378247261047363,
        2.435122489929199
      ],
      "type": "VEC3"
    },
    {
      "bufferView": 2,
      "byteOffset": 1370004,
      "componentType": 5126,
      "count": 173,
      "max": [
        0.9488574266433716,
        0.9515178799629211,
        1.0
      ],
      "min": [
        -0.948857307434082,
        -0.9408903121948242,
        -1.0
      ],
      "type": "VEC3"
    },
    {
      "bufferView": 1,
      "byteOffset": 455976,
      "componentType": 5126,
      "count": 173,
      "max": [
        0.98456209897995,
        0.9845138788223267
      ],
      "min": [
        0.2253970503807068,
        0.19041307270526886
      ],
      "type": "VEC2"
    },
    {
      "bufferView": 0,
      "byteOffset": 955896,
      "componentType": 5125,
      "count": 630,
      "type": "SCALAR"
    },
    {
      "bufferView": 2,
      "byteOffset": 1372080,
      "componentType": 5126,
      "count": 173,
      "max": [
        9.457658767700195,
        9.484177589416504,
        9.791805267333984
      ],
      "min": [
        -9.457657814025879,
        -9.378247261047363,
        2.435122489929199
      ],
      "type": "VEC3"
    },
    {
      "bufferView": 2,
      "byteOffset": 1374156,
      "componentType": 5126,
      "count": 173,
      "max": [
        0.9488574266433716,
        0.9515178799629211,
        1.0
      ],
      "min": [
        -0.948857307434082,
        -0.9408903121948242,
        -1.0
      ],
      "type": "VEC3"
    },
    {
      "bufferView": 1,
      "byteOffset": 457360,
      "componentType": 5126,
      "count": 173,
      "max": [
        0.954575777053833,
        0.9376153945922852
      ],
      "min": [
        0.1354382336139679,
        0.5452507138252258
      ],
      "type": "VEC2"
    },
    {
      "bufferView": 0,
      "byteOffset": 958416,
      "componentType": 5125,
      "count": 630,
      "type": "SCALAR"
    },
    {
      "bufferView": 2,
      "byteOffset": 1376232,
      "componentType": 5126,
      "count": 173,
      "max": [
        9.457658767700195,
        9.484177589416504,
        9.791805267333984
      ],
      "min": [
        -9.457657814025879,
        -9.378247261047363,
        2.435122489929199
      ],
      "type": "VEC3"
    },
    {
      "bufferView": 2,
      "byteOffset": 1378308,
      "componentType": 5126,
      "count": 173,
      "max": [
        0.9488574266433716,
        0.9515178799629211,
        1.0
      ],
      "min": [
        -0.948857307434082,
        -0.9408903121948242,
        -1.0
      ],
      "type": "VEC3"
    },
    {
      "bufferView": 1,
      "byteOffset": 458744,
      "componentType": 5126,
      "count": 173,
      "max": [
        0.9395825862884521,
        0.932617723941803
      ],
      "min": [
        0.1854153424501419,
        0.43530094623565674
      ],
      "type": "VEC2"
    },
    {
      "bufferView": 0,
      "byteOffset": 960936,
      "componentType": 5125,
      "count": 630,
      "type": "SCALAR"
    },
    {
      "bufferView": 2,
      "byteOffset": 1380384,
      "componentType": 5126,
      "count": 173,
      "max": [
        9.457658767700195,
        9.484177589416504,
        9.791805267333984
      ],
      "min": [
        -9.457657814025879,
        -9.378247261047363,
        2.435122489929199
      ],
      "type": "VEC3"
    },
    {
      "bufferView": 2,
      "byteOffset": 1382460,
      "componentType": 5126,
      "count": 173,
      "max": [
        0.9488574266433716,
        0.9515178799629211,
        1.0
      ],
      "min": [
        -0.948857307434082,
        -0.9408903121948242,
        -1.0
      ],
      "type": "VEC3"
    },
    {
      "bufferView": 1,
      "byteOffset": 460128,
      "componentType": 5126,
      "count": 173,
      "max": [
        0.9720977544784546,
        0.9945574998855591
      ],
      "min": [
        0.2353924661874771,
        0.3903215527534485
      ],
      "type": "VEC2"
    },
    {
      "bufferView": 0,
      "byteOffset": 963456,
      "componentType": 5125,
      "count": 630,
      "type": "SCALAR"
    },
    {
      "bufferView": 2,
      "byteOffset": 1384536,
      "componentType": 5126,
      "count": 173,
      "max": [
        9.457658767700195,
        9.484177589416504,
        9.791805267333984
      ],
      "min": [
        -9.457657814025879,
        -9.378247261047363,
        2.435122489929199
      ],
      "type": "VEC3"
    },
    {
      "bufferView": 2,
      "byteOffset": 1386612,
      "componentType": 5126,
      "count": 173,
      "max": [
        0.9488574266433716,
        0.9515178799629211,
        1.0
      ],
      "min": [
        -0.948857307434082,
        -0.9408903121948242,
        -1.0
      ],
      "type": "VEC3"
    },
    {
      "bufferView": 1,
      "byteOffset": 461512,
      "componentType": 5126,
      "count": 173,
      "max": [
        0.9945574998855591,
        0.9923737645149231
      ],
      "min": [
        0.08546110987663269,
        0.025488561019301414
      ],
      "type": "VEC2"
    },
    {
      "bufferView": 0,
      "byteOffset": 965976,
      "componentType": 5125,
      "count": 630,
      "type": "SCALAR"
    },
    {
      "bufferView": 2,
      "byteOffset": 1388688,
      "componentType": 5126,
      "count": 173,
      "max": [
        9.457658767700195,
        9.484177589416504,
        9.791805267333984
      ],
      "min": [
        -9.457657814025879,
        -9.378247261047363,
        2.435122489929199
      ],
      "type": "VEC3"
    },
    {
      "bufferView": 2,
      "byteOffset": 1390764,
      "componentType": 5126,
      "count": 173,
      "max": [
        0.9488574266433716,
        0.9515178799629211,
        1.0
      ],
      "min": [
        -0.948857307434082,
        -0.9408903121948242,
        -1.0
      ],
      "type": "VEC3"
    },
    {
      "bufferView": 1,
      "byteOffset": 462896,
      "componentType": 5126,
      "count": 173,
      "max": [
        0.98456209897995,
        0.9845138788223267
      ],
      "min": [
        0.0704679787158966,
        0.3403444290161133
      ],
      "type": "VEC2"
    },
    {
      "bufferView": 0,
      "byteOffset": 968496,
      "componentType": 5125,
      "count": 630,
      "type": "SCALAR"
    },
    {
      "bufferView": 2,
      "byteOffset": 1392840,
      "componentType": 5126,
      "count": 173,
      "max": [
        9.457658767700195,
        9.484177589416504,
        9.791805267333984
      ],
      "min": [
        -9.457657814025879,
        -9.378247261047363,
        2.435122489929199
      ],
      "type": "VEC3"
    },
    {
      "bufferView": 2,
      "byteOffset": 1394916,
      "componentType": 5126,
      "count": 173,
      "max": [
        0.9488574266433716,
        0.9515178799629211,
        1.0
      ],
      "min": [
        -0.948857307434082,
        -0.9408903121948242,
        -1.0
      ],
      "type": "VEC3"
    },
    {
      "bufferView": 1,
      "byteOffset": 464280,
      "componentType": 5126,
      "count": 173,
      "max": [
        0.9695689082145691,
        0.9923737645149231
      ],
      "min": [
        0.025488561019301414,
        0.275374174118042
      ],
      "type": "VEC2"
    },
    {
      "bufferView": 0,
      "byteOffset": 971016,
      "componentType": 5125,
      "count": 630,
      "type": "SCALAR"
    },
    {
      "bufferView": 2,
      "byteOffset": 1396992,
      "componentType": 5126,
      "count": 173,
      "max": [
        9.457658767700195,
        9.484177589416504,
        9.791805267333984
      ],
      "min": [
        -9.457657814025879,
        -9.378247261047363,
        2.435122489929199
      ],
      "type": "VEC3"
    },
    {
      "bufferView": 2,
      "byteOffset": 1399068,
      "componentType": 5126,
      "count": 173,
      "max": [
        0.9488574266433716,
        0.9515178799629211,
        1.0
      ],
      "min": [
        -0.948857307434082,
        -0.9408903121948242,
        -1.0
      ],
      "type": "VEC3"
    },
    {
      "bufferView": 1,
      "byteOffset": 465664,
      "componentType": 5126,
      "count": 173,
      "max": [
        0.9846245646476746,
        0.9945574998855591
      ],
      "min": [
        0.33034899830818176,
        0.4902758002281189
      ],
      "type": "VEC2"
    },
    {
      "bufferView": 0,
      "byteOffset": 973536,
      "componentType": 5125,
      "count": 630,
      "type": "SCALAR"
    }
  ],
  "asset": {
    "extras": {
      "author": "Fred Drabble (https://sketchfab.com/FredDrabble)",
      "license": "CC-BY-4.0 (http://creativecommons.org/licenses/by/4.0/)",
      "source": "https://sketchfab.com/3d-models/laser-rifle-sci-fi-weapon-free-download-813ae9a6ee7d41c3a6f3bb1091d344b1",
      "title": "Laser Rifle, sci-fi weapon FREE download"
    },
    "generator": "Sketchfab-12.67.0",
    "version": "2.0"
  },
  "bufferViews": [
    {
      "buffer": 0,
      "byteLength": 976056,
      "name": "floatBufferViews",
      "target": 34963
    },
    {
      "buffer": 0,
      "byteLength": 467048,
      "byteOffset": 976056,
      "byteStride": 8,
      "name": "floatBufferViews",
      "target": 34962
    },
    {
      "buffer": 0,
      "byteLength": 1401144,
      "byteOffset": 1443104,
      "byteStride": 12,
      "name": "floatBufferViews",
      "target": 34962
    },
    {
      "buffer": 0,
      "byteLength": 429728,
      "byteOffset": 2844248,
      "byteStride": 16,
      "name": "floatBufferViews",
      "target": 34962
    }
  ],
  "buffers": [
    {
      "byteLength": 3273976,
      "uri": "scene.bin"
    }
  ],
  "extensionsUsed": [
    "KHR_materials_transmission"
  ],
  "images": [
    {
      "uri": "textures/02_-_Default_baseColor.png"
    },
    {
      "uri": "textures/02_-_Default_metallicRoughness.png"
    },
    {
      "uri": "textures/02_-_Default_normal.png"
    },
    {
      "uri": "textures/08_-_Default_baseColor.png"
    },
    {
      "uri": "textures/08_-_Default_metallicRoughness.png"
    },
    {
      "uri": "textures/08_-_Default_normal.png"
    }
  ],
  "materials": [
    {
      "doubleSided": true,
      "name": "01_-_Default",
      "pbrMetallicRoughness": {
        "baseColorFactor": [
          0.051766289830066425,
          0.051766289830066425,
          0.051766289830066425,
          1.0
        ],
        "roughnessFactor": 0.2604801829268293
      }
    },
    {
      "doubleSided": true,
      "name": "02_-_Default",
      "normalTexture": {
        "index": 2
      },
      "pbrMetallicRoughness": {
        "baseColorTexture": {
          "index": 0
        },
        "metallicRoughnessTexture": {
          "index": 1
        }
      }
    },
    {
      "doubleSided": true,
      "emissiveFactor": [
        1.0,
        0.0,
        0.0
      ],
      "name": "03_-_Default",
      "pbrMetallicRoughness": {
        "baseColorFactor": [
          1.0,
          0.0,
          0.0,
          1.0
        ],
        "metallicFactor": 0.0,
        "roughnessFactor": 0.8614710365853658
      }
    },
    {
      "doubleSided": true,
      "name": "08_-_Default",
      "normalTexture": {
        "index": 5,
        "scale": 0.9468368902439024
      },
      "pbrMetallicRoughness": {
        "baseColorTexture": {
          "index": 3
        },
        "metallicRoughnessTexture": {
          "index": 4
        }
      }
    },
    {
      "alphaMode": "BLEND",
      "doubleSided": true,
      "extensions": {
        "KHR_materials_transmission": {
          "transmissionFactor": 0.08974847560975607
        }
      },
      "name": "07_-_Default",
      "pbrMetallicRoughness": {
        "baseColorFactor": [
          0.0,
          0.0,
          0.0,
          0.9102515243902439
        ],
        "metallicFactor": 0.0,
        "roughnessFactor": 0.0
      }
    }
  ],
  "meshes": [
    {
      "name": "Plane001_01 - Default_0",
      "primitives": [
        {
          "attributes": {
            "NORMAL": 1,
            "POSITION": 0,
            "TEXCOORD_0": 2
          },
          "indices": 3,
          "material": 0,
          "mode": 4
        }
      ]
    },
    {
      "name": "Cylinder001_02 - Default_0",
      "primitives": [
        {
          "attributes": {
            "NORMAL": 5,
            "POSITION": 4,
            "TANGENT": 6,
            "TEXCOORD_0": 7
          },
          "indices": 8,
          "material": 1,
          "mode": 4
        }
      ]
    },
    {
      "name": "Cylinder001_03 - Default_0",
      "primitives": [
        {
          "attributes": {
            "NORMAL": 10,
            "POSITION": 9,
            "TEXCOORD_0": 11
          },
          "indices": 12,
          "material": 2,
          "mode": 4
        }
      ]
    },
    {
      "name": "Plane002_01 - Default_0",
      "primitives": [
        {
          "attributes": {
            "NORMAL": 14,
            "POSITION": 13,
            "TEXCOORD_0": 15
          },
          "indices": 16,
          "material": 0,
          "mode": 4
        }
      ]
    },
    {
      "name": "Plane004_01 - Default_0",
      "primitives": [
        {
          "attributes": {
            "NORMAL": 18,
            "POSITION": 17,
            "TEXCOORD_0": 19
          },
          "indices": 20,
          "material": 0,
          "mode": 4
        }
      ]
    },
    {
      "name": "Box003_08 - Default_0",
      "primitives": [
        {
          "attributes": {
            "NORMAL": 22,
            "POSITION": 21,
            "TANGENT": 23,
            "TEXCOORD_0": 24
          },
          "indices": 25,
          "material": 3,
          "mode": 4
        }
      ]
    },
    {
      "name": "Box003_01 - Default_0",
      "primitives": [
        {
          "attributes": {
            "NORMAL": 27,
            "POSITION": 26,
            "TEXCOORD_0": 28
          },
          "indices": 29,
          "material": 0,
          "mode": 4
        }
      ]
    },
    {
      "name": "Cylinder002_01 - Default_0",
      "primitives": [
        {
          "attributes": {
            "NORMAL": 31,
            "POSITION": 30,
            "TEXCOORD_0": 32
          },
          "indices": 33,
          "material": 0,
          "mode": 4
        }
      ]
    },
    {
      "name": "Cylinder003_02 - Default_0",
      "primitives": [
        {
          "attributes": {
            "NORMAL": 35,
            "POSITION": 34,
            "TANGENT": 36,
            "TEXCOORD_0": 37
          },
          "indices": 38,
          "material": 1,
          "mode": 4
        }
      ]
    },
    {
      "name": "Box004_02 - Default_0",
      "primitives": [
        {
          "attributes": {
            "NORMAL": 40,
            "POSITION": 39,
            "TANGENT": 41,
            "TEXCOORD_0": 42
          },
          "indices": 43,
          "material": 1,
          "mode": 4
        }
      ]
    },
    {
      "name": "Box006_02 - Default_0",
      "primitives": [
        {
          "attributes": {
            "NORMAL": 45,
            "POSITION": 44,
            "TANGENT": 46,
            "TEXCOORD_0": 47
          },
          "indices": 48,
          "material": 1,
          "mode": 4
        }
      ]
    },
    {
      "name": "Cylinder005_01 - Default_0",
      "primitives": [
        {
          "attributes": {
            "NORMAL": 50,
            "POSITION": 49,
            "TEXCOORD_0": 51
          },
          "indices": 52,
          "material": 0,
          "mode": 4
        }
      ]
    },
    {
      "name": "Cylinder007_02 - Default_0",
      "primitives": [
        {
          "attributes": {
            "NORMAL": 54,
            "POSITION": 53,
            "TANGENT": 55,
            "TEXCOORD_0": 56
          },
          "indices": 57,
          "material": 1,
          "mode": 4
        }
      ]
    },
    {
      "name": "Sphere001_03 - Default_0",
      "primitives": [
        {
          "attributes": {
            "NORMAL": 59,
            "POSITION": 58,
            "TEXCOORD_0": 60
          },
          "indices": 61,
          "material": 2,
          "mode": 4
        }
      ]
    },
    {
      "name": "Sphere002_03 - Default_0",
      "primitives": [
        {
          "attributes": {
            "NORMAL": 63,
            "POSITION": 62,
            "TEXCOORD_0": 64
          },
          "indices": 65,
          "material": 2,
          "mode": 4
        }
      ]
    },
    {
      "name": "Sphere003_07 - Default_0",
      "primitives": [
        {
          "attributes": {
            "NORMAL": 67,
            "POSITION": 66,
            "TEXCOORD_0": 68
          },
          "indices": 69,
          "material": 4,
          "mode": 4
        }
      ]
    },
    {
      "name": "Sphere004_07 - Default_0",
      "primitives": [
        {
          "attributes": {
            "NORMAL": 71,
            "POSITION": 70,
            "TEXCOORD_0": 72
          },
          "indices": 73,
          "material": 4,
          "mode": 4
        }
      ]
    },
    {
      "name": "Sphere005_07 - Default_0",
      "primitives": [
        {
          "attributes": {
            "NORMAL": 75,
            "POSITION": 74,
            "TEXCOORD_0": 76
          },
          "indices": 77,
          "material": 4,
          "mode": 4
        }
      ]
    },
    {
      "name": "Cylinder008_02 - Default_0",
      "primitives": [
        {
          "attributes": {
            "NORMAL": 79,
            "POSITION": 78,
            "TANGENT": 80,
            "TEXCOORD_0": 81
          },
          "indices": 82,
          "material": 1,
          "mode": 4
        }
      ]
    },
    {
      "name": "Cylinder008_03 - Default_0",
      "primitives": [
        {
          "attributes": {
            "NORMAL": 84,
            "POSITION": 83,
            "TEXCOORD_0": 85
          },
          "indices": 86,
          "material": 2,
          "mode": 4
        }
      ]
    },
    {
      "name": "Sphere006_07 - Default_0",
      "primitives": [
        {
          "attributes": {
            "NORMAL": 88,
            "POSITION": 87,
            "TEXCOORD_0": 89
          },
          "indices": 90,
          "material": 4,
          "mode": 4
        }
      ]
    },
    {
      "name": "Cylinder009_01 - Default_0",
      "primitives": [
        {
          "attributes": {
            "NORMAL": 92,
            "POSITION": 91,
            "TEXCOORD_0": 93
          },
          "indices": 94,
          "material": 0,
          "mode": 4
        }
      ]
    },
    {
      "name": "Cylinder009_02 - Default_0",
      "primitives": [
        {
          "attributes": {
            "NORMAL": 96,
            "POSITION": 95,
            "TANGENT": 97,
            "TEXCOORD_0": 98
          },
          "indices": 99,
          "material": 1,
          "mode": 4
        }
      ]
    },
    {
      "name": "Cylinder009_03 - Default_0",
      "primitives": [
        {
          "attributes": {
            "NORMAL": 101,
            "POSITION": 100,
            "TEXCOORD_0": 102
          },
          "indices": 103,
          "material": 2,
          "mode": 4
        }
      ]
    },
    {
      "name": "Sphere007_07 - Default_0",
      "primitives": [
        {
          "attributes": {
            "NORMAL": 105,
            "POSITION": 104,
            "TEXCOORD_0": 106
          },
          "indices": 107,
          "material": 4,
          "mode": 4
        }
      ]
    },
    {
      "name": "Cylinder010_02 - Default_0",
      "primitives": [
        {
          "attributes": {
            "NORMAL": 109,
            "POSITION": 108,
            "TANGENT": 110,
            "TEXCOORD_0": 111
          },
          "indices": 112,
          "material": 1,
          "mode": 4
        }
      ]
    },
    {
      "name": "Cylinder011_02 - Default_0",
      "primitives": [
        {
          "attributes": {
            "NORMAL": 114,
            "POSITION": 113,
            "TANGENT": 115,
            "TEXCOORD_0": 116
          },
          "indices": 117,
          "material": 1,
          "mode": 4
        }
      ]
    },
    {
      "name": "Cylinder012_01 - Default_0",
      "primitives": [
        {
          "attributes": {
            "NORMAL": 119,
            "POSITION": 118,
            "TEXCOORD_0": 120
          },
          "indices": 121,
          "material": 0,
          "mode": 4
        }
      ]
    },
    {
      "name": "Box007_02 - Default_0",
      "primitives": [
        {
          "attributes": {
            "NORMAL": 123,
            "POSITION": 122,
            "TANGENT": 124,
            "TEXCOORD_0": 125
          },
          "indices": 126,
          "material": 1,
          "mode": 4
        }
      ]
    },
    {
      "name": "Box007_01 - Default_0",
      "primitives": [
        {
          "attributes": {
            "NORMAL": 128,
            "POSITION": 127,
            "TEXCOORD_0": 129
          },
          "indices": 130,
          "material": 0,
          "mode": 4
        }
      ]
    },
    {
      "name": "Plane005_01 - Default_0",
      "primitives": [
        {
          "attributes": {
            "NORMAL": 132,
            "POSITION": 131,
            "TEXCOORD_0": 133
          },
          "indices": 134,
          "material": 0,
          "mode": 4
        }
      ]
    },
    {
      "name": "Sphere009_03 - Default_0",
      "primitives": [
        {
          "attributes": {
            "NORMAL": 136,
            "POSITION": 135,
            "TEXCOORD_0": 137
          },
          "indices": 138,
          "material": 2,
          "mode": 4
        }
      ]
    },
    {
      "name": "Sphere008_07 - Default_0",
      "primitives": [
        {
          "attributes": {
            "NORMAL": 140,
            "POSITION": 139,
            "TEXCOORD_0": 141
          },
          "indices": 142,
          "material": 4,
          "mode": 4
        }
      ]
    },
    {
      "name": "Sphere010_07 - Default_0",
      "primitives": [
        {
          "attributes": {
            "NORMAL": 144,
            "POSITION": 143,
            "TEXCOORD_0": 145
          },
          "indices": 146,
          "material": 4,
          "mode": 4
        }
      ]
    },
    {
      "name": "Sphere011_03 - Default_0",
      "primitives": [
        {
          "attributes": {
            "NORMAL": 148,
            "POSITION": 147,
            "TEXCOORD_0": 149
          },
          "indices": 150,
          "material": 2,
          "mode": 4
        }
      ]
    },
    {
      "name": "Sphere012_07 - Default_0",
      "primitives": [
        {
          "attributes": {
            "NORMAL": 152,
            "POSITION": 151,
            "TEXCOORD_0": 153
          },
          "indices": 154,
          "material": 4,
          "mode": 4
        }
      ]
    },
    {
      "name": "Sphere013_03 - Default_0",
      "primitives": [
        {
          "attributes": {
            "NORMAL": 156,
            "POSITION": 155,
            "TEXCOORD_0": 157
          },
          "indices": 158,
          "material": 2,
          "mode": 4
        }
      ]
    },
    {
      "name": "Sphere014_07 - Default_0",
      "primitives": [
        {
          "attributes": {
            "NORMAL": 160,
            "POSITION": 159,
            "TEXCOORD_0": 161
          },
          "indices": 162,
          "material": 4,
          "mode": 4
        }
      ]
    },
    {
      "name": "Sphere015_03 - Default_0",
      "primitives": [
        {
          "attributes": {
            "NORMAL": 164,
            "POSITION": 163,
            "TEXCOORD_0": 165
          },
          "indices": 166,
          "material": 2,
          "mode": 4
        }
      ]
    },
    {
      "name": "Sphere016_07 - Default_0",
      "primitives": [
        {
          "attributes": {
            "NORMAL": 168,
            "POSITION": 167,
            "TEXCOORD_0": 169
          },
          "indices": 170,
          "material": 4,
          "mode": 4
        }
      ]
    },
    {
      "name": "Sphere017_03 - Default_0",
      "primitives": [
        {
          "attributes": {
            "NORMAL": 172,
            "POSITION": 171,
            "TEXCOORD_0": 173
          },
          "indices": 174,
          "material": 2,
          "mode": 4
        }
      ]
    },
    {
      "name": "Sphere018_07 - Default_0",
      "primitives": [
        {
          "attributes": {
            "NORMAL": 176,
            "POSITION": 175,
            "TEXCOORD_0": 177
          },
          "indices": 178,
          "material": 4,
          "mode": 4
        }
      ]
    },
    {
      "name": "Sphere019_03 - Default_0",
      "primitives": [
        {
          "attributes": {
            "NORMAL": 180,
            "POSITION": 179,
            "TEXCOORD_0": 181
          },
          "indices": 182,
          "material": 2,
          "mode": 4
        }
      ]
    },
    {
      "name": "Sphere020_07 - Default_0",
      "primitives": [
        {
          "attributes": {
            "NORMAL": 184,
            "POSITION": 183,
            "TEXCOORD_0": 185
          },
          "indices": 186,
          "material": 4,
          "mode": 4
        }
      ]
    },
    {
      "name": "Sphere021_03 - Default_0",
      "primitives": [
        {
          "attributes": {
            "NORMAL": 188,
            "POSITION": 187,
            "TEXCOORD_0": 189
          },
          "indices": 190,
          "material": 2,
          "mode": 4
        }
      ]
    },
    {
      "name": "Sphere022_07 - Default_0",
      "primitives": [
        {
          "attributes": {
            "NORMAL": 192,
            "POSITION": 191,
            "TEXCOORD_0": 193
          },
          "indices": 194,
          "material": 4,
          "mode": 4
        }
      ]
    },
    {
      "name": "Sphere023_03 - Default_0",
      "primitives": [
        {
          "attributes": {
            "NORMAL": 196,
            "POSITION": 195,
            "TEXCOORD_0": 197
          },
          "indices": 198,
          "material": 2,
          "mode": 4
        }
      ]
    }
  ],
  "nodes": [
    {
      "children": [
        1
      ],
      "matrix": [
        1.0,
        0.0,
        0.0,
        0.0,
        0.0,
        2.220446049250313e-16,
        -1.0,
        0.0,
        0.0,
        1.0,
        2.220446049250313e-16,
        0.0,
        0.0,
        0.0,
        0.0,
        1.0
      ],
      "name": "Sketchfab_model"
    },
    {
      "children": [
        2
      ],
      "matrix": [
        1.0,
        0.0,
        0.0,
        0.0,
        0.0,
        0.0,
        1.0,
        0.0,
        0.0,
        -1.0,
        0.0,
        0.0,
        0.0,
        0.0,
        0.0,
        1.0
      ],
      "name": "021f415f24034918ab4f7e41a3f5ce5d.fbx"
    },
    {
      "children": [
        3,
        5,
        8,
        10,
        12,
        15,
        17,
        19,
        21,
        23,
        25,
        27,
        29,
        31,
        33,
        35,
        37,
        40,
        42,
        46,
        48,
        50,
        52,
        54,
        57,
        59,
        64,
        69,
        74,
        79,
        84,
        89,
        94
      ],
      "name": "RootNode"
    },
    {
      "children": [
        4
      ],
      "matrix": [
        1.0,
        0.0,
        0.0,
        0.0,
        0.0,
        2.220446049250313e-16,
        -1.0,
        0.0,
        0.0,
        1.0,
        2.220446049250313e-16,
        0.0,
        0.12680864334106445,
        101.42110443115234,
        -51.53179931640625,
        1.0
      ],
      "name": "Plane001"
    },
    {
      "mesh": 0,
      "name": "Plane001_01 - Default_0"
    },
    {
      "children": [
        6,
        7
      ],
      "matrix": [
        1.0,
        0.0,
        0.0,
        0.0,
        0.0,
        2.220446049250313e-16,
        -1.0,
        0.0,
        0.0,
        1.0,
        2.220446049250313e-16,
        0.0,
        0.3679385185241699,
        74.08170318603516,
        9.40667724609375,
        1.0
      ],
      "name": "Cylinder001"
    },
    {
      "mesh": 1,
      "name": "Cylinder001_02 - Default_0"
    },
    {
      "mesh": 2,
      "name": "Cylinder001_03 - Default_0"
    },
    {
      "children": [
        9
      ],
      "matrix": [
        1.0,
        0.0,
        0.0,
        0.0,
        0.0,
        2.220446049250313e-16,
        -1.0,
        0.0,
        0.0,
        1.0,
        2.220446049250313e-16,
        0.0,
        -23.502399444580078,
        60.18672180175781,
        -51.53179931640625,
        1.0
      ],
      "name": "Plane002"
    },
    {
      "mesh": 3,
      "name": "Plane002_01 - Default_0"
    },
    {
      "children": [
        11
      ],
      "matrix": [
        0.9999999999999847,
        -1.7484555314694902e-07,
        -3.970466940254533e-23,
        0.0,
        3.970466940254533e-23,
        3.3306690738754696e-16,
        -1.0,
        0.0,
        1.7484555314694902e-07,
        0.9999999999999847,
        3.3306690738754696e-16,
        0.0,
        23.9674015045166,
        60.39078140258789,
        -51.53179931640625,
        1.0
      ],
      "name": "Plane004"
    },
    {
      "mesh": 4,
      "name": "Plane004_01 - Default_0"
    },
    {
      "children": [
        13,
        14
      ],
      "matrix": [
        1.0,
        0.0,
        0.0,
        0.0,
        0.0,
        2.220446049250313e-16,
        -1.0,
        0.0,
        0.0,
        1.0,
        2.220446049250313e-16,
        0.0,
        0.6464310884475708,
        35.648216247558594,
        56.303245544433594,
        1.0
      ],
      "name": "Box003"
    },
    {
      "mesh": 5,
      "name": "Box003_08 - Default_0"
    },
    {
      "mesh": 6,
      "name": "Box003_01 - Default_0"
    },
    {
      "children": [
        16
      ],
      "matrix": [
        1.0,
        0.0,
        0.0,
        0.0,
        0.0,
        2.220446049250313e-16,
        -1.0,
        0.0,
        0.0,
        1.0,
        2.220446049250313e-16,
        0.0,
        0.24584102630615234,
        73.87879943847656,
        5.010826110839844,
        1.0
      ],
      "name": "Cylinder002"
    },
    {
      "mesh": 7,
      "name": "Cylinder002_01 - Default_0"
    },
    {
      "children": [
        18
      ],
      "matrix": [
        1.0,
        0.0,
        0.0,
        0.0,
        0.0,
        2.220446049250313e-16,
        -1.0,
        0.0,
        0.0,
        1.0,
        2.220446049250313e-16,
        0.0,
        0.24584102630615234,
        73.87879943847656,
        13.26067066192627,
        1.0
      ],
      "name": "Cylinder003"
    },
    {
      "mesh": 8,
      "name": "Cylinder003_02 - Default_0"
    },
    {
      "children": [
        20
      ],
      "matrix": [
        1.0,
        0.0,
        0.0,
        0.0,
        0.0,
        2.220446049250313e-16,
        -1.0,
        0.0,
        0.0,
        1.0,
        2.220446049250313e-16,
        0.0,
        0.9402143955230713,
        67.14044189453125,
        24.40296173095703,
        1.0
      ],
      "name": "Box004"
    },
    {
      "mesh": 9,
      "name": "Box004_02 - Default_0"
    },
    {
      "children": [
        22
      ],
      "matrix": [
        1.0,
        0.0,
        0.0,
        0.0,
        0.0,
        2.220446049250313e-16,
        -1.0,
        0.0,
        0.0,
        1.0,
        2.220446049250313e-16,
        0.0,
        0.7702250480651855,
        49.50323486328125,
        33.044822692871094,
        1.0
      ],
      "name": "Box006"
    },
    {
      "mesh": 10,
      "name": "Box006_02 - Default_0"
    },
    {
      "children": [
        24
      ],
      "matrix": [
        1.0,
        0.0,
        0.0,
        0.0,
        0.0,
        2.220446049250313e-16,
        -1.0,
        0.0,
        0.0,
        1.0,
        2.220446049250313e-16,
        0.0,
        0.9075182676315308,
        77.7235107421875,
        32.52779006958008,
        1.0
      ],
      "name": "Cylinder005"
    },
    {
      "mesh": 11,
      "name": "Cylinder005_01 - Default_0"
    },
    {
      "children": [
        26
      ],
      "matrix": [
        1.0,
        0.0,
        0.0,
        0.0,
        0.0,
        2.220446049250313e-16,
        -1.0,
        0.0,
        0.0,
        1.0,
        2.220446049250313e-16,
        0.0,
        0.9542883634567261,
        112.99496459960938,
        42.553184509277344,
        1.0
      ],
      "name": "Cylinder007"
    },
    {
      "mesh": 12,
      "name": "Cylinder007_02 - Default_0"
    },
    {
      "children": [
        28
      ],
      "matrix": [
        1.0,
        0.0,
        0.0,
        0.0,
        0.0,
        2.220446049250313e-16,
        -1.0,
        0.0,
        0.0,
        1.0,
        2.220446049250313e-16,
        0.0,
        1.1156964302062988,
        120.67362976074219,
        27.71527099609375,
        1.0
      ],
      "name": "Sphere001"
    },
    {
      "mesh": 13,
      "name": "Sphere001_03 - Default_0"
    },
    {
      "children": [
        30
      ],
      "matrix": [
        1.0,
        0.0,
        0.0,
        0.0,
        0.0,
        2.220446049250313e-16,
        -1.0,
        0.0,
        0.0,
        1.0,
        2.220446049250313e-16,
        0.0,
        0.973721981048584,
        120.72907257080078,
        58.558197021484375,
        1.0
      ],
      "name": "Sphere002"
    },
    {
      "mesh": 14,
      "name": "Sphere002_03 - Default_0"
    },
    {
      "children": [
        32
      ],
      "matrix": [
        1.0,
        0.0,
        0.0,
        0.0,
        0.0,
        2.220446049250313e-16,
        -1.0,
        0.0,
        0.0,
        1.0,
        2.220446049250313e-16,
        0.0,
        1.1156964302062988,
        120.67362976074219,
        27.449539184570313,
        1.0
      ],
      "name": "Sphere003"
    },
    {
      "mesh": 15,
      "name": "Sphere003_07 - Default_0"
    },
    {
      "children": [
        34
      ],
      "matrix": [
        1.0,
        0.0,
        0.0,
        0.0,
        0.0,
        2.220446049250313e-16,
        -1.0,
        0.0,
        0.0,
        1.0,
        2.220446049250313e-16,
        0.0,
        0.973721981048584,
        120.72907257080078,
        58.70166778564453,
        1.0
      ],
      "name": "Sphere004"
    },
    {
      "mesh": 16,
      "name": "Sphere004_07 - Default_0"
    },
    {
      "children": [
        36
      ],
      "matrix": [
        1.0,
        0.0,
        0.0,
        0.0,
        0.0,
        2.220446049250313e-16,
        -1.0,
        0.0,
        0.0,
        1.0,
        2.220446049250313e-16,
        0.0,
        0.35512256622314453,
        74.23178100585938,
        -21.81557273864746,
        1.0
      ],
      "name": "Sphere005"
    },
    {
      "mesh": 17,
      "name": "Sphere005_07 - Default_0"
    },
    {
      "children": [
        38,
        39
      ],
      "matrix": [
        1.0,
        0.0,
        0.0,
        0.0,
        0.0,
        2.220446049250313e-16,
        -1.0,
        0.0,
        0.0,
        1.0,
        2.220446049250313e-16,
        0.0,
        0.3551205098628998,
        74.00847625732422,
        -86.29829406738281,
        1.0
      ],
      "name": "Cylinder008"
    },
    {
      "mesh": 18,
      "name": "Cylinder008_02 - Default_0"
    },
    {
      "mesh": 19,
      "name": "Cylinder008_03 - Default_0"
    },
    {
      "children": [
        41
      ],
      "matrix": [
        1.0,
        0.0,
        0.0,
        0.0,
        0.0,
        2.220446049250313e-16,
        -1.0,
        0.0,
        0.0,
        1.0,
        2.220446049250313e-16,
        0.0,
        0.3679411709308624,
        74.23178100585938,
        -55.0760383605957,
        1.0
      ],
      "name": "Sphere006"
    },
    {
      "mesh": 20,
      "name": "Sphere006_07 - Default_0"
    },
    {
      "children": [
        43,
        44,
        45
      ],
      "matrix": [
        1.0,
        0.0,
        0.0,
        0.0,
        0.0,
        2.220446049250313e-16,
        -1.0,
        0.0,
        0.0,
        1.0,
        2.220446049250313e-16,
        0.0,
        1.0491256713867188,
        75.0707778930664,
        -98.45046997070313,
        1.0
      ],
      "name": "Cylinder009"
    },
    {
      "mesh": 21,
      "name": "Cylinder009_01 - Default_0"
    },
    {
      "mesh": 22,
      "name": "Cylinder009_02 - Default_0"
    },
    {
      "mesh": 23,
      "name": "Cylinder009_03 - Default_0"
    },
    {
      "children": [
        47
      ],
      "matrix": [
        1.0,
        0.0,
        0.0,
        0.0,
        0.0,
        2.220446049250313e-16,
        -1.0,
        0.0,
        0.0,
        1.0,
        2.220446049250313e-16,
        0.0,
        0.7434804439544678,
        75.07572937011719,
        -93.46966552734375,
        1.0
      ],
      "name": "Sphere007"
    },
    {
      "mesh": 24,
      "name": "Sphere007_07 - Default_0"
    },
    {
      "children": [
        49
      ],
      "matrix": [
        1.0,
        0.0,
        0.0,
        0.0,
        0.0,
        2.220446049250313e-16,
        -1.0,
        0.0,
        0.0,
        1.0,
        2.220446049250313e-16,
        0.0,
        0.24584102630615234,
        73.87879943847656,
        -44.54925537109375,
        1.0
      ],
      "name": "Cylinder010"
    },
    {
      "mesh": 25,
      "name": "Cylinder010_02 - Default_0"
    },
    {
      "children": [
        51
      ],
      "matrix": [
        1.0,
        0.0,
        0.0,
        0.0,
        0.0,
        2.220446049250313e-16,
        -1.0,
        0.0,
        0.0,
        1.0,
        2.220446049250313e-16,
        0.0,
        0.24584102630615234,
        73.87879943847656,
        -31.787277221679688,
        1.0
      ],
      "name": "Cylinder011"
    },
    {
      "mesh": 26,
      "name": "Cylinder011_02 - Default_0"
    },
    {
      "children": [
        53
      ],
      "matrix": [
        1.0,
        0.0,
        0.0,
        0.0,
        0.0,
        2.220446049250313e-16,
        -1.0,
        0.0,
        0.0,
        1.0,
        2.220446049250313e-16,
        0.0,
        0.5928993225097656,
        77.7235107421875,
        32.52779006958008,
        1.0
      ],
      "name": "Cylinder012"
    },
    {
      "mesh": 27,
      "name": "Cylinder012_01 - Default_0"
    },
    {
      "children": [
        55,
        56
      ],
      "matrix": [
        0.9999999999999962,
        6.617444900424222e-24,
        -8.742276946804816e-08,
        0.0,
        -8.742276946804781e-08,
        8.74227695790708e-08,
        -0.9999999999999925,
        0.0,
        7.642740629814069e-15,
        0.9999999999999962,
        8.74227695790708e-08,
        0.0,
        0.9129323959350586,
        77.25469970703125,
        100.64375305175781,
        1.0
      ],
      "name": "Box007"
    },
    {
      "mesh": 28,
      "name": "Box007_02 - Default_0"
    },
    {
      "mesh": 29,
      "name": "Box007_01 - Default_0"
    },
    {
      "children": [
        58
      ],
      "matrix": [
        1.0,
        0.0,
        0.0,
        0.0,
        0.0,
        2.220446049250313e-16,
        -1.0,
        0.0,
        0.0,
        1.0,
        2.220446049250313e-16,
        0.0,
        0.9335441589355469,
        61.61608123779297,
        31.842248916625977,
        1.0
      ],
      "name": "Plane005"
    },
    {
      "mesh": 30,
      "name": "Plane005_01 - Default_0"
    },
    {
      "children": [
        60,
        62
      ],
      "matrix": [
        0.5057719945907593,
        0.0,
        0.0,
        0.0,
        0.0,
        1.1230394272105022e-16,
        -0.5057719945907593,
        0.0,
        0.0,
        0.5057719945907593,
        1.1230394272105022e-16,
        0.0,
        0.1684461236000061,
        106.38900756835938,
        -102.23394775390625,
        1.0
      ],
      "name": "laser"
    },
    {
      "children": [
        61
      ],
      "matrix": [
        0.6235100030899048,
        0.0,
        0.0,
        0.0,
        -0.0,
        -7.432819183384568e-08,
        -0.6235100030899005,
        0.0,
        0.0,
        0.6235100030899005,
        -7.432819183384568e-08,
        0.0,
        -6.854534149169922e-07,
        -4.242584228515625,
        0.03863525390625,
        1.0
      ],
      "name": "Sphere009"
    },
    {
      "mesh": 31,
      "name": "Sphere009_03 - Default_0"
    },
    {
      "children": [
        63
      ],
      "matrix": [
        0.7295640110969543,
        0.0,
        0.0,
        0.0,
        -0.0,
        -8.697081457249933e-08,
        -0.7295640110969492,
        0.0,
        0.0,
        0.7295640110969492,
        -8.697081457249933e-08,
        0.0,
        -6.854534149169922e-07,
        -4.41949462890625,
        0.03863525390625,
        1.0
      ],
      "name": "Sphere008"
    },
    {
      "mesh": 32,
      "name": "Sphere008_07 - Default_0"
    },
    {
      "children": [
        65,
        67
      ],
      "matrix": [
        0.5057719945907593,
        0.0,
        0.0,
        0.0,
        0.0,
        1.1230394272105022e-16,
        -0.5057719945907593,
        0.0,
        0.0,
        0.5057719945907593,
        1.1230394272105022e-16,
        0.0,
        0.1684461236000061,
        96.45036315917969,
        -102.23322296142578,
        1.0
      ],
      "name": "laser001"
    },
    {
      "children": [
        66
      ],
      "matrix": [
        0.7295640110969543,
        0.0,
        0.0,
        0.0,
        -0.0,
        -8.697081457249933e-08,
        -0.7295640110969492,
        0.0,
        0.0,
        0.7295640110969492,
        -8.697081457249933e-08,
        0.0,
        -6.854534149169922e-07,
        -4.41949462890625,
        0.03863525390625,
        1.0
      ],
      "name": "Sphere010"
    },
    {
      "mesh": 33,
      "name": "Sphere010_07 - Default_0"
    },
    {
      "children": [
        68
      ],
      "matrix": [
        0.6235100030899048,
        0.0,
        0.0,
        0.0,
        -0.0,
        -7.432819183384568e-08,
        -0.6235100030899005,
        0.0,
        0.0,
        0.6235100030899005,
        -7.432819183384568e-08,
        0.0,
        -6.854534149169922e-07,
        -4.242584228515625,
        0.03863525390625,
        1.0
      ],
      "name": "Sphere011"
    },
    {
      "mesh": 34,
      "name": "Sphere011_03 - Default_0"
    },
    {
      "children": [
        70,
        72
      ],
      "matrix": [
        0.2528860333388787,
        -0.4380113750285973,
        2.8075985680262554e-17,
        0.0,
        -2.8075985680262554e-17,
        -1.1230394272105022e-16,
        -0.5057719945907593,
        0.0,
        0.4380113750285973,
        0.25288603333887877,
        -1.1230394272105022e-16,
        0.0,
        -19.355934143066406,
        62.73340606689453,
        -102.23394775390625,
        1.0
      ],
      "name": "laser002"
    },
    {
      "children": [
        71
      ],
      "matrix": [
        0.7295640110969543,
        5.183864507085861e-15,
        -5.755245262106157e-31,
        0.0,
        6.179648046007561e-22,
        -8.697080744468622e-08,
        -0.7295640110969492,
        0.0,
        -5.183864507085824e-15,
        0.7295640110969492,
        -8.697080744468622e-08,
        0.0,
        -1.4210854715202004e-14,
        -4.41949462890625,
        0.03863525390625,
        1.0
      ],
      "name": "Sphere012"
    },
    {
      "mesh": 35,
      "name": "Sphere012_07 - Default_0"
    },
    {
      "children": [
        73
      ],
      "matrix": [
        0.6235100030899048,
        4.430305033692895e-15,
        5.551115150635182e-17,
        0.0,
        5.551167963986713e-17,
        -7.432818449615297e-08,
        -0.6235100030899005,
        0.0,
        -4.430305027075419e-15,
        0.6235100030899005,
        -7.432818449615297e-08,
        0.0,
        -1.4210854715202004e-14,
        -4.242584228515625,
        0.03863525390625,
        1.0
      ],
      "name": "Sphere013"
    },
    {
      "mesh": 36,
      "name": "Sphere013_03 - Default_0"
    },
    {
      "children": [
        75,
        77
      ],
      "matrix": [
        0.2528860333388787,
        -0.4380113750285973,
        2.8075985680262554e-17,
        0.0,
        -2.8075985680262554e-17,
        -1.1230394272105022e-16,
        -0.5057719945907593,
        0.0,
        0.4380113750285973,
        0.25288603333887877,
        -1.1230394272105022e-16,
        0.0,
        -27.65669822692871,
        57.421775817871094,
        -102.23322296142578,
        1.0
      ],
      "name": "laser003"
    },
    {
      "children": [
        76
      ],
      "matrix": [
        0.7295640110969543,
        5.183864507085861e-15,
        -5.755245262106157e-31,
        0.0,
        6.179648046007561e-22,
        -8.697080744468622e-08,
        -0.7295640110969492,
        0.0,
        -5.183864507085824e-15,
        0.7295640110969492,
        -8.697080744468622e-08,
        0.0,
        1.4210854715202004e-14,
        -4.41949462890625,
        0.03863525390625,
        1.0
      ],
      "name": "Sphere014"
    },
    {
      "mesh": 37,
      "name": "Sphere014_07 - Default_0"
    },
    {
      "children": [
        78
      ],
      "matrix": [
        0.6235100030899048,
        4.430305033692895e-15,
        5.551115150635182e-17,
        0.0,
        5.551167963986713e-17,
        -7.432818449615297e-08,
        -0.6235100030899005,
        0.0,
        -4.430305027075419e-15,
        0.6235100030899005,
        -7.432818449615297e-08,
        0.0,
        1.4210854715202004e-14,
        -4.242584228515625,
        0.03863525390625,
        1.0
      ],
      "name": "Sphere015"
    },
    {
      "mesh": 38,
      "name": "Sphere015_03 - Default_0"
    },
    {
      "children": [
        80,
        82
      ],
      "matrix": [
        0.2528860333388787,
        -0.4380113750285973,
        2.8075985680262554e-17,
        0.0,
        -2.8075985680262554e-17,
        -1.1230394272105022e-16,
        -0.5057719945907593,
        0.0,
        0.4380113750285973,
        0.25288603333887877,
        -1.1230394272105022e-16,
        0.0,
        19.93124008178711,
        63.140785217285156,
        -102.23394775390625,
        1.0
      ],
      "name": "laser004"
    },
    {
      "children": [
        81
      ],
      "matrix": [
        0.7295640110969543,
        5.183864507085861e-15,
        -5.755245262106157e-31,
        0.0,
        6.179648046007561e-22,
        -8.697080744468622e-08,
        -0.7295640110969492,
        0.0,
        -5.183864507085824e-15,
        0.7295640110969492,
        -8.697080744468622e-08,
        0.0,
        1.4210854715202004e-14,
        -4.41949462890625,
        0.03863525390625,
        1.0
      ],
      "name": "Sphere016"
    },
    {
      "mesh": 39,
      "name": "Sphere016_07 - Default_0"
    },
    {
      "children": [
        83
      ],
      "matrix": [
        0.6235100030899048,
        4.430305033692895e-15,
        5.551115150635182e-17,
        0.0,
        5.551167963986713e-17,
        -7.432818449615297e-08,
        -0.6235100030899005,
        0.0,
        -4.430305027075419e-15,
        0.6235100030899005,
        -7.432818449615297e-08,
        0.0,
        1.4210854715202004e-14,
        -4.242584228515625,
        0.03863525390625,
        1.0
      ],
      "name": "Sphere017"
    },
    {
      "mesh": 40,
      "name": "Sphere017_03 - Default_0"
    },
    {
      "children": [
        85,
        87
      ],
      "matrix": [
        0.2528860333388787,
        -0.4380113750285973,
        2.8075985680262554e-17,
        0.0,
        -2.8075985680262554e-17,
        -1.1230394272105022e-16,
        -0.5057719945907593,
        0.0,
        0.4380113750285973,
        0.25288603333887877,
        -1.1230394272105022e-16,
        0.0,
        27.784408569335938,
        57.940528869628906,
        -102.23322296142578,
        1.0
      ],
      "name": "laser005"
    },
    {
      "children": [
        86
      ],
      "matrix": [
        0.7295640110969543,
        5.183864507085861e-15,
        -5.755245262106157e-31,
        0.0,
        6.179648046007561e-22,
        -8.697080744468622e-08,
        -0.7295640110969492,
        0.0,
        -5.183864507085824e-15,
        0.7295640110969492,
        -8.697080744468622e-08,
        0.0,
        1.4210854715202004e-14,
        -4.41949462890625,
        0.03863525390625,
        1.0
      ],
      "name": "Sphere018"
    },
    {
      "mesh": 41,
      "name": "Sphere018_07 - Default_0"
    },
    {
      "children": [
        88
      ],
      "matrix": [
        0.6235100030899048,
        4.430305033692895e-15,
        5.551115150635182e-17,
        0.0,
        5.551167963986713e-17,
        -7.432818449615297e-08,
        -0.6235100030899005,
        0.0,
        -4.430305027075419e-15,
        0.6235100030899005,
        -7.432818449615297e-08,
        0.0,
        1.4210854715202004e-14,
        -4.242584228515625,
        0.03863525390625,
        1.0
      ],
      "name": "Sphere019"
    },
    {
      "mesh": 42,
      "name": "Sphere019_03 - Default_0"
    },
    {
      "children": [
        90,
        92
      ],
      "matrix": [
        -1.5208530216060363e-07,
        -0.5524307228589309,
        0.31894593600180177,
        0.0,
        0.6378920078276054,
        7.604264251105284e-08,
        4.3588042670487066e-07,
        0.0,
        -4.1550486247479494e-07,
        0.31894593600182897,
        0.5524307228587799,
        0.0,
        15.281847953796387,
        77.71734619140625,
        32.606807708740234,
        1.0
      ],
      "name": "laser006"
    },
    {
      "children": [
        91
      ],
      "matrix": [
        0.7295640110969536,
        -1.087138112864954e-08,
        -2.980231984339809e-08,
        0.0,
        -2.980232113936803e-08,
        -8.697084275976028e-08,
        -0.7295640110969486,
        0.0,
        1.0871377575934639e-08,
        0.7295640110969491,
        -8.697084308375179e-08,
        0.0,
        -1.4210854715202004e-14,
        -4.41949462890625,
        0.03864288330078125,
        1.0
      ],
      "name": "Sphere020"
    },
    {
      "mesh": 43,
      "name": "Sphere020_07 - Default_0"
    },
    {
      "children": [
        93
      ],
      "matrix": [
        0.6235100030899047,
        -9.291038161044997e-09,
        5.551115245244843e-17,
        0.0,
        -1.0520674371851213e-15,
        -7.43282202154873e-08,
        -0.6235100030899005,
        0.0,
        9.291038161044937e-09,
        0.6235100030899003,
        -7.43282202154873e-08,
        0.0,
        1.4210854715202004e-14,
        -4.242584228515625,
        0.03864288330078125,
        1.0
      ],
      "name": "Sphere021"
    },
    {
      "mesh": 44,
      "name": "Sphere021_03 - Default_0"
    },
    {
      "children": [
        95,
        97
      ],
      "matrix": [
        -1.4164047886294968e-16,
        -0.5524306970493965,
        -0.3189459807052714,
        0.0,
        -0.6378920078277543,
        3.802133155987126e-08,
        -6.585488416505782e-08,
        0.0,
        7.604266844896553e-08,
        0.3189459807052692,
        -0.5524306970493925,
        0.0,
        -14.39366626739502,
        77.71734619140625,
        32.60886764526367,
        1.0
      ],
      "name": "laser007"
    },
    {
      "children": [
        96
      ],
      "matrix": [
        0.7295640110969543,
        3.552713408583863e-15,
        1.110223041512084e-16,
        0.0,
        1.1102272766768366e-16,
        -8.697081457249933e-08,
        -0.7295640110969492,
        0.0,
        -3.552713395348946e-15,
        0.7295640110969492,
        -8.697081457249933e-08,
        0.0,
        0.0,
        -4.419496536254883,
        0.03863525390625,
        1.0
      ],
      "name": "Sphere022"
    },
    {
      "mesh": 45,
      "name": "Sphere022_07 - Default_0"
    },
    {
      "children": [
        98
      ],
      "matrix": [
        0.6235100030899048,
        3.5527116516160646e-15,
        5.551115150635206e-17,
        0.0,
        5.551157502262474e-17,
        -7.432819183384568e-08,
        -0.6235100030899005,
        0.0,
        -3.5527116449985937e-15,
        0.6235100030899005,
        -7.432819183384568e-08,
        0.0,
        0.0,
        -4.242584228515625,
        0.03863525390625,
        1.0
      ],
      "name": "Sphere023"
    },
    {
      "mesh": 46,
      "name": "Sphere023_03 - Default_0"
    }
  ],
  "samplers": [
    {
      "magFilter": 9729,
      "minFilter": 9987,
      "wrapS": 10497,
      "wrapT": 10497
    }
  ],
  "scene": 0,
  "scenes": [
    {
      "name": "Sketchfab_Scene",
      "nodes": [
        0
      ]
    }
  ],
  "textures": [
    {
      "sampler": 0,
      "source": 0
    },
    {
      "sampler": 0,
      "source": 1
    },
    {
      "sampler": 0,
      "source": 2
    },
    {
      "sampler": 0,
      "source": 3
    },
    {
      "sampler": 0,
      "source": 4
    },
    {
      "sampler": 0,
      "source": 5
    }
  ]
}
