{
  "accessors": [
    {
      "bufferView": 2,
      "componentType": 5126,
      "count": 33690,
      "max": [
        583.7409057617188,
        310.8973083496094,
        309.349853515625
      ],
      "min": [
        -583.7409057617188,
        -310.8973083496094,
        -309.3498229980469
      ],
      "type": "VEC3"
    },
    {
      "bufferView": 2,
      "byteOffset": 404280,
      "componentType": 5126,
      "count": 33690,
      "max": [
        0.9999544024467468,
        0.9994813203811646,
        0.9998577237129211
      ],
      "min": [
        -0.9999933242797852,
        -0.9997268319129944,
        -0.9999143481254578
      ],
      "type": "VEC3"
    },
    {
      "bufferView": 3,
      "componentType": 5126,
      "count": 33690,
      "max": [
        0.9996940493583679,
        0.9990735650062561,
        0.9998635649681091,
        1.0
      ],
      "min": [
        -0.9999628067016602,
        -0.9987081289291382,
        -0.9997534155845642,
        -1.0
      ],
      "type": "VEC4"
    },
    {
      "bufferView": 1,
      "componentType": 5126,
      "count": 33690,
      "max": [
        0.9940288662910461,
        0.9960487484931946
      ],
      "min": [
        0.0039062299765646458,
        0.0039062201976776123
      ],
      "type": "VEC2"
    },
    {
      "bufferView": 1,
      "byteOffset": 269520,
      "componentType": 5126,
      "count": 33690,
      "max": [
        0.9940288662910461,
        0.9960487484931946
      ],
      "min": [
        0.0039062299765646458,
        0.0039062201976776123
      ],
      "type": "VEC2"
    },
    {
      "bufferView": 1,
      "byteOffset": 539040,
      "componentType": 5126,
      "count": 33690,
      "max": [
        0.9940288662910461,
        0.9960487484931946
      ],
      "min": [
        0.0039062299765646458,
        0.0039062201976776123
      ],
      "type": "VEC2"
    },
    {
      "bufferView": 1,
      "byteOffset": 808560,
      "componentType": 5126,
      "count": 33690,
      "max": [
        0.9940288662910461,
        0.9960487484931946
      ],
      "min": [
        0.0039062299765646458,
        0.0039062201976776123
      ],
      "type": "VEC2"
    },
    {
      "bufferView": 0,
      "componentType": 5125,
      "count": 107307,
      "type": "SCALAR"
    }
  ],
  "asset": {
    "extras": {
      "author": "nodgerty (https://sketchfab.com/nodgert111)",
      "license": "CC-BY-4.0 (http://creativecommons.org/licenses/by/4.0/)",
      "source": "https://sketchfab.com/3d-models/free-steampunk-da-vincis-sword-game-ready-e4b2035b156847bab6f4139b4fb1e785",
      "title": "FREE | Steampunk Da Vinci`s Sword (Game-Ready)"
    },
    "generator": "Sketchfab-17.22.0",
    "version": "2.0"
  },
  "bufferViews": [
    {
      "buffer": 0,
      "byteLength": 429228,
      "name": "floatBufferViews",
      "target": 34963
    },
    {
      "buffer": 0,
      "byteLength": 1078080,
      "byteOffset": 429228,
      "byteStride": 8,
      "name": "floatBufferViews",
      "target": 34962
    },
    {
      "buffer": 0,
      "byteLength": 808560,
      "byteOffset": 1507308,
      "byteStride": 12,
      "name": "floatBufferViews",
      "target": 34962
    },
    {
      "buffer": 0,
      "byteLength": 539040,
      "byteOffset": 2315868,
      "byteStride": 16,
      "name": "floatBufferViews",
      "target": 34962
    }
  ],
  "buffers": [
    {
      "byteLength": 2854908,
      "uri": "scene.bin"
    }
  ],
  "extensionsUsed": [
    "KHR_materials_emissive_strength"
  ],
  "images": [
    {
      "uri": "textures/Material.001_baseColor.png"
    },
    {
      "uri": "textures/Material.001_metallicRoughness.png"
    },
    {
      "uri": "textures/Material.001_emissive.png"
    },
    {
      "uri": "textures/Material.001_normal.png"
    }
  ],
  "materials": [
    {
      "doubleSided": true,
      "emissiveFactor": [
        1.0,
        1.0,
        1.0
      ],
      "emissiveTexture": {
        "index": 2
      },
      "extensions": {
        "KHR_materials_emissive_strength": {
          "emissiveStrength": 10.0
        }
      },
      "name": "Material.001",
      "normalTexture": {
        "index": 3
      },
      "occlusionTexture": {
        "index": 1
      },
      "pbrMetallicRoughness": {
        "baseColorTexture": {
          "index": 0
        },
        "metallicRoughnessTexture": {
          "index": 1
        }
      }
    }
  ],
  "meshes": [
    {
      "name": "SteampunkSword_Material.001_0",
      "primitives": [
        {
          "attributes": {
            "NORMAL": 1,
            "POSITION": 0,
            "TANGENT": 2,
            "TEXCOORD_0": 3,
            "TEXCOORD_1": 4,
            "TEXCOORD_2": 5,
            "TEXCOORD_3": 6
          },
          "indices": 7,
          "material": 0,
          "mode": 4
        }
      ]
    }
  ],
  "nodes": [
    {
      "children": [
        1
      ],
      "matrix": [
        1.0,
        0.0,
        0.0,
        0.0,
        0.0,
        2.220446049250313e-16,
        -1.0,
        0.0,
        0.0,
        1.0,
        2.220446049250313e-16,
        0.0,
        0.0,
        0.0,
        0.0,
        1.0
      ],
      "name": "Sketchfab_model"
    },
    {
      "children": [
        2
      ],
      "matrix": [
        0.009999999776482582,
        0.0,
        0.0,
        0.0,
        0.0,
        0.0,
        0.009999999776482582,
        0.0,
        0.0,
        -0.009999999776482582,
        0.0,
        0.0,
        0.0,
        0.0,
        0.0,
        1.0
      ],
      "name": "SteampunkSword.fbx"
    },
    {
      "children": [
        3
      ],
      "name": "RootNode"
    },
    {
      "children": [
        4
      ],
      "matrix": [
        1.0,
        0.0,
        0.0,
        0.0,
        0.0,
        1.0,
        0.0,
        0.0,
        0.0,
        0.0,
        1.0,
        0.0,
        55.53376770019531,
        -170.76182556152344,
        322.26116943359375,
        1.0
      ],
      "name": "SteampunkSword"
    },
    {
      "mesh": 0,
      "name": "SteampunkSword_Material.001_0"
    }
  ],
  "samplers": [
    {
      "magFilter": 9729,
      "minFilter": 9987,
      "wrapS": 10497,
      "wrapT": 10497
    }
  ],
  "scene": 0,
  "scenes": [
    {
      "name": "Sketchfab_Scene",
      "nodes": [
        0
      ]
    }
  ],
  "textures": [
    {
      "sampler": 0,
      "source": 0
    },
    {
      "sampler": 0,
      "source": 1
    },
    {
      "sampler": 0,
      "source": 2
    },
    {
      "sampler": 0,
      "source": 3
    }
  ]
}
