{
  "accessors": [
    {
      "bufferView": 2,
      "componentType": 5126,
      "count": 5790,
      "max": [
        0.4300290048122406,
        5.712172985076904,
        3.676805019378662
      ],
      "min": [
        -0.39958399534225464,
        1.0511749982833862,
        -7.96901798248291
      ],
      "type": "VEC3"
    },
    {
      "bufferView": 2,
      "byteOffset": 69480,
      "componentType": 5126,
      "count": 5790,
      "max": [
        1.0,
        0.9999998807907104,
        0.9995037913322449
      ],
      "min": [
        -1.0,
        -0.9999997615814209,
        -0.9988134503364563
      ],
      "type": "VEC3"
    },
    {
      "bufferView": 3,
      "componentType": 5126,
      "count": 5790,
      "max": [
        1.0,
        0.9986693859100342,
        0.999933660030365,
        1.0
      ],
      "min": [
        -0.999961793422699,
        -0.9739258289337158,
        -0.9999541640281677,
        -1.0
      ],
      "type": "VEC4"
    },
    {
      "bufferView": 1,
      "componentType": 5126,
      "count": 5790,
      "max": [
        0.993494987487793,
        0.9980080127716064
      ],
      "min": [
        0.0019829999655485153,
        0.0019920000340789557
      ],
      "type": "VEC2"
    },
    {
      "bufferView": 0,
      "componentType": 5125,
      "count": 29424,
      "type": "SCALAR"
    },
    {
      "bufferView": 2,
      "byteOffset": 138960,
      "componentType": 5126,
      "count": 344,
      "max": [
        0.24293500185012817,
        4.900241851806641,
        2.818871021270752
      ],
      "min": [
        -0.17869900166988373,
        1.7862650156021118,
        -6.560123920440674
      ],
      "type": "VEC3"
    },
    {
      "bufferView": 2,
      "byteOffset": 143088,
      "componentType": 5126,
      "count": 344,
      "max": [
        1.0,
        1.0,
        0.9809406399726868
      ],
      "min": [
        -1.0,
        -0.9994586706161499,
        -0.9378247857093811
      ],
      "type": "VEC3"
    },
    {
      "bufferView": 3,
      "byteOffset": 92640,
      "componentType": 5126,
      "count": 344,
      "max": [
        1.0,
        1.0,
        7.787948561599478e-06,
        1.0
      ],
      "min": [
        0.0,
        -9.696425422589527e-07,
        -6.422132628358668e-06,
        1.0
      ],
      "type": "VEC4"
    },
    {
      "bufferView": 1,
      "byteOffset": 46320,
      "componentType": 5126,
      "count": 344,
      "max": [
        0.8740119934082031,
        0.9980080127716064
      ],
      "min": [
        0.0017450000159442425,
        0.0019920000340789557
      ],
      "type": "VEC2"
    },
    {
      "bufferView": 0,
      "byteOffset": 117696,
      "componentType": 5125,
      "count": 732,
      "type": "SCALAR"
    },
    {
      "bufferView": 2,
      "byteOffset": 147216,
      "componentType": 5126,
      "count": 840,
      "max": [
        0.5075709819793701,
        4.517408847808838,
        2.381453037261963
      ],
      "min": [
        -0.5075709819793701,
        1.9822299480438232,
        -0.22324399650096893
      ],
      "type": "VEC3"
    },
    {
      "bufferView": 2,
      "byteOffset": 157296,
      "componentType": 5126,
      "count": 840,
      "max": [
        1.0,
        0.9991426467895508,
        0.8943870067596436
      ],
      "min": [
        -1.0,
        -0.9999316334724426,
        -0.9932959079742432
      ],
      "type": "VEC3"
    },
    {
      "bufferView": 3,
      "byteOffset": 98144,
      "componentType": 5126,
      "count": 840,
      "max": [
        1.0,
        0.9991419315338135,
        0.46072301268577576,
        1.0
      ],
      "min": [
        -9.699018222991729e-21,
        -0.9932959079742432,
        -5.080455593997613e-06,
        1.0
      ],
      "type": "VEC4"
    },
    {
      "bufferView": 1,
      "byteOffset": 49072,
      "componentType": 5126,
      "count": 840,
      "max": [
        0.9752730131149292,
        0.9727200269699097
      ],
      "min": [
        0.0019480000482872128,
        0.002216000109910965
      ],
      "type": "VEC2"
    },
    {
      "bufferView": 0,
      "byteOffset": 120624,
      "componentType": 5125,
      "count": 1260,
      "type": "SCALAR"
    },
    {
      "bufferView": 2,
      "byteOffset": 167376,
      "componentType": 5126,
      "count": 1468,
      "max": [
        0.325314998626709,
        4.571887016296387,
        9.446212768554688
      ],
      "min": [
        -0.325314998626709,
        -5.051515102386475,
        1.1993470191955566
      ],
      "type": "VEC3"
    },
    {
      "bufferView": 2,
      "byteOffset": 184992,
      "componentType": 5126,
      "count": 1468,
      "max": [
        1.0,
        0.9348706007003784,
        0.9995736479759216
      ],
      "min": [
        -1.0,
        -0.999853789806366,
        -0.935810387134552
      ],
      "type": "VEC3"
    },
    {
      "bufferView": 3,
      "byteOffset": 111584,
      "componentType": 5126,
      "count": 1468,
      "max": [
        1.0,
        0.848183810710907,
        0.6570255756378174,
        1.0
      ],
      "min": [
        -1.0,
        -0.8503924012184143,
        -0.8622972965240479,
        1.0
      ],
      "type": "VEC4"
    },
    {
      "bufferView": 1,
      "byteOffset": 55792,
      "componentType": 5126,
      "count": 1468,
      "max": [
        0.9486569762229919,
        0.9980080127716064
      ],
      "min": [
        0.0018939999863505363,
        0.0019920000340789557
      ],
      "type": "VEC2"
    },
    {
      "bufferView": 0,
      "byteOffset": 125664,
      "componentType": 5125,
      "count": 2400,
      "type": "SCALAR"
    },
    {
      "bufferView": 2,
      "byteOffset": 202608,
      "componentType": 5126,
      "count": 512,
      "max": [
        0.22628000378608704,
        4.389277935028076,
        -6.085477828979492
      ],
      "min": [
        -0.22628000378608704,
        1.018149971961975,
        -9.85214900970459
      ],
      "type": "VEC3"
    },
    {
      "bufferView": 2,
      "byteOffset": 208752,
      "componentType": 5126,
      "count": 512,
      "max": [
        0.9965904951095581,
        0.9951865077018738,
        0.9951865077018738
      ],
      "min": [
        -0.9965904951095581,
        -0.9951865077018738,
        -0.9951865077018738
      ],
      "type": "VEC3"
    },
    {
      "bufferView": 3,
      "byteOffset": 135072,
      "componentType": 5126,
      "count": 512,
      "max": [
        1.0,
        0.9999127388000488,
        0.004791876766830683,
        1.0
      ],
      "min": [
        -0.13301551342010498,
        0.0,
        -0.003603322198614478,
        1.0
      ],
      "type": "VEC4"
    },
    {
      "bufferView": 1,
      "byteOffset": 67536,
      "componentType": 5126,
      "count": 512,
      "max": [
        0.9249680042266846,
        0.9980080127716064
      ],
      "min": [
        0.01271000038832426,
        0.0019920000340789557
      ],
      "type": "VEC2"
    },
    {
      "bufferView": 0,
      "byteOffset": 135264,
      "componentType": 5125,
      "count": 768,
      "type": "SCALAR"
    },
    {
      "bufferView": 2,
      "byteOffset": 214896,
      "componentType": 5126,
      "count": 1050,
      "max": [
        0.5087900161743164,
        5.077452182769775,
        -0.39278000593185425
      ],
      "min": [
        -0.5087900161743164,
        3.949320077896118,
        -5.613821029663086
      ],
      "type": "VEC3"
    },
    {
      "bufferView": 2,
      "byteOffset": 227496,
      "componentType": 5126,
      "count": 1050,
      "max": [
        1.0,
        1.0,
        0.9963124990463257
      ],
      "min": [
        -1.0,
        -0.9997756481170654,
        -0.9864909052848816
      ],
      "type": "VEC3"
    },
    {
      "bufferView": 3,
      "byteOffset": 143264,
      "componentType": 5126,
      "count": 1050,
      "max": [
        1.0,
        0.999998927116394,
        0.0004690843925345689,
        1.0
      ],
      "min": [
        -9.99999087980541e-07,
        -0.00024091271916404366,
        -0.0019482856150716543,
        -1.0
      ],
      "type": "VEC4"
    },
    {
      "bufferView": 1,
      "byteOffset": 71632,
      "componentType": 5126,
      "count": 1050,
      "max": [
        0.7080489993095398,
        0.9980080127716064
      ],
      "min": [
        0.0015059999423101544,
        0.001943000010214746
      ],
      "type": "VEC2"
    },
    {
      "bufferView": 0,
      "byteOffset": 138336,
      "componentType": 5125,
      "count": 3048,
      "type": "SCALAR"
    }
  ],
  "asset": {
    "extras": {
      "author": "Diego Clemente (https://sketchfab.com/diegoclemente2001)",
      "license": "CC-BY-4.0 (http://creativecommons.org/licenses/by/4.0/)",
      "source": "https://sketchfab.com/3d-models/karambit-rubi-6454fb033a6b486085fbd7496749be11",
      "title": "✦ KARAMBIT | RUBI ✦"
    },
    "generator": "Sketchfab-12.66.0",
    "version": "2.0"
  },
  "bufferViews": [
    {
      "buffer": 0,
      "byteLength": 150528,
      "name": "floatBufferViews",
      "target": 34963
    },
    {
      "buffer": 0,
      "byteLength": 80032,
      "byteOffset": 150528,
      "byteStride": 8,
      "name": "floatBufferViews",
      "target": 34962
    },
    {
      "buffer": 0,
      "byteLength": 240096,
      "byteOffset": 230560,
      "byteStride": 12,
      "name": "floatBufferViews",
      "target": 34962
    },
    {
      "buffer": 0,
      "byteLength": 160064,
      "byteOffset": 470656,
      "byteStride": 16,
      "name": "floatBufferViews",
      "target": 34962
    }
  ],
  "buffers": [
    {
      "byteLength": 630720,
      "uri": "scene.bin"
    }
  ],
  "images": [
    {
      "uri": "textures/lambert6SG_baseColor.jpeg"
    },
    {
      "uri": "textures/lambert6SG_metallicRoughness.png"
    },
    {
      "uri": "textures/lambert6SG_normal.png"
    },
    {
      "uri": "textures/lambert7SG_baseColor.jpeg"
    },
    {
      "uri": "textures/lambert7SG_metallicRoughness.png"
    },
    {
      "uri": "textures/lambert7SG_normal.png"
    },
    {
      "uri": "textures/lambert2SG_baseColor.jpeg"
    },
    {
      "uri": "textures/lambert2SG_metallicRoughness.png"
    },
    {
      "uri": "textures/lambert2SG_normal.png"
    },
    {
      "uri": "textures/lambert4SG_baseColor.jpeg"
    },
    {
      "uri": "textures/lambert4SG_metallicRoughness.png"
    },
    {
      "uri": "textures/lambert4SG_normal.png"
    },
    {
      "uri": "textures/lambert5SG_baseColor.jpeg"
    },
    {
      "uri": "textures/lambert5SG_metallicRoughness.png"
    },
    {
      "uri": "textures/lambert5SG_normal.png"
    },
    {
      "uri": "textures/lambert3SG_baseColor.jpeg"
    },
    {
      "uri": "textures/lambert3SG_metallicRoughness.png"
    },
    {
      "uri": "textures/lambert3SG_normal.png"
    }
  ],
  "materials": [
    {
      "doubleSided": true,
      "name": "lambert6SG",
      "normalTexture": {
        "index": 2
      },
      "occlusionTexture": {
        "index": 1
      },
      "pbrMetallicRoughness": {
        "baseColorTexture": {
          "index": 0
        },
        "metallicRoughnessTexture": {
          "index": 1
        }
      }
    },
    {
      "doubleSided": true,
      "name": "lambert7SG",
      "normalTexture": {
        "index": 5
      },
      "occlusionTexture": {
        "index": 4
      },
      "pbrMetallicRoughness": {
        "baseColorTexture": {
          "index": 3
        },
        "metallicRoughnessTexture": {
          "index": 4
        }
      }
    },
    {
      "doubleSided": true,
      "name": "lambert2SG",
      "normalTexture": {
        "index": 8
      },
      "occlusionTexture": {
        "index": 7
      },
      "pbrMetallicRoughness": {
        "baseColorTexture": {
          "index": 6
        },
        "metallicRoughnessTexture": {
          "index": 7
        }
      }
    },
    {
      "doubleSided": true,
      "name": "lambert4SG",
      "normalTexture": {
        "index": 11
      },
      "occlusionTexture": {
        "index": 10
      },
      "pbrMetallicRoughness": {
        "baseColorTexture": {
          "index": 9
        },
        "metallicRoughnessTexture": {
          "index": 10
        }
      }
    },
    {
      "doubleSided": true,
      "name": "lambert5SG",
      "normalTexture": {
        "index": 14
      },
      "occlusionTexture": {
        "index": 13
      },
      "pbrMetallicRoughness": {
        "baseColorTexture": {
          "index": 12
        },
        "metallicRoughnessTexture": {
          "index": 13
        }
      }
    },
    {
      "doubleSided": true,
      "name": "lambert3SG",
      "normalTexture": {
        "index": 17
      },
      "occlusionTexture": {
        "index": 16
      },
      "pbrMetallicRoughness": {
        "baseColorTexture": {
          "index": 15
        },
        "metallicRoughnessTexture": {
          "index": 16
        }
      }
    }
  ],
  "meshes": [
    {
      "name": "defaultMaterial",
      "primitives": [
        {
          "attributes": {
            "NORMAL": 1,
            "POSITION": 0,
            "TANGENT": 2,
            "TEXCOORD_0": 3
          },
          "indices": 4,
          "material": 5,
          "mode": 4
        }
      ]
    },
    {
      "name": "defaultMaterial",
      "primitives": [
        {
          "attributes": {
            "NORMAL": 6,
            "POSITION": 5,
            "TANGENT": 7,
            "TEXCOORD_0": 8
          },
          "indices": 9,
          "material": 4,
          "mode": 4
        }
      ]
    },
    {
      "name": "defaultMaterial",
      "primitives": [
        {
          "attributes": {
            "NORMAL": 11,
            "POSITION": 10,
            "TANGENT": 12,
            "TEXCOORD_0": 13
          },
          "indices": 14,
          "material": 3,
          "mode": 4
        }
      ]
    },
    {
      "name": "defaultMaterial",
      "primitives": [
        {
          "attributes": {
            "NORMAL": 16,
            "POSITION": 15,
            "TANGENT": 17,
            "TEXCOORD_0": 18
          },
          "indices": 19,
          "material": 2,
          "mode": 4
        }
      ]
    },
    {
      "name": "defaultMaterial",
      "primitives": [
        {
          "attributes": {
            "NORMAL": 21,
            "POSITION": 20,
            "TANGENT": 22,
            "TEXCOORD_0": 23
          },
          "indices": 24,
          "material": 1,
          "mode": 4
        }
      ]
    },
    {
      "name": "defaultMaterial",
      "primitives": [
        {
          "attributes": {
            "NORMAL": 26,
            "POSITION": 25,
            "TANGENT": 27,
            "TEXCOORD_0": 28
          },
          "indices": 29,
          "material": 0,
          "mode": 4
        }
      ]
    }
  ],
  "nodes": [
    {
      "children": [
        1
      ],
      "matrix": [
        1.0,
        0.0,
        0.0,
        0.0,
        0.0,
        2.220446049250313e-16,
        -1.0,
        0.0,
        0.0,
        1.0,
        2.220446049250313e-16,
        0.0,
        0.0,
        0.0,
        0.0,
        1.0
      ],
      "name": "Sketchfab_model"
    },
    {
      "children": [
        2,
        4,
        6,
        8,
        10,
        12
      ],
      "matrix": [
        1.0,
        0.0,
        0.0,
        0.0,
        0.0,
        -4.371139006309477e-08,
        0.999999999999999,
        0.0,
        0.0,
        -0.999999999999999,
        -4.371139006309477e-08,
        0.0,
        0.0,
        0.0,
        0.0,
        1.0
      ],
      "name": "Collada visual scene group"
    },
    {
      "children": [
        3
      ],
      "name": "cuerpo"
    },
    {
      "mesh": 0,
      "name": "defaultMaterial"
    },
    {
      "children": [
        5
      ],
      "name": "interior"
    },
    {
      "mesh": 1,
      "name": "defaultMaterial"
    },
    {
      "children": [
        7
      ],
      "name": "rejilla"
    },
    {
      "mesh": 2,
      "name": "defaultMaterial"
    },
    {
      "children": [
        9
      ],
      "name": "hoja"
    },
    {
      "mesh": 3,
      "name": "defaultMaterial"
    },
    {
      "children": [
        11
      ],
      "name": "anillo"
    },
    {
      "mesh": 4,
      "name": "defaultMaterial"
    },
    {
      "children": [
        13
      ],
      "name": "accesorio"
    },
    {
      "mesh": 5,
      "name": "defaultMaterial"
    }
  ],
  "samplers": [
    {
      "magFilter": 9729,
      "minFilter": 9987,
      "wrapS": 10497,
      "wrapT": 10497
    }
  ],
  "scene": 0,
  "scenes": [
    {
      "name": "Sketchfab_Scene",
      "nodes": [
        0
      ]
    }
  ],
  "textures": [
    {
      "sampler": 0,
      "source": 0
    },
    {
      "sampler": 0,
      "source": 1
    },
    {
      "sampler": 0,
      "source": 2
    },
    {
      "sampler": 0,
      "source": 3
    },
    {
      "sampler": 0,
      "source": 4
    },
    {
      "sampler": 0,
      "source": 5
    },
    {
      "sampler": 0,
      "source": 6
    },
    {
      "sampler": 0,
      "source": 7
    },
    {
      "sampler": 0,
      "source": 8
    },
    {
      "sampler": 0,
      "source": 9
    },
    {
      "sampler": 0,
      "source": 10
    },
    {
      "sampler": 0,
      "source": 11
    },
    {
      "sampler": 0,
      "source": 12
    },
    {
      "sampler": 0,
      "source": 13
    },
    {
      "sampler": 0,
      "source": 14
    },
    {
      "sampler": 0,
      "source": 15
    },
    {
      "sampler": 0,
      "source": 16
    },
    {
      "sampler": 0,
      "source": 17
    }
  ]
}
