{
  "accessors": [
    {
      "bufferView": 2,
      "componentType": 5126,
      "count": 215,
      "max": [
        0.7421756982803345,
        6.9724531173706055,
        0.15693926811218262
      ],
      "min": [
        -0.7421756982803345,
        -1.3088583946228027,
        -0.15693926811218262
      ],
      "type": "VEC3"
    },
    {
      "bufferView": 2,
      "byteOffset": 2580,
      "componentType": 5126,
      "count": 215,
      "max": [
        0.6231023073196411,
        1.0,
        1.0
      ],
      "min": [
        -0.6231023073196411,
        -0.3105849027633667,
        -1.0
      ],
      "type": "VEC3"
    },
    {
      "bufferView": 3,
      "componentType": 5126,
      "count": 215,
      "max": [
        0.9999986886978149,
        0.5598003268241882,
        0.9998371601104736,
        1.0
      ],
      "min": [
        0.016968000680208206,
        -0.5598004460334778,
        -0.9998371601104736,
        -1.0
      ],
      "type": "VEC4"
    },
    {
      "bufferView": 1,
      "componentType": 5126,
      "count": 215,
      "max": [
        0.5118070840835571,
        0.9980823993682861
      ],
      "min": [
        0.18676863610744476,
        0.005261682905256748
      ],
      "type": "VEC2"
    },
    {
      "bufferView": 0,
      "componentType": 5125,
      "count": 816,
      "type": "SCALAR"
    },
    {
      "bufferView": 2,
      "byteOffset": 5160,
      "componentType": 5126,
      "count": 345,
      "max": [
        0.9999989867210388,
        1.1201893091201782,
        0.9999909400939941
      ],
      "min": [
        -1.0000001192092896,
        -1.1201893091201782,
        -1.0000061988830566
      ],
      "type": "VEC3"
    },
    {
      "bufferView": 2,
      "byteOffset": 9300,
      "componentType": 5126,
      "count": 345,
      "max": [
        1.0,
        1.0,
        1.0
      ],
      "min": [
        -1.0,
        -1.0,
        -1.0
      ],
      "type": "VEC3"
    },
    {
      "bufferView": 3,
      "byteOffset": 3440,
      "componentType": 5126,
      "count": 345,
      "max": [
        1.0,
        0.9999974370002747,
        1.0,
        1.0
      ],
      "min": [
        -0.987688422203064,
        -0.9999974370002747,
        -1.0,
        -1.0
      ],
      "type": "VEC4"
    },
    {
      "bufferView": 1,
      "byteOffset": 1720,
      "componentType": 5126,
      "count": 345,
      "max": [
        0.995574414730072,
        0.9969298839569092
      ],
      "min": [
        0.5057953000068665,
        0.20654135942459106
      ],
      "type": "VEC2"
    },
    {
      "bufferView": 0,
      "byteOffset": 3264,
      "componentType": 5125,
      "count": 1800,
      "type": "SCALAR"
    },
    {
      "bufferView": 2,
      "byteOffset": 13440,
      "componentType": 5126,
      "count": 234,
      "max": [
        1.038716435432434,
        8.894819259643555,
        0.9106205105781555
      ],
      "min": [
        -1.0387160778045654,
        -1.5162150859832764,
        -0.9106206297874451
      ],
      "type": "VEC3"
    },
    {
      "bufferView": 2,
      "byteOffset": 16248,
      "componentType": 5126,
      "count": 234,
      "max": [
        0.9601980447769165,
        1.0,
        0.9739525318145752
      ],
      "min": [
        -0.9602019786834717,
        -1.0,
        -0.9739524722099304
      ],
      "type": "VEC3"
    },
    {
      "bufferView": 3,
      "byteOffset": 8960,
      "componentType": 5126,
      "count": 234,
      "max": [
        0.9765858054161072,
        0.5556941032409668,
        0.995831310749054,
        1.0
      ],
      "min": [
        -0.9765911102294922,
        -0.5556946992874146,
        -0.962183952331543,
        1.0
      ],
      "type": "VEC4"
    },
    {
      "bufferView": 1,
      "byteOffset": 4480,
      "componentType": 5126,
      "count": 234,
      "max": [
        0.9231502413749695,
        0.9271352291107178
      ],
      "min": [
        0.45034512877464294,
        0.0021994621492922306
      ],
      "type": "VEC2"
    },
    {
      "bufferView": 0,
      "byteOffset": 10464,
      "componentType": 5125,
      "count": 1152,
      "type": "SCALAR"
    },
    {
      "bufferView": 2,
      "byteOffset": 19056,
      "componentType": 5126,
      "count": 440,
      "max": [
        2.955784559249878,
        0.677210807800293,
        0.5
      ],
      "min": [
        -2.955784559249878,
        -1.390246868133545,
        -0.5
      ],
      "type": "VEC3"
    },
    {
      "bufferView": 2,
      "byteOffset": 24336,
      "componentType": 5126,
      "count": 440,
      "max": [
        0.9034066200256348,
        0.9989504814147949,
        0.9977794885635376
      ],
      "min": [
        -0.9034065008163452,
        -0.9989712834358215,
        -0.997818648815155
      ],
      "type": "VEC3"
    },
    {
      "bufferView": 3,
      "byteOffset": 12704,
      "componentType": 5126,
      "count": 440,
      "max": [
        0.7326414585113525,
        0.9905799627304077,
        0.9993501901626587,
        1.0
      ],
      "min": [
        -0.7326268553733826,
        -0.9975407123565674,
        -0.9990699291229248,
        1.0
      ],
      "type": "VEC4"
    },
    {
      "bufferView": 1,
      "byteOffset": 6352,
      "componentType": 5126,
      "count": 440,
      "max": [
        0.994314968585968,
        0.9935287833213806
      ],
      "min": [
        0.6624799966812134,
        0.16148272156715393
      ],
      "type": "VEC2"
    },
    {
      "bufferView": 0,
      "byteOffset": 15072,
      "componentType": 5125,
      "count": 1884,
      "type": "SCALAR"
    },
    {
      "bufferView": 2,
      "byteOffset": 29616,
      "componentType": 5126,
      "count": 68,
      "max": [
        0.5,
        0.4999990463256836,
        0.400148868560791
      ],
      "min": [
        -0.5,
        -0.4999971389770508,
        -3.020181655883789
      ],
      "type": "VEC3"
    },
    {
      "bufferView": 2,
      "byteOffset": 30432,
      "componentType": 5126,
      "count": 68,
      "max": [
        0.7070105075836182,
        0.7070120573043823,
        0.9833607077598572
      ],
      "min": [
        -0.7070105075836182,
        -0.7070125937461853,
        -0.9833607077598572
      ],
      "type": "VEC3"
    },
    {
      "bufferView": 3,
      "byteOffset": 19744,
      "componentType": 5126,
      "count": 68,
      "max": [
        0.9850274920463562,
        0.7067893743515015,
        0.9964249134063721,
        1.0
      ],
      "min": [
        -0.4309704601764679,
        -0.7068648934364319,
        -0.9964249134063721,
        -1.0
      ],
      "type": "VEC4"
    },
    {
      "bufferView": 1,
      "byteOffset": 9872,
      "componentType": 5126,
      "count": 68,
      "max": [
        0.7855424284934998,
        0.17893674969673157
      ],
      "min": [
        0.6517902612686157,
        0.0015161463525146246
      ],
      "type": "VEC2"
    },
    {
      "bufferView": 0,
      "byteOffset": 22608,
      "componentType": 5125,
      "count": 264,
      "type": "SCALAR"
    },
    {
      "bufferView": 2,
      "byteOffset": 31248,
      "componentType": 5126,
      "count": 1084,
      "max": [
        2.3499248027801514,
        3.0518903732299805,
        0.1807231903076172
      ],
      "min": [
        -2.3499248027801514,
        -3.9237709045410156,
        -9.079438209533691
      ],
      "type": "VEC3"
    },
    {
      "bufferView": 2,
      "byteOffset": 44256,
      "componentType": 5126,
      "count": 1084,
      "max": [
        0.9997950792312622,
        1.0,
        1.0
      ],
      "min": [
        -0.9997950792312622,
        -0.9937750697135925,
        -1.0
      ],
      "type": "VEC3"
    },
    {
      "bufferView": 3,
      "byteOffset": 20832,
      "componentType": 5126,
      "count": 1084,
      "max": [
        0.9998682141304016,
        0.8167737722396851,
        1.0,
        1.0
      ],
      "min": [
        -1.0,
        -0.4947700798511505,
        -1.0,
        -1.0
      ],
      "type": "VEC4"
    },
    {
      "bufferView": 1,
      "byteOffset": 10416,
      "componentType": 5126,
      "count": 1084,
      "max": [
        0.8150181174278259,
        0.7311954498291016
      ],
      "min": [
        0.0,
        0.0
      ],
      "type": "VEC2"
    },
    {
      "bufferView": 0,
      "byteOffset": 23664,
      "componentType": 5125,
      "count": 4800,
      "type": "SCALAR"
    },
    {
      "bufferView": 2,
      "byteOffset": 57264,
      "componentType": 5126,
      "count": 627,
      "max": [
        1.0000001192092896,
        1.3246421813964844,
        1.0
      ],
      "min": [
        -1.000000238418579,
        -1.3246421813964844,
        -1.0
      ],
      "type": "VEC3"
    },
    {
      "bufferView": 2,
      "byteOffset": 64788,
      "componentType": 5126,
      "count": 627,
      "max": [
        1.0,
        1.0,
        1.0
      ],
      "min": [
        -1.0,
        -1.0,
        -1.0
      ],
      "type": "VEC3"
    },
    {
      "bufferView": 3,
      "byteOffset": 38176,
      "componentType": 5126,
      "count": 627,
      "max": [
        0.4055536985397339,
        1.0,
        0.9999907612800598,
        1.0
      ],
      "min": [
        -1.0,
        -1.0,
        -0.48099377751350403,
        -1.0
      ],
      "type": "VEC4"
    },
    {
      "bufferView": 1,
      "byteOffset": 19088,
      "componentType": 5126,
      "count": 627,
      "max": [
        0.9978770613670349,
        0.9981357455253601
      ],
      "min": [
        0.47777557373046875,
        0.04787227138876915
      ],
      "type": "VEC2"
    },
    {
      "bufferView": 0,
      "byteOffset": 42864,
      "componentType": 5125,
      "count": 3240,
      "type": "SCALAR"
    },
    {
      "bufferView": 2,
      "byteOffset": 72312,
      "componentType": 5126,
      "count": 68,
      "max": [
        0.6944379210472107,
        0.5,
        0.8525402545928955
      ],
      "min": [
        -0.6944379210472107,
        -0.5000019073486328,
        -6.290092468261719
      ],
      "type": "VEC3"
    },
    {
      "bufferView": 2,
      "byteOffset": 73128,
      "componentType": 5126,
      "count": 68,
      "max": [
        0.8124520778656006,
        0.8455320000648499,
        1.0
      ],
      "min": [
        -0.9755640625953674,
        -1.0,
        -1.0
      ],
      "type": "VEC3"
    },
    {
      "bufferView": 3,
      "byteOffset": 48208,
      "componentType": 5126,
      "count": 68,
      "max": [
        0.9955558776855469,
        0.4025452733039856,
        1.0,
        1.0
      ],
      "min": [
        0.0,
        -0.999992847442627,
        -1.0,
        -1.0
      ],
      "type": "VEC4"
    },
    {
      "bufferView": 1,
      "byteOffset": 24104,
      "componentType": 5126,
      "count": 68,
      "max": [
        0.9981316924095154,
        0.781110405921936
      ],
      "min": [
        0.0,
        0.0
      ],
      "type": "VEC2"
    },
    {
      "bufferView": 0,
      "byteOffset": 55824,
      "componentType": 5125,
      "count": 264,
      "type": "SCALAR"
    },
    {
      "bufferView": 2,
      "byteOffset": 73944,
      "componentType": 5126,
      "count": 458,
      "max": [
        1.0290344953536987,
        18.28343963623047,
        5.414035320281982
      ],
      "min": [
        -1.0290344953536987,
        -2.583327293395996,
        -10.629121780395508
      ],
      "type": "VEC3"
    },
    {
      "bufferView": 2,
      "byteOffset": 79440,
      "componentType": 5126,
      "count": 458,
      "max": [
        0.9997296929359436,
        0.9999997019767761,
        0.9999231100082397
      ],
      "min": [
        -0.9997296929359436,
        -0.9454880356788635,
        -0.9999231100082397
      ],
      "type": "VEC3"
    },
    {
      "bufferView": 3,
      "byteOffset": 49296,
      "componentType": 5126,
      "count": 458,
      "max": [
        1.0,
        0.28489458560943604,
        0.9998509883880615,
        1.0
      ],
      "min": [
        -1.0,
        -0.09349008649587631,
        -0.9998509883880615,
        -1.0
      ],
      "type": "VEC4"
    },
    {
      "bufferView": 1,
      "byteOffset": 24648,
      "componentType": 5126,
      "count": 458,
      "max": [
        0.280961811542511,
        0.9977313280105591
      ],
      "min": [
        0.004530751146376133,
        0.00809052586555481
      ],
      "type": "VEC2"
    },
    {
      "bufferView": 0,
      "byteOffset": 56880,
      "componentType": 5125,
      "count": 1512,
      "type": "SCALAR"
    },
    {
      "bufferView": 2,
      "byteOffset": 84936,
      "componentType": 5126,
      "count": 156,
      "max": [
        0.5978389382362366,
        0.5,
        0.6203161478042603
      ],
      "min": [
        -0.5978389382362366,
        -0.5,
        -2.700000762939453
      ],
      "type": "VEC3"
    },
    {
      "bufferView": 2,
      "byteOffset": 86808,
      "componentType": 5126,
      "count": 156,
      "max": [
        0.9907165765762329,
        1.0,
        1.0
      ],
      "min": [
        -0.9907165765762329,
        -1.0,
        -1.0
      ],
      "type": "VEC3"
    },
    {
      "bufferView": 3,
      "byteOffset": 56624,
      "componentType": 5126,
      "count": 156,
      "max": [
        0.9999983906745911,
        0.9906975030899048,
        1.0,
        1.0
      ],
      "min": [
        -1.0,
        -0.9905971884727478,
        -1.0,
        -1.0
      ],
      "type": "VEC4"
    },
    {
      "bufferView": 1,
      "byteOffset": 28312,
      "componentType": 5126,
      "count": 156,
      "max": [
        0.8664844632148743,
        0.7252120971679688
      ],
      "min": [
        0.10473176836967468,
        0.006120085716247559
      ],
      "type": "VEC2"
    },
    {
      "bufferView": 0,
      "byteOffset": 62928,
      "componentType": 5125,
      "count": 408,
      "type": "SCALAR"
    }
  ],
  "asset": {
    "extras": {
      "author": "kyrylyushkov (https://sketchfab.com/kyrylyushkov)",
      "license": "CC-BY-4.0 (http://creativecommons.org/licenses/by/4.0/)",
      "source": "https://sketchfab.com/3d-models/demon-sword-9b385527820545a39bacf4410297767c",
      "title": "Demon Sword"
    },
    "generator": "Sketchfab-12.67.0",
    "version": "2.0"
  },
  "bufferViews": [
    {
      "buffer": 0,
      "byteLength": 64560,
      "name": "floatBufferViews",
      "target": 34963
    },
    {
      "buffer": 0,
      "byteLength": 29560,
      "byteOffset": 64560,
      "byteStride": 8,
      "name": "floatBufferViews",
      "target": 34962
    },
    {
      "buffer": 0,
      "byteLength": 88680,
      "byteOffset": 94120,
      "byteStride": 12,
      "name": "floatBufferViews",
      "target": 34962
    },
    {
      "buffer": 0,
      "byteLength": 59120,
      "byteOffset": 182800,
      "byteStride": 16,
      "name": "floatBufferViews",
      "target": 34962
    }
  ],
  "buffers": [
    {
      "byteLength": 241920,
      "uri": "scene.bin"
    }
  ],
  "images": [
    {
      "uri": "textures/SwordMat_baseColor.jpeg"
    },
    {
      "uri": "textures/SwordMat_metallicRoughness.png"
    },
    {
      "uri": "textures/SwordMat_normal.png"
    }
  ],
  "materials": [
    {
      "doubleSided": true,
      "name": "SwordMat",
      "normalTexture": {
        "index": 2,
        "scale": 0.5748856707317073
      },
      "occlusionTexture": {
        "index": 1
      },
      "pbrMetallicRoughness": {
        "baseColorTexture": {
          "index": 0
        },
        "metallicRoughnessTexture": {
          "index": 1
        }
      }
    }
  ],
  "meshes": [
    {
      "name": "Sword_low_SwordMat_0",
      "primitives": [
        {
          "attributes": {
            "NORMAL": 1,
            "POSITION": 0,
            "TANGENT": 2,
            "TEXCOORD_0": 3
          },
          "indices": 4,
          "material": 0,
          "mode": 4
        }
      ]
    },
    {
      "name": "CylinderBig_low_SwordMat_0",
      "primitives": [
        {
          "attributes": {
            "NORMAL": 6,
            "POSITION": 5,
            "TANGENT": 7,
            "TEXCOORD_0": 8
          },
          "indices": 9,
          "material": 0,
          "mode": 4
        }
      ]
    },
    {
      "name": "Handle01_low_SwordMat_0",
      "primitives": [
        {
          "attributes": {
            "NORMAL": 11,
            "POSITION": 10,
            "TANGENT": 12,
            "TEXCOORD_0": 13
          },
          "indices": 14,
          "material": 0,
          "mode": 4
        }
      ]
    },
    {
      "name": "Handle02_low_SwordMat_0",
      "primitives": [
        {
          "attributes": {
            "NORMAL": 16,
            "POSITION": 15,
            "TANGENT": 17,
            "TEXCOORD_0": 18
          },
          "indices": 19,
          "material": 0,
          "mode": 4
        }
      ]
    },
    {
      "name": "Square_low_SwordMat_0",
      "primitives": [
        {
          "attributes": {
            "NORMAL": 21,
            "POSITION": 20,
            "TANGENT": 22,
            "TEXCOORD_0": 23
          },
          "indices": 24,
          "material": 0,
          "mode": 4
        }
      ]
    },
    {
      "name": "Cross_low_SwordMat_0",
      "primitives": [
        {
          "attributes": {
            "NORMAL": 26,
            "POSITION": 25,
            "TANGENT": 27,
            "TEXCOORD_0": 28
          },
          "indices": 29,
          "material": 0,
          "mode": 4
        }
      ]
    },
    {
      "name": "CylinderSmall_low_SwordMat_0",
      "primitives": [
        {
          "attributes": {
            "NORMAL": 31,
            "POSITION": 30,
            "TANGENT": 32,
            "TEXCOORD_0": 33
          },
          "indices": 34,
          "material": 0,
          "mode": 4
        }
      ]
    },
    {
      "name": "Handle03_low_SwordMat_0",
      "primitives": [
        {
          "attributes": {
            "NORMAL": 36,
            "POSITION": 35,
            "TANGENT": 37,
            "TEXCOORD_0": 38
          },
          "indices": 39,
          "material": 0,
          "mode": 4
        }
      ]
    },
    {
      "name": "Plate_low_SwordMat_0",
      "primitives": [
        {
          "attributes": {
            "NORMAL": 41,
            "POSITION": 40,
            "TANGENT": 42,
            "TEXCOORD_0": 43
          },
          "indices": 44,
          "material": 0,
          "mode": 4
        }
      ]
    },
    {
      "name": "Handle04_low_SwordMat_0",
      "primitives": [
        {
          "attributes": {
            "NORMAL": 46,
            "POSITION": 45,
            "TANGENT": 47,
            "TEXCOORD_0": 48
          },
          "indices": 49,
          "material": 0,
          "mode": 4
        }
      ]
    }
  ],
  "nodes": [
    {
      "children": [
        1
      ],
      "matrix": [
        0.839589536190033,
        0.5430107712745667,
        0.015125452540814998,
        0.0,
        -0.129399836063385,
        0.22696211934089683,
        -0.9652687907218933,
        0.0,
        -0.5275842547416687,
        0.8084723353385924,
        0.26082050800323503,
        0.0,
        -0.10356459766626358,
        0.08524364233016965,
        0.13718321919441226,
        1.0
      ],
      "name": "Sketchfab_model"
    },
    {
      "children": [
        2
      ],
      "matrix": [
        1.0,
        0.0,
        0.0,
        0.0,
        0.0,
        0.0,
        1.0,
        0.0,
        0.0,
        -1.0,
        0.0,
        0.0,
        0.0,
        0.0,
        0.0,
        1.0
      ],
      "name": "c43bf3ce509c4aec9e3297fe55b87a05.fbx"
    },
    {
      "children": [
        3,
        5,
        7,
        9,
        11,
        13,
        15,
        17,
        19,
        21
      ],
      "name": "RootNode"
    },
    {
      "children": [
        4
      ],
      "matrix": [
        1.0,
        0.0,
        0.0,
        0.0,
        0.0,
        1.0,
        0.0,
        0.0,
        0.0,
        0.0,
        1.0,
        0.0,
        0.0,
        -4.058376789093018,
        0.0,
        1.0
      ],
      "name": "Sword_low"
    },
    {
      "mesh": 0,
      "name": "Sword_low_SwordMat_0"
    },
    {
      "children": [
        6
      ],
      "matrix": [
        0.4061548709869385,
        0.0,
        0.0,
        0.0,
        0.0,
        -4.543746779890124e-17,
        -0.20463216304779053,
        0.0,
        0.0,
        0.4061548709869385,
        -9.018449786667181e-17,
        0.0,
        0.0,
        2.300717353820801,
        0.0,
        1.0
      ],
      "name": "CylinderBig_low"
    },
    {
      "mesh": 1,
      "name": "CylinderBig_low_SwordMat_0"
    },
    {
      "children": [
        8
      ],
      "matrix": [
        0.15791626274585724,
        0.0,
        0.0,
        0.0,
        0.0,
        0.15791626274585724,
        0.0,
        0.0,
        0.0,
        0.0,
        0.15791626274585724,
        0.0,
        0.0,
        3.4008967876434326,
        0.0,
        1.0
      ],
      "name": "Handle01_low"
    },
    {
      "mesh": 2,
      "name": "Handle01_low_SwordMat_0"
    },
    {
      "children": [
        10
      ],
      "matrix": [
        0.3240990936756134,
        0.0,
        0.0,
        0.0,
        0.0,
        0.3240990936756134,
        0.0,
        0.0,
        0.0,
        0.0,
        0.3423943817615509,
        0.0,
        0.0,
        3.008733034133911,
        0.0,
        1.0
      ],
      "name": "Handle02_low"
    },
    {
      "mesh": 3,
      "name": "Handle02_low_SwordMat_0"
    },
    {
      "children": [
        12
      ],
      "matrix": [
        0.26252180337905884,
        0.0,
        0.0,
        0.0,
        0.0,
        0.26252180337905884,
        0.0,
        0.0,
        0.0,
        0.0,
        0.1374620646238327,
        0.0,
        0.0,
        2.314242124557495,
        0.18007756769657135,
        1.0
      ],
      "name": "Square_low"
    },
    {
      "mesh": 4,
      "name": "Square_low_SwordMat_0"
    },
    {
      "children": [
        14
      ],
      "matrix": [
        0.17340132594108582,
        0.0,
        0.0,
        0.0,
        0.0,
        0.17340132594108582,
        0.0,
        0.0,
        0.0,
        0.0,
        0.05592256411910057,
        0.0,
        0.0,
        2.3123438358306885,
        0.2488194853067398,
        1.0
      ],
      "name": "Cross_low"
    },
    {
      "mesh": 5,
      "name": "Cross_low_SwordMat_0"
    },
    {
      "children": [
        16
      ],
      "matrix": [
        0.2578258216381073,
        0.0,
        0.0,
        0.0,
        0.0,
        -2.3535629348267162e-17,
        -0.1059950515627861,
        0.0,
        0.0,
        0.2578258216381073,
        -5.724883270510512e-17,
        0.0,
        0.0,
        5.035691738128662,
        0.0,
        1.0
      ],
      "name": "CylinderSmall_low"
    },
    {
      "mesh": 6,
      "name": "CylinderSmall_low_SwordMat_0"
    },
    {
      "children": [
        18
      ],
      "matrix": [
        0.23797005414962769,
        0.0,
        0.0,
        0.0,
        0.0,
        0.2997260093688965,
        0.0,
        0.0,
        0.0,
        0.0,
        0.06852741539478302,
        0.0,
        0.0,
        3.005815029144287,
        0.18631069362163544,
        1.0
      ],
      "name": "Handle03_low"
    },
    {
      "mesh": 7,
      "name": "Handle03_low_SwordMat_0"
    },
    {
      "children": [
        20
      ],
      "matrix": [
        0.3405974805355072,
        0.0,
        0.0,
        0.0,
        0.0,
        0.3405974805355072,
        0.0,
        0.0,
        0.0,
        0.0,
        0.022837936878204346,
        0.0,
        0.0,
        -4.230900764465332,
        0.05955091118812561,
        1.0
      ],
      "name": "Plate_low"
    },
    {
      "mesh": 8,
      "name": "Plate_low_SwordMat_0"
    },
    {
      "children": [
        22
      ],
      "matrix": [
        0.40836185216903687,
        0.0,
        0.0,
        0.0,
        0.0,
        0.2020406723022461,
        0.0,
        0.0,
        0.0,
        0.0,
        0.09433924406766891,
        0.0,
        0.0,
        2.758885622024536,
        0.09809793531894684,
        1.0
      ],
      "name": "Handle04_low"
    },
    {
      "mesh": 9,
      "name": "Handle04_low_SwordMat_0"
    }
  ],
  "samplers": [
    {
      "magFilter": 9729,
      "minFilter": 9987,
      "wrapS": 10497,
      "wrapT": 10497
    }
  ],
  "scene": 0,
  "scenes": [
    {
      "name": "Sketchfab_Scene",
      "nodes": [
        0
      ]
    }
  ],
  "textures": [
    {
      "sampler": 0,
      "source": 0
    },
    {
      "sampler": 0,
      "source": 1
    },
    {
      "sampler": 0,
      "source": 2
    }
  ]
}
