{
  "accessors": [
    {
      "bufferView": 3,
      "componentType": 5126,
      "count": 16645,
      "max": [
        7811.90576171875,
        452347.5,
        13526.6376953125
      ],
      "min": [
        -319524.53125,
        220128.484375,
        -13564.689453125
      ],
      "type": "VEC3"
    },
    {
      "bufferView": 3,
      "byteOffset": 199740,
      "componentType": 5126,
      "count": 16645,
      "max": [
        0.9999499917030334,
        0.9999318718910217,
        1.0
      ],
      "min": [
        -0.9999580979347229,
        -0.9999770522117615,
        -1.0
      ],
      "type": "VEC3"
    },
    {
      "bufferView": 4,
      "componentType": 5126,
      "count": 16645,
      "max": [
        0.9999911785125732,
        0.9998241066932678,
        1.0,
        1.0
      ],
      "min": [
        -0.9985799789428711,
        -0.9989269971847534,
        -0.9999998211860657,
        -1.0
      ],
      "type": "VEC4"
    },
    {
      "bufferView": 2,
      "componentType": 5126,
      "count": 16645,
      "max": [
        0.8617304563522339,
        0.99609375
      ],
      "min": [
        0.00390625,
        0.00390625
      ],
      "type": "VEC2"
    },
    {
      "bufferView": 2,
      "byteOffset": 133160,
      "componentType": 5126,
      "count": 16645,
      "max": [
        0.8617304563522339,
        0.99609375
      ],
      "min": [
        0.00390625,
        0.00390625
      ],
      "type": "VEC2"
    },
    {
      "bufferView": 2,
      "byteOffset": 266320,
      "componentType": 5126,
      "count": 16645,
      "max": [
        0.8617304563522339,
        0.99609375
      ],
      "min": [
        0.00390625,
        0.00390625
      ],
      "type": "VEC2"
    },
    {
      "bufferView": 1,
      "componentType": 5125,
      "count": 21213,
      "type": "SCALAR"
    },
    {
      "bufferView": 5,
      "componentType": 5126,
      "count": 14,
      "max": [
        1.0,
        6.727319487254135e-06,
        7.985288645595556e-12,
        0.0,
        2.478300530128763e-06,
        1.0,
        1.3078465177160381e-12,
        0.0,
        7.298065797523012e-12,
        1.0584426130694213e-12,
        1.0,
        0.0,
        1.9277293682098389,
        1.8350600004196167,
        5.173008617020969e-07,
        1.0
      ],
      "min": [
        -1.3923518054070882e-05,
        -1.4151790310279466e-05,
        0.0,
        0.0,
        -5.213425993133569e-06,
        -4.586702289088862e-06,
        -2.109670944883124e-12,
        0.0,
        -6.944959364540981e-12,
        -7.985288645595556e-12,
        -1.4151788491290063e-05,
        0.0,
        -0.7999639511108398,
        -2.1557891368865967,
        -3.7324755908230145e-07,
        1.0
      ],
      "type": "MAT4"
    },
    {
      "bufferView": 0,
      "componentType": 5123,
      "count": 16645,
      "type": "VEC4"
    },
    {
      "bufferView": 4,
      "byteOffset": 266320,
      "componentType": 5126,
      "count": 16645,
      "max": [
        1.0,
        0.5,
        0.25761210918426514,
        0.1639789342880249
      ],
      "min": [
        0.2945314943790436,
        0.0,
        0.0,
        0.0
      ],
      "type": "VEC4"
    },
    {
      "bufferView": 6,
      "componentType": 5126,
      "count": 42,
      "max": [
        2.125
      ],
      "min": [
        0.0
      ],
      "type": "SCALAR"
    },
    {
      "bufferView": 7,
      "componentType": 5126,
      "count": 42,
      "max": [
        2.2413168210277945e-07,
        3.729615727365854e-08,
        -0.3238329291343689,
        0.9461143016815186
      ],
      "min": [
        2.2100698515714612e-07,
        -1.6845778105789577e-08,
        -0.5414740443229675,
        0.8407174944877625
      ],
      "type": "VEC4"
    },
    {
      "bufferView": 6,
      "byteOffset": 168,
      "componentType": 5126,
      "count": 64,
      "max": [
        2.125
      ],
      "min": [
        0.0
      ],
      "type": "SCALAR"
    },
    {
      "bufferView": 7,
      "byteOffset": 672,
      "componentType": 5126,
      "count": 64,
      "max": [
        -4.9473815266765087e-08,
        -4.588373769820464e-08,
        0.30393412709236145,
        0.9999944567680359
      ],
      "min": [
        -8.610591351043695e-08,
        -8.409450913404726e-08,
        -0.23828044533729553,
        0.9526930451393127
      ],
      "type": "VEC4"
    },
    {
      "bufferView": 6,
      "byteOffset": 424,
      "componentType": 5126,
      "count": 55,
      "max": [
        2.125
      ],
      "min": [
        0.0
      ],
      "type": "SCALAR"
    },
    {
      "bufferView": 7,
      "byteOffset": 1696,
      "componentType": 5126,
      "count": 55,
      "max": [
        -1.1748546313583574e-07,
        -3.568795392538959e-08,
        0.7914454936981201,
        0.7677517533302307
      ],
      "min": [
        -1.2821983830235695e-07,
        -6.253896600583175e-08,
        0.6407474279403687,
        0.6112397313117981
      ],
      "type": "VEC4"
    },
    {
      "bufferView": 6,
      "byteOffset": 644,
      "componentType": 5126,
      "count": 99,
      "max": [
        2.125
      ],
      "min": [
        0.0
      ],
      "type": "SCALAR"
    },
    {
      "bufferView": 7,
      "byteOffset": 2576,
      "componentType": 5126,
      "count": 99,
      "max": [
        -1.6833462268550647e-07,
        -9.805977185806114e-08,
        0.5176302790641785,
        0.9983720779418945
      ],
      "min": [
        -2.424087597319158e-07,
        -2.0010291734706698e-07,
        0.0570371113717556,
        0.8556044101715088
      ],
      "type": "VEC4"
    },
    {
      "bufferView": 6,
      "byteOffset": 1040,
      "componentType": 5126,
      "count": 86,
      "max": [
        2.125
      ],
      "min": [
        0.0
      ],
      "type": "SCALAR"
    },
    {
      "bufferView": 7,
      "byteOffset": 4160,
      "componentType": 5126,
      "count": 86,
      "max": [
        -2.632471876040654e-07,
        1.4015182614457444e-07,
        -0.09876441955566406,
        0.9951108694076538
      ],
      "min": [
        -2.976862276682368e-07,
        1.8014709723956912e-08,
        -0.5035572052001953,
        0.8639618754386902
      ],
      "type": "VEC4"
    }
  ],
  "animations": [
    {
      "channels": [
        {
          "sampler": 0,
          "target": {
            "node": 9,
            "path": "rotation"
          }
        },
        {
          "sampler": 1,
          "target": {
            "node": 12,
            "path": "rotation"
          }
        },
        {
          "sampler": 2,
          "target": {
            "node": 11,
            "path": "rotation"
          }
        },
        {
          "sampler": 3,
          "target": {
            "node": 16,
            "path": "rotation"
          }
        },
        {
          "sampler": 4,
          "target": {
            "node": 18,
            "path": "rotation"
          }
        }
      ],
      "name": "Armature|SwordAnim",
      "samplers": [
        {
          "input": 10,
          "interpolation": "LINEAR",
          "output": 11
        },
        {
          "input": 12,
          "interpolation": "LINEAR",
          "output": 13
        },
        {
          "input": 14,
          "interpolation": "LINEAR",
          "output": 15
        },
        {
          "input": 16,
          "interpolation": "LINEAR",
          "output": 17
        },
        {
          "input": 18,
          "interpolation": "LINEAR",
          "output": 19
        }
      ]
    }
  ],
  "asset": {
    "extras": {
      "author": "nodgerty𓅂 (https://sketchfab.com/nodgert111)",
      "license": "CC-BY-4.0 (http://creativecommons.org/licenses/by/4.0/)",
      "source": "https://sketchfab.com/3d-models/animated-monster-fantasy-sword-free-a8aa82efecaf41aab8daa5753d00a184",
      "title": "Animated Monster Fantasy Sword | FREE"
    },
    "generator": "Sketchfab-17.8.0",
    "version": "2.0"
  },
  "bufferViews": [
    {
      "buffer": 0,
      "byteLength": 133160,
      "byteStride": 8,
      "name": "shortBufferViews",
      "target": 34962
    },
    {
      "buffer": 0,
      "byteLength": 84852,
      "byteOffset": 133160,
      "name": "floatBufferViews",
      "target": 34963
    },
    {
      "buffer": 0,
      "byteLength": 399480,
      "byteOffset": 218012,
      "byteStride": 8,
      "name": "floatBufferViews",
      "target": 34962
    },
    {
      "buffer": 0,
      "byteLength": 399480,
      "byteOffset": 617492,
      "byteStride": 12,
      "name": "floatBufferViews",
      "target": 34962
    },
    {
      "buffer": 0,
      "byteLength": 532640,
      "byteOffset": 1016972,
      "byteStride": 16,
      "name": "floatBufferViews",
      "target": 34962
    },
    {
      "buffer": 0,
      "byteLength": 896,
      "byteOffset": 1549612,
      "name": "floatBufferViews"
    },
    {
      "buffer": 0,
      "byteLength": 1384,
      "byteOffset": 1550508,
      "name": "floatBufferViews"
    },
    {
      "buffer": 0,
      "byteLength": 5536,
      "byteOffset": 1551892,
      "byteStride": 16,
      "name": "floatBufferViews"
    }
  ],
  "buffers": [
    {
      "byteLength": 1557428,
      "uri": "scene.bin"
    }
  ],
  "images": [
    {
      "uri": "textures/Material_baseColor.png"
    },
    {
      "uri": "textures/Material_metallicRoughness.png"
    },
    {
      "uri": "textures/Material_emissive.png"
    },
    {
      "uri": "textures/Material_normal.png"
    }
  ],
  "materials": [
    {
      "doubleSided": true,
      "emissiveFactor": [
        1.0,
        1.0,
        1.0
      ],
      "emissiveTexture": {
        "index": 2
      },
      "name": "Material",
      "normalTexture": {
        "index": 3,
        "texCoord": 1
      },
      "occlusionTexture": {
        "index": 1
      },
      "pbrMetallicRoughness": {
        "baseColorTexture": {
          "index": 0
        },
        "metallicRoughnessTexture": {
          "index": 1
        }
      }
    }
  ],
  "meshes": [
    {
      "name": "handle.005_Material_0",
      "primitives": [
        {
          "attributes": {
            "JOINTS_0": 8,
            "NORMAL": 1,
            "POSITION": 0,
            "TANGENT": 2,
            "TEXCOORD_0": 3,
            "TEXCOORD_1": 4,
            "TEXCOORD_2": 5,
            "WEIGHTS_0": 9
          },
          "indices": 6,
          "material": 0,
          "mode": 4
        }
      ]
    }
  ],
  "nodes": [
    {
      "children": [
        1
      ],
      "matrix": [
        0.835699737071991,
        0.549186646938324,
        1.219439320495228e-16,
        0.0,
        0.0,
        2.220446049250313e-16,
        -1.0,
        0.0,
        -0.549186646938324,
        0.835699737071991,
        1.8556261795410277e-16,
        0.0,
        0.0,
        0.0,
        0.0,
        1.0
      ],
      "name": "Sketchfab_model"
    },
    {
      "children": [
        2
      ],
      "matrix": [
        0.009999999776482582,
        0.0,
        0.0,
        0.0,
        0.0,
        0.0,
        0.009999999776482582,
        0.0,
        0.0,
        -0.009999999776482582,
        0.0,
        0.0,
        0.0,
        0.0,
        0.0,
        1.0
      ],
      "name": "TeethSword.fbx"
    },
    {
      "children": [
        3
      ],
      "name": "Object_2"
    },
    {
      "children": [
        4,
        22
      ],
      "name": "RootNode"
    },
    {
      "children": [
        5
      ],
      "name": "Armature",
      "rotation": [
        -0.7071068286895752,
        0.0,
        0.0,
        0.7071067094802856
      ],
      "scale": [
        100.0,
        100.0,
        100.0
      ]
    },
    {
      "children": [
        6,
        21,
        20
      ],
      "name": "Object_5"
    },
    {
      "children": [
        7
      ],
      "name": "_rootJoint"
    },
    {
      "children": [
        8,
        11,
        14,
        16,
        18
      ],
      "name": "Bone_00",
      "rotation": [
        -0.49999991059303284,
        0.5000000596046448,
        0.49999988079071045,
        0.5000001192092896
      ],
      "scale": [
        1.0,
        0.9999999403953552,
        1.0
      ],
      "translation": [
        -0.10086655616760254,
        -1.6763708288181078e-07,
        1.5828301906585693
      ]
    },
    {
      "children": [
        9
      ],
      "name": "Bone.001_01",
      "rotation": [
        -7.361592224697233e-08,
        1.851902631244684e-08,
        -0.4447547197341919,
        0.8956524133682251
      ],
      "scale": [
        1.0,
        0.9999999403953552,
        1.0
      ],
      "translation": [
        -1.2024195861215503e-08,
        1.0000001192092896,
        -8.526512829121202e-14
      ]
    },
    {
      "children": [
        10
      ],
      "name": "Bone.002_02",
      "rotation": [
        2.2349789219333616e-07,
        -1.68457745530759e-08,
        -0.5414739847183228,
        0.8407174944877625
      ],
      "translation": [
        5.9604435165283576e-08,
        0.19537681341171265,
        2.842170943040401e-14
      ]
    },
    {
      "name": "Bone.002_end_08",
      "rotation": [
        -5.1285197978287716e-23,
        -2.6469779601696886e-23,
        -7.021719829514408e-17,
        1.0
      ],
      "translation": [
        -5.551115123125783e-17,
        0.2521667182445526,
        -5.293955920339377e-23
      ]
    },
    {
      "children": [
        12
      ],
      "name": "Bone.003_03",
      "rotation": [
        -1.2821982409150223e-07,
        -3.568795392538959e-08,
        0.6407474279403687,
        0.7677517533302307
      ],
      "translation": [
        -1.2024195861215503e-08,
        1.0000001192092896,
        -8.526512829121202e-14
      ]
    },
    {
      "children": [
        13
      ],
      "name": "Bone.004_04",
      "rotation": [
        -8.610590640500959e-08,
        -4.588374125091832e-08,
        -0.23828043043613434,
        0.9711964130401611
      ],
      "scale": [
        0.9999999403953552,
        1.0,
        1.0
      ],
      "translation": [
        5.960481530564721e-08,
        0.2600412368774414,
        2.1316282072803006e-14
      ]
    },
    {
      "name": "Bone.004_end_09",
      "rotation": [
        -1.4889251025954498e-23,
        3.943351969502538e-40,
        -2.6484511688406455e-17,
        1.0
      ],
      "translation": [
        5.551115123125783e-17,
        0.18359360098838806,
        0.0
      ]
    },
    {
      "children": [
        15
      ],
      "name": "Bone.005_05",
      "rotation": [
        -1.6473344999212713e-07,
        1.1144648937033708e-07,
        -0.0583590604364872,
        0.9982956647872925
      ],
      "translation": [
        -1.2024195861215503e-08,
        1.0000001192092896,
        -8.526512829121202e-14
      ]
    },
    {
      "name": "Bone.005_end_010",
      "rotation": [
        8.118268510234752e-40,
        -7.940933880509066e-23,
        1.0223319577986819e-17,
        1.0
      ],
      "translation": [
        -2.220446049250313e-16,
        0.3869423568248749,
        0.0
      ]
    },
    {
      "children": [
        17
      ],
      "name": "Bone.006_06",
      "rotation": [
        -2.397627270056546e-07,
        -1.0436264119562111e-07,
        0.08311430364847183,
        0.9965400099754333
      ],
      "scale": [
        0.9999999403953552,
        1.0000001192092896,
        1.0
      ],
      "translation": [
        -1.2024195861215503e-08,
        1.0000001192092896,
        -8.526512829121202e-14
      ]
    },
    {
      "name": "Bone.006_end_011",
      "rotation": [
        2.5034197065162857e-41,
        6.617444900424222e-24,
        -3.78300299803164e-18,
        1.0
      ],
      "translation": [
        0.0,
        0.5421968698501587,
        0.0
      ]
    },
    {
      "children": [
        19
      ],
      "name": "Bone.007_07",
      "rotation": [
        -2.976862276682368e-07,
        1.8014709723956912e-08,
        -0.09876441210508347,
        0.9951108694076538
      ],
      "scale": [
        0.9999999403953552,
        1.0,
        1.0
      ],
      "translation": [
        -1.2024195861215503e-08,
        1.0000001192092896,
        -8.526512829121202e-14
      ]
    },
    {
      "name": "Bone.007_end_012",
      "rotation": [
        -1.3234889800848443e-23,
        1.3234889800848443e-23,
        1.5152925185963433e-18,
        1.0
      ],
      "translation": [
        0.0,
        0.6755213141441345,
        -5.293955920339377e-23
      ]
    },
    {
      "matrix": [
        1.0684304316461338e-10,
        -0.0014151788491290564,
        4.550798504951896e-18,
        0.0,
        -8.493752482529721e-11,
        -4.736121025875726e-18,
        0.000521342644788224,
        0.0,
        -0.0014151789230586846,
        -1.0684304874614644e-10,
        -2.3056198473532206e-10,
        0.0,
        -10.086660773950381,
        155.6860586851828,
        1.6763698984042964e-05,
        1.0
      ],
      "name": "Object_20"
    },
    {
      "mesh": 0,
      "name": "Object_21",
      "skin": 0
    },
    {
      "name": "handle.005",
      "rotation": [
        0.5000000596046448,
        -0.5,
        -0.4999999403953552,
        0.4999999701976776
      ],
      "scale": [
        0.001415178761817515,
        0.0005213426193222404,
        0.001415178761817515
      ],
      "translation": [
        -10.086660385131836,
        155.68605041503906,
        1.67636972037144e-05
      ]
    }
  ],
  "samplers": [
    {
      "magFilter": 9729,
      "minFilter": 9987,
      "wrapS": 10497,
      "wrapT": 10497
    }
  ],
  "scene": 0,
  "scenes": [
    {
      "name": "Sketchfab_Scene",
      "nodes": [
        0
      ]
    }
  ],
  "skins": [
    {
      "inverseBindMatrices": 7,
      "joints": [
        6,
        7,
        8,
        9,
        10,
        11,
        12,
        13,
        14,
        15,
        16,
        17,
        18,
        19
      ],
      "skeleton": 6
    }
  ],
  "textures": [
    {
      "sampler": 0,
      "source": 0
    },
    {
      "sampler": 0,
      "source": 1
    },
    {
      "sampler": 0,
      "source": 2
    },
    {
      "sampler": 0,
      "source": 3
    }
  ]
}
