{
  "accessors": [
    {
      "bufferView": 2,
      "componentType": 5126,
      "count": 7812,
      "max": [
        57.88444137573242,
        239.09716796875,
        10.141837120056152
      ],
      "min": [
        -215.12188720703125,
        -289.3570251464844,
        -10.14187240600586
      ],
      "type": "VEC3"
    },
    {
      "bufferView": 2,
      "byteOffset": 93744,
      "componentType": 5126,
      "count": 7812,
      "max": [
        0.9999963045120239,
        0.9999996423721313,
        1.0
      ],
      "min": [
        -1.0,
        -0.9999997615814209,
        -1.0
      ],
      "type": "VEC3"
    },
    {
      "bufferView": 3,
      "componentType": 5126,
      "count": 7812,
      "max": [
        0.998554527759552,
        0.9999191761016846,
        1.0,
        1.0
      ],
      "min": [
        -0.9999997019767761,
        -0.9998779892921448,
        -1.0,
        -1.0
      ],
      "type": "VEC4"
    },
    {
      "bufferView": 1,
      "componentType": 5126,
      "count": 7812,
      "max": [
        1.0,
        0.9793134927749634
      ],
      "min": [
        -2.9603722140336686e-08,
        -2.7892411935681594e-08
      ],
      "type": "VEC2"
    },
    {
      "bufferView": 1,
      "byteOffset": 62496,
      "componentType": 5126,
      "count": 7812,
      "max": [
        1.0,
        0.9793134927749634
      ],
      "min": [
        -2.9603722140336686e-08,
        -2.7892411935681594e-08
      ],
      "type": "VEC2"
    },
    {
      "bufferView": 0,
      "componentType": 5125,
      "count": 11820,
      "type": "SCALAR"
    }
  ],
  "asset": {
    "extras": {
      "author": "nodgerty (https://sketchfab.com/nodgert111)",
      "license": "CC-BY-4.0 (http://creativecommons.org/licenses/by/4.0/)",
      "source": "https://sketchfab.com/3d-models/free-desolate-devil-scythe-gameready-476cab8e624a4875a8d722b8578ffc93",
      "title": "FREE - Desolate Devil Scythe (GameReady)"
    },
    "generator": "Sketchfab-17.17.0",
    "version": "2.0"
  },
  "bufferViews": [
    {
      "buffer": 0,
      "byteLength": 47280,
      "name": "floatBufferViews",
      "target": 34963
    },
    {
      "buffer": 0,
      "byteLength": 124992,
      "byteOffset": 47280,
      "byteStride": 8,
      "name": "floatBufferViews",
      "target": 34962
    },
    {
      "buffer": 0,
      "byteLength": 187488,
      "byteOffset": 172272,
      "byteStride": 12,
      "name": "floatBufferViews",
      "target": 34962
    },
    {
      "buffer": 0,
      "byteLength": 124992,
      "byteOffset": 359760,
      "byteStride": 16,
      "name": "floatBufferViews",
      "target": 34962
    }
  ],
  "buffers": [
    {
      "byteLength": 484752,
      "uri": "scene.bin"
    }
  ],
  "images": [
    {
      "uri": "textures/Material_baseColor.png"
    },
    {
      "uri": "textures/Material_metallicRoughness.png"
    },
    {
      "uri": "textures/Material_normal.png"
    }
  ],
  "materials": [
    {
      "name": "Material",
      "normalTexture": {
        "index": 2
      },
      "occlusionTexture": {
        "index": 1
      },
      "pbrMetallicRoughness": {
        "baseColorTexture": {
          "index": 0
        },
        "metallicRoughnessTexture": {
          "index": 1
        }
      }
    }
  ],
  "meshes": [
    {
      "name": "DesolatorLP_Material_0",
      "primitives": [
        {
          "attributes": {
            "NORMAL": 1,
            "POSITION": 0,
            "TANGENT": 2,
            "TEXCOORD_0": 3,
            "TEXCOORD_1": 4
          },
          "indices": 5,
          "material": 0,
          "mode": 4
        }
      ]
    }
  ],
  "nodes": [
    {
      "children": [
        1
      ],
      "matrix": [
        0.9215413928031921,
        -0.3287042081356049,
        0.2066759914159774,
        0.0,
        0.05787204951047897,
        -0.4100619554519651,
        -0.9102197885513307,
        0.0,
        0.38394302129745483,
        0.8507660031318666,
        -0.3588662743568419,
        0.0,
        0.0,
        0.0,
        0.0,
        1.0
      ],
      "name": "Sketchfab_model"
    },
    {
      "children": [
        2
      ],
      "matrix": [
        0.009999999776482582,
        0.0,
        0.0,
        0.0,
        0.0,
        0.0,
        0.009999999776482582,
        0.0,
        0.0,
        -0.009999999776482582,
        0.0,
        0.0,
        0.0,
        0.0,
        0.0,
        1.0
      ],
      "name": "Desolator.fbx"
    },
    {
      "children": [
        3
      ],
      "name": "RootNode"
    },
    {
      "children": [
        4
      ],
      "name": "DesolatorLP"
    },
    {
      "mesh": 0,
      "name": "DesolatorLP_Material_0"
    }
  ],
  "samplers": [
    {
      "magFilter": 9729,
      "minFilter": 9987,
      "wrapS": 10497,
      "wrapT": 10497
    }
  ],
  "scene": 0,
  "scenes": [
    {
      "name": "Sketchfab_Scene",
      "nodes": [
        0
      ]
    }
  ],
  "textures": [
    {
      "sampler": 0,
      "source": 0
    },
    {
      "sampler": 0,
      "source": 1
    },
    {
      "sampler": 0,
      "source": 2
    }
  ]
}
