{
  "accessors": [
    {
      "bufferView": 2,
      "componentType": 5126,
      "count": 601,
      "max": [
        22.55381202697754,
        124.54810333251953,
        9.874744415283203
      ],
      "min": [
        -22.55379867553711,
        79.44046020507813,
        -9.615017890930176
      ],
      "type": "VEC3"
    },
    {
      "bufferView": 2,
      "byteOffset": 7212,
      "componentType": 5126,
      "count": 601,
      "max": [
        1.0,
        1.0,
        1.0
      ],
      "min": [
        -1.0,
        -1.0,
        -1.0
      ],
      "type": "VEC3"
    },
    {
      "bufferView": 3,
      "componentType": 5126,
      "count": 601,
      "max": [
        0.9999982714653015,
        0.7596025466918945,
        0.9999996423721313,
        1.0
      ],
      "min": [
        -1.0,
        -0.8052412271499634,
        -1.0,
        1.0
      ],
      "type": "VEC4"
    },
    {
      "bufferView": 1,
      "componentType": 5126,
      "count": 601,
      "max": [
        0.5593947768211365,
        0.4940448999404907
      ],
      "min": [
        0.26467037200927734,
        -1.9686478225366955e-08
      ],
      "type": "VEC2"
    },
    {
      "bufferView": 0,
      "componentType": 5125,
      "count": 2880,
      "type": "SCALAR"
    },
    {
      "bufferView": 2,
      "byteOffset": 14424,
      "componentType": 5126,
      "count": 1232,
      "max": [
        17.365442276000977,
        224.83177185058594,
        6.254472732543945
      ],
      "min": [
        -17.36543846130371,
        195.51353454589844,
        -6.255903720855713
      ],
      "type": "VEC3"
    },
    {
      "bufferView": 2,
      "byteOffset": 29208,
      "componentType": 5126,
      "count": 1232,
      "max": [
        1.0,
        1.0,
        0.9999992847442627
      ],
      "min": [
        -1.0,
        -0.9535421133041382,
        -0.9999992847442627
      ],
      "type": "VEC3"
    },
    {
      "bufferView": 3,
      "byteOffset": 9616,
      "componentType": 5126,
      "count": 1232,
      "max": [
        0.7786633968353271,
        0.9985790848731995,
        0.9999814033508301,
        1.0
      ],
      "min": [
        -0.877282977104187,
        -0.9998065233230591,
        -0.9625451564788818,
        1.0
      ],
      "type": "VEC4"
    },
    {
      "bufferView": 1,
      "byteOffset": 4808,
      "componentType": 5126,
      "count": 1232,
      "max": [
        0.5881820321083069,
        0.6065988540649414
      ],
      "min": [
        0.26467037200927734,
        0.12915228307247162
      ],
      "type": "VEC2"
    },
    {
      "bufferView": 0,
      "byteOffset": 11520,
      "componentType": 5125,
      "count": 4956,
      "type": "SCALAR"
    },
    {
      "bufferView": 2,
      "byteOffset": 43992,
      "componentType": 5126,
      "count": 6849,
      "max": [
        43.27523422241211,
        138.40158081054688,
        13.686715126037598
      ],
      "min": [
        -43.27523422241211,
        -220.40960693359375,
        -12.91999340057373
      ],
      "type": "VEC3"
    },
    {
      "bufferView": 2,
      "byteOffset": 126180,
      "componentType": 5126,
      "count": 6849,
      "max": [
        1.0,
        0.9989154934883118,
        0.9999982118606567
      ],
      "min": [
        -1.0,
        -0.9780362844467163,
        -0.9999983310699463
      ],
      "type": "VEC3"
    },
    {
      "bufferView": 3,
      "byteOffset": 29328,
      "componentType": 5126,
      "count": 6849,
      "max": [
        0.99893718957901,
        0.9558262825012207,
        0.999932050704956,
        1.0
      ],
      "min": [
        -0.9993600249290466,
        -0.9747377634048462,
        -0.9999999403953552,
        -1.0
      ],
      "type": "VEC4"
    },
    {
      "bufferView": 1,
      "byteOffset": 14664,
      "componentType": 5126,
      "count": 6849,
      "max": [
        0.5897831320762634,
        1.0000001192092896
      ],
      "min": [
        -3.191911623900978e-09,
        -4.5548802063422045e-08
      ],
      "type": "VEC2"
    },
    {
      "bufferView": 0,
      "byteOffset": 31344,
      "componentType": 5125,
      "count": 29226,
      "type": "SCALAR"
    },
    {
      "bufferView": 2,
      "byteOffset": 208368,
      "componentType": 5126,
      "count": 1097,
      "max": [
        8.900671005249023,
        203.80825805664063,
        8.875823020935059
      ],
      "min": [
        -8.901041984558105,
        118.20579528808594,
        -8.867057800292969
      ],
      "type": "VEC3"
    },
    {
      "bufferView": 2,
      "byteOffset": 221532,
      "componentType": 5126,
      "count": 1097,
      "max": [
        0.9949948787689209,
        0.9998235702514648,
        0.9996367692947388
      ],
      "min": [
        -0.9997610449790955,
        -0.9948444962501526,
        -0.9941971302032471
      ],
      "type": "VEC3"
    },
    {
      "bufferView": 3,
      "byteOffset": 138912,
      "componentType": 5126,
      "count": 1097,
      "max": [
        0.9995095729827881,
        0.8843675255775452,
        0.9988959431648254,
        1.0
      ],
      "min": [
        -0.9996092319488525,
        -0.9994762539863586,
        -0.9991039633750916,
        1.0
      ],
      "type": "VEC4"
    },
    {
      "bufferView": 1,
      "byteOffset": 69456,
      "componentType": 5126,
      "count": 1097,
      "max": [
        0.5874044299125671,
        0.5962258577346802
      ],
      "min": [
        0.3048658072948456,
        -1.1958357859498392e-08
      ],
      "type": "VEC2"
    },
    {
      "bufferView": 0,
      "byteOffset": 148248,
      "componentType": 5125,
      "count": 4350,
      "type": "SCALAR"
    }
  ],
  "asset": {
    "extras": {
      "author": "nodgerty𓅂 (https://sketchfab.com/nodgert111)",
      "license": "CC-BY-4.0 (http://creativecommons.org/licenses/by/4.0/)",
      "source": "https://sketchfab.com/3d-models/abyssal-heart-runic-demon-sword-free-8451abd539694fb2a87ffe3a274c58a4",
      "title": "Abyssal Heart - Runic Demon Sword [FREE]"
    },
    "generator": "Sketchfab-17.8.0",
    "version": "2.0"
  },
  "bufferViews": [
    {
      "buffer": 0,
      "byteLength": 165648,
      "name": "floatBufferViews",
      "target": 34963
    },
    {
      "buffer": 0,
      "byteLength": 78232,
      "byteOffset": 165648,
      "byteStride": 8,
      "name": "floatBufferViews",
      "target": 34962
    },
    {
      "buffer": 0,
      "byteLength": 234696,
      "byteOffset": 243880,
      "byteStride": 12,
      "name": "floatBufferViews",
      "target": 34962
    },
    {
      "buffer": 0,
      "byteLength": 156464,
      "byteOffset": 478576,
      "byteStride": 16,
      "name": "floatBufferViews",
      "target": 34962
    }
  ],
  "buffers": [
    {
      "byteLength": 635040,
      "uri": "scene.bin"
    }
  ],
  "extensionsUsed": [
    "KHR_materials_emissive_strength",
    "KHR_materials_clearcoat"
  ],
  "images": [
    {
      "uri": "textures/Material.003_baseColor.png"
    },
    {
      "uri": "textures/Material.003_metallicRoughness.png"
    },
    {
      "uri": "textures/Material.003_emissive.png"
    },
    {
      "uri": "textures/Material.003_normal.png"
    },
    {
      "uri": "textures/material_baseColor.png"
    },
    {
      "uri": "textures/material_metallicRoughness.png"
    },
    {
      "uri": "textures/material_normal.png"
    },
    {
      "uri": "textures/Material.002_baseColor.png"
    },
    {
      "uri": "textures/Material.002_metallicRoughness.png"
    },
    {
      "uri": "textures/Material.002_normal.png"
    },
    {
      "uri": "textures/Material.001_baseColor.png"
    },
    {
      "uri": "textures/Material.001_metallicRoughness.png"
    },
    {
      "uri": "textures/Material.001_normal.png"
    }
  ],
  "materials": [
    {
      "doubleSided": true,
      "emissiveFactor": [
        1.0,
        1.0,
        1.0
      ],
      "emissiveTexture": {
        "index": 2
      },
      "extensions": {
        "KHR_materials_emissive_strength": {
          "emissiveStrength": 3.0
        }
      },
      "name": "Material.003",
      "normalTexture": {
        "index": 3
      },
      "occlusionTexture": {
        "index": 1
      },
      "pbrMetallicRoughness": {
        "baseColorTexture": {
          "index": 0
        },
        "metallicRoughnessTexture": {
          "index": 1
        },
        "roughnessFactor": 0.0
      }
    },
    {
      "doubleSided": true,
      "name": "material",
      "normalTexture": {
        "index": 6
      },
      "occlusionTexture": {
        "index": 5
      },
      "pbrMetallicRoughness": {
        "baseColorTexture": {
          "index": 4
        },
        "metallicRoughnessTexture": {
          "index": 5
        }
      }
    },
    {
      "doubleSided": true,
      "extensions": {
        "KHR_materials_clearcoat": {
          "clearcoatFactor": 1.0,
          "clearcoatRoughnessFactor": 0.04
        }
      },
      "name": "Material.002",
      "normalTexture": {
        "index": 9
      },
      "occlusionTexture": {
        "index": 8
      },
      "pbrMetallicRoughness": {
        "baseColorTexture": {
          "index": 7
        },
        "metallicRoughnessTexture": {
          "index": 8
        }
      }
    },
    {
      "doubleSided": true,
      "name": "Material.001",
      "normalTexture": {
        "index": 12
      },
      "occlusionTexture": {
        "index": 11
      },
      "pbrMetallicRoughness": {
        "baseColorTexture": {
          "index": 10
        },
        "metallicRoughnessTexture": {
          "index": 11
        }
      }
    }
  ],
  "meshes": [
    {
      "name": "Sphere_Material.003_0",
      "primitives": [
        {
          "attributes": {
            "NORMAL": 1,
            "POSITION": 0,
            "TANGENT": 2,
            "TEXCOORD_0": 3
          },
          "indices": 4,
          "material": 0,
          "mode": 4
        }
      ]
    },
    {
      "name": "Sphere_Eye_0",
      "primitives": [
        {
          "attributes": {
            "NORMAL": 6,
            "POSITION": 5,
            "TANGENT": 7,
            "TEXCOORD_0": 8
          },
          "indices": 9,
          "material": 1,
          "mode": 4
        }
      ]
    },
    {
      "name": "Sphere_Material.002_0",
      "primitives": [
        {
          "attributes": {
            "NORMAL": 11,
            "POSITION": 10,
            "TANGENT": 12,
            "TEXCOORD_0": 13
          },
          "indices": 14,
          "material": 2,
          "mode": 4
        }
      ]
    },
    {
      "name": "Sphere_Material.001_0",
      "primitives": [
        {
          "attributes": {
            "NORMAL": 16,
            "POSITION": 15,
            "TANGENT": 17,
            "TEXCOORD_0": 18
          },
          "indices": 19,
          "material": 3,
          "mode": 4
        }
      ]
    }
  ],
  "nodes": [
    {
      "children": [
        1
      ],
      "matrix": [
        -2.220446049250313e-16,
        -1.0,
        -1.1102230246251565e-16,
        0.0,
        -1.0,
        1.1102230246251565e-16,
        2.465190328815662e-32,
        0.0,
        1.1102230246251565e-16,
        0.0,
        -1.0,
        0.0,
        0.0,
        0.0,
        0.0,
        1.0
      ],
      "name": "Sketchfab_model"
    },
    {
      "children": [
        2
      ],
      "matrix": [
        0.009999999776482582,
        0.0,
        0.0,
        0.0,
        0.0,
        0.0,
        0.009999999776482582,
        0.0,
        0.0,
        -0.009999999776482582,
        0.0,
        0.0,
        0.0,
        0.0,
        0.0,
        1.0
      ],
      "name": "redSword.fbx"
    },
    {
      "children": [
        3
      ],
      "name": "RootNode"
    },
    {
      "children": [
        4,
        5,
        6,
        7
      ],
      "name": "Sphere"
    },
    {
      "mesh": 0,
      "name": "Sphere_Material.003_0"
    },
    {
      "mesh": 1,
      "name": "Sphere_Eye_0"
    },
    {
      "mesh": 2,
      "name": "Sphere_Material.002_0"
    },
    {
      "mesh": 3,
      "name": "Sphere_Material.001_0"
    }
  ],
  "samplers": [
    {
      "magFilter": 9729,
      "minFilter": 9987,
      "wrapS": 10497,
      "wrapT": 10497
    }
  ],
  "scene": 0,
  "scenes": [
    {
      "name": "Sketchfab_Scene",
      "nodes": [
        0
      ]
    }
  ],
  "textures": [
    {
      "sampler": 0,
      "source": 0
    },
    {
      "sampler": 0,
      "source": 1
    },
    {
      "sampler": 0,
      "source": 2
    },
    {
      "sampler": 0,
      "source": 3
    },
    {
      "sampler": 0,
      "source": 4
    },
    {
      "sampler": 0,
      "source": 5
    },
    {
      "sampler": 0,
      "source": 6
    },
    {
      "sampler": 0,
      "source": 7
    },
    {
      "sampler": 0,
      "source": 8
    },
    {
      "sampler": 0,
      "source": 9
    },
    {
      "sampler": 0,
      "source": 10
    },
    {
      "sampler": 0,
      "source": 11
    },
    {
      "sampler": 0,
      "source": 12
    }
  ]
}
