{
  "accessors": [
    {
      "bufferView": 2,
      "componentType": 5126,
      "count": 19110,
      "max": [
        64.59408569335938,
        6.843826770782471,
        3.7142059803009033
      ],
      "min": [
        45.710384368896484,
        1.7176799774169922,
        -3.6327641010284424
      ],
      "type": "VEC3"
    },
    {
      "bufferView": 2,
      "byteOffset": 229320,
      "componentType": 5126,
      "count": 19110,
      "max": [
        0.9999991655349731,
        0.9999995231628418,
        0.9999992847442627
      ],
      "min": [
        -0.9999991655349731,
        -0.9999991655349731,
        -0.9999993443489075
      ],
      "type": "VEC3"
    },
    {
      "bufferView": 3,
      "componentType": 5126,
      "count": 19110,
      "max": [
        0.9999996423721313,
        0.9999995827674866,
        1.0,
        1.0
      ],
      "min": [
        -0.9999997019767761,
        -0.9999957084655762,
        -1.0,
        -1.0
      ],
      "type": "VEC4"
    },
    {
      "bufferView": 1,
      "componentType": 5126,
      "count": 19110,
      "max": [
        0.9960939884185791,
        0.9952769875526428
      ],
      "min": [
        -0.9931640028953552,
        0.007323999889194965
      ],
      "type": "VEC2"
    },
    {
      "bufferView": 1,
      "byteOffset": 152880,
      "componentType": 5126,
      "count": 19110,
      "max": [
        0.9960939884185791,
        0.9952769875526428
      ],
      "min": [
        -0.9931640028953552,
        0.007323999889194965
      ],
      "type": "VEC2"
    },
    {
      "bufferView": 0,
      "componentType": 5125,
      "count": 19110,
      "type": "SCALAR"
    },
    {
      "bufferView": 2,
      "byteOffset": 458640,
      "componentType": 5126,
      "count": 31475,
      "max": [
        86.56327056884766,
        11.173507690429688,
        2.446100950241089
      ],
      "min": [
        -6.241996765136719,
        -5.577877998352051,
        -2.3371729850769043
      ],
      "type": "VEC3"
    },
    {
      "bufferView": 2,
      "byteOffset": 836340,
      "componentType": 5126,
      "count": 31475,
      "max": [
        0.9999992251396179,
        0.9999996423721313,
        0.9999992251396179
      ],
      "min": [
        -0.9999991655349731,
        -0.9999995827674866,
        -0.9999992847442627
      ],
      "type": "VEC3"
    },
    {
      "bufferView": 3,
      "byteOffset": 305760,
      "componentType": 5126,
      "count": 31475,
      "max": [
        1.0,
        0.9999996423721313,
        1.0,
        1.0
      ],
      "min": [
        -1.0,
        -0.9999995827674866,
        -1.0,
        -1.0
      ],
      "type": "VEC4"
    },
    {
      "bufferView": 1,
      "byteOffset": 305760,
      "componentType": 5126,
      "count": 31475,
      "max": [
        1.9902340173721313,
        0.9964079856872559
      ],
      "min": [
        0.0034539999905973673,
        0.0034179999493062496
      ],
      "type": "VEC2"
    },
    {
      "bufferView": 1,
      "byteOffset": 557560,
      "componentType": 5126,
      "count": 31475,
      "max": [
        1.9902340173721313,
        0.9964079856872559
      ],
      "min": [
        0.0034539999905973673,
        0.0034179999493062496
      ],
      "type": "VEC2"
    },
    {
      "bufferView": 0,
      "byteOffset": 76440,
      "componentType": 5125,
      "count": 31476,
      "type": "SCALAR"
    },
    {
      "bufferView": 2,
      "byteOffset": 1214040,
      "componentType": 5126,
      "count": 9884,
      "max": [
        -3.285551071166992,
        12.675838470458984,
        2.223383903503418
      ],
      "min": [
        -29.29888916015625,
        -3.814491033554077,
        -2.086556911468506
      ],
      "type": "VEC3"
    },
    {
      "bufferView": 2,
      "byteOffset": 1332648,
      "componentType": 5126,
      "count": 9884,
      "max": [
        0.9999996423721313,
        0.9999996423721313,
        0.9999991655349731
      ],
      "min": [
        -0.9999996423721313,
        -0.9999996423721313,
        -0.9999991655349731
      ],
      "type": "VEC3"
    },
    {
      "bufferView": 3,
      "byteOffset": 809360,
      "componentType": 5126,
      "count": 9884,
      "max": [
        1.0,
        0.9999995827674866,
        1.0,
        1.0
      ],
      "min": [
        -1.0,
        -0.9999995827674866,
        -1.0,
        -1.0
      ],
      "type": "VEC4"
    },
    {
      "bufferView": 1,
      "byteOffset": 809360,
      "componentType": 5126,
      "count": 9884,
      "max": [
        1.9980469942092896,
        0.996599018573761
      ],
      "min": [
        0.0029200001154094934,
        0.004883000161498785
      ],
      "type": "VEC2"
    },
    {
      "bufferView": 1,
      "byteOffset": 888432,
      "componentType": 5126,
      "count": 9884,
      "max": [
        1.9980469942092896,
        0.996599018573761
      ],
      "min": [
        0.0029200001154094934,
        0.004883000161498785
      ],
      "type": "VEC2"
    },
    {
      "bufferView": 0,
      "byteOffset": 202344,
      "componentType": 5125,
      "count": 9888,
      "type": "SCALAR"
    },
    {
      "bufferView": 2,
      "byteOffset": 1451256,
      "componentType": 5126,
      "count": 8748,
      "max": [
        24.68365478515625,
        12.3643798828125,
        4.919713020324707
      ],
      "min": [
        1.8707430362701416,
        1.2793879508972168,
        -1.6514569520950317
      ],
      "type": "VEC3"
    },
    {
      "bufferView": 2,
      "byteOffset": 1556232,
      "componentType": 5126,
      "count": 8748,
      "max": [
        1.0,
        1.0,
        1.0
      ],
      "min": [
        -1.0,
        -1.0,
        -1.0
      ],
      "type": "VEC3"
    },
    {
      "bufferView": 3,
      "byteOffset": 967504,
      "componentType": 5126,
      "count": 8748,
      "max": [
        1.0,
        1.0,
        1.0,
        1.0
      ],
      "min": [
        -1.0,
        -1.0,
        -1.0,
        -1.0
      ],
      "type": "VEC4"
    },
    {
      "bufferView": 1,
      "byteOffset": 967504,
      "componentType": 5126,
      "count": 8748,
      "max": [
        0.9975590109825134,
        0.9952660202980042
      ],
      "min": [
        -0.9902340173721313,
        0.002440999960526824
      ],
      "type": "VEC2"
    },
    {
      "bufferView": 1,
      "byteOffset": 1037488,
      "componentType": 5126,
      "count": 8748,
      "max": [
        0.9975590109825134,
        0.9952660202980042
      ],
      "min": [
        -0.9902340173721313,
        0.002440999960526824
      ],
      "type": "VEC2"
    },
    {
      "bufferView": 0,
      "byteOffset": 241896,
      "componentType": 5125,
      "count": 31929,
      "type": "SCALAR"
    },
    {
      "bufferView": 2,
      "byteOffset": 1661208,
      "componentType": 5126,
      "count": 31430,
      "max": [
        21.903762817382813,
        6.000345230102539,
        2.872981071472168
      ],
      "min": [
        -12.88776683807373,
        -1.1408580541610718,
        -3.640221118927002
      ],
      "type": "VEC3"
    },
    {
      "bufferView": 2,
      "byteOffset": 2038368,
      "componentType": 5126,
      "count": 31430,
      "max": [
        0.9999991655349731,
        0.9999991059303284,
        0.9999991655349731
      ],
      "min": [
        -0.9999991655349731,
        -0.9999992251396179,
        -0.9999991655349731
      ],
      "type": "VEC3"
    },
    {
      "bufferView": 3,
      "byteOffset": 1107472,
      "componentType": 5126,
      "count": 31430,
      "max": [
        1.0,
        0.9999995827674866,
        1.0,
        1.0
      ],
      "min": [
        -1.0,
        -0.999999463558197,
        -1.0,
        -1.0
      ],
      "type": "VEC4"
    },
    {
      "bufferView": 1,
      "byteOffset": 1107472,
      "componentType": 5126,
      "count": 31430,
      "max": [
        1.9931639432907104,
        0.9929770231246948
      ],
      "min": [
        0.0024759999942034483,
        0.002440999960526824
      ],
      "type": "VEC2"
    },
    {
      "bufferView": 1,
      "byteOffset": 1358912,
      "componentType": 5126,
      "count": 31430,
      "max": [
        1.9931639432907104,
        0.9929770231246948
      ],
      "min": [
        0.0024759999942034483,
        0.002440999960526824
      ],
      "type": "VEC2"
    },
    {
      "bufferView": 0,
      "byteOffset": 369612,
      "componentType": 5125,
      "count": 31431,
      "type": "SCALAR"
    }
  ],
  "asset": {
    "extras": {
      "author": "trolosqlfod (https://sketchfab.com/trolosqlfod)",
      "license": "CC-BY-4.0 (http://creativecommons.org/licenses/by/4.0/)",
      "source": "https://sketchfab.com/3d-models/sniper-rifle-futuristic-b00986dc8fe649319d3e934a288c3bb9",
      "title": "Sniper Rifle Futuristic"
    },
    "generator": "Sketchfab-12.82.3",
    "version": "2.0"
  },
  "bufferViews": [
    {
      "buffer": 0,
      "byteLength": 495336,
      "name": "floatBufferViews",
      "target": 34963
    },
    {
      "buffer": 0,
      "byteLength": 1610352,
      "byteOffset": 495336,
      "byteStride": 8,
      "name": "floatBufferViews",
      "target": 34962
    },
    {
      "buffer": 0,
      "byteLength": 2415528,
      "byteOffset": 2105688,
      "byteStride": 12,
      "name": "floatBufferViews",
      "target": 34962
    },
    {
      "buffer": 0,
      "byteLength": 1610352,
      "byteOffset": 4521216,
      "byteStride": 16,
      "name": "floatBufferViews",
      "target": 34962
    }
  ],
  "buffers": [
    {
      "byteLength": 6131568,
      "uri": "scene.bin"
    }
  ],
  "images": [
    {
      "uri": "textures/mtl_wpn_h1_sni_m21_bipod_baseColor.png"
    },
    {
      "uri": "textures/mtl_wpn_h1_sni_m21_bipod_normal.png"
    },
    {
      "uri": "textures/mtl_wpn_h1_sni_m40a3_asn_receiver_camo_baseColor.png"
    },
    {
      "uri": "textures/mtl_wpn_h1_sni_m40a3_asn_receiver_camo_normal.png"
    },
    {
      "uri": "textures/mtl_wpn_h1_sni_m40a3_asn_stock_camo_baseColor.png"
    },
    {
      "uri": "textures/mtl_wpn_h1_sni_m40a3_asn_stock_camo_normal.png"
    },
    {
      "uri": "textures/mtl_wpn_h1_sni_m40a3_receiver_camo_baseColor.png"
    },
    {
      "uri": "textures/mtl_wpn_h1_sni_m40a3_receiver_camo_normal.png"
    },
    {
      "uri": "textures/mtl_wpn_h1_sticker_placeholder_baseColor.png"
    },
    {
      "uri": "textures/mtl_wpn_h1_sticker_placeholder_normal.png"
    }
  ],
  "materials": [
    {
      "doubleSided": true,
      "name": "mtl_wpn_h1_sni_m21_bipod",
      "normalTexture": {
        "index": 1
      },
      "pbrMetallicRoughness": {
        "baseColorTexture": {
          "index": 0
        },
        "roughnessFactor": 0.552786
      }
    },
    {
      "doubleSided": true,
      "name": "mtl_wpn_h1_sni_m40a3_asn_receiver_camo",
      "normalTexture": {
        "index": 3,
        "texCoord": 1
      },
      "pbrMetallicRoughness": {
        "baseColorTexture": {
          "index": 2
        },
        "roughnessFactor": 0.534605
      }
    },
    {
      "doubleSided": true,
      "name": "mtl_wpn_h1_sni_m40a3_asn_stock_camo",
      "normalTexture": {
        "index": 5
      },
      "pbrMetallicRoughness": {
        "baseColorTexture": {
          "index": 4
        },
        "roughnessFactor": 0.552786
      }
    },
    {
      "doubleSided": true,
      "name": "mtl_wpn_h1_sni_m40a3_receiver_camo",
      "normalTexture": {
        "index": 7,
        "texCoord": 1
      },
      "pbrMetallicRoughness": {
        "baseColorTexture": {
          "index": 6
        },
        "roughnessFactor": 0.552786
      }
    },
    {
      "doubleSided": true,
      "name": "mtl_wpn_h1_sticker_placeholder",
      "normalTexture": {
        "index": 9,
        "texCoord": 1
      },
      "pbrMetallicRoughness": {
        "baseColorTexture": {
          "index": 8
        },
        "metallicFactor": 0.4007631261352415,
        "roughnessFactor": 0.552786
      }
    }
  ],
  "meshes": [
    {
      "name": "Object_0",
      "primitives": [
        {
          "attributes": {
            "NORMAL": 1,
            "POSITION": 0,
            "TANGENT": 2,
            "TEXCOORD_0": 3,
            "TEXCOORD_1": 4
          },
          "indices": 5,
          "material": 0,
          "mode": 4
        }
      ]
    },
    {
      "name": "Object_1",
      "primitives": [
        {
          "attributes": {
            "NORMAL": 7,
            "POSITION": 6,
            "TANGENT": 8,
            "TEXCOORD_0": 9,
            "TEXCOORD_1": 10
          },
          "indices": 11,
          "material": 1,
          "mode": 4
        }
      ]
    },
    {
      "name": "Object_2",
      "primitives": [
        {
          "attributes": {
            "NORMAL": 13,
            "POSITION": 12,
            "TANGENT": 14,
            "TEXCOORD_0": 15,
            "TEXCOORD_1": 16
          },
          "indices": 17,
          "material": 2,
          "mode": 4
        }
      ]
    },
    {
      "name": "Object_3",
      "primitives": [
        {
          "attributes": {
            "NORMAL": 19,
            "POSITION": 18,
            "TANGENT": 20,
            "TEXCOORD_0": 21,
            "TEXCOORD_1": 22
          },
          "indices": 23,
          "material": 3,
          "mode": 4
        }
      ]
    },
    {
      "name": "Object_4",
      "primitives": [
        {
          "attributes": {
            "NORMAL": 25,
            "POSITION": 24,
            "TANGENT": 26,
            "TEXCOORD_0": 27,
            "TEXCOORD_1": 28
          },
          "indices": 29,
          "material": 4,
          "mode": 4
        }
      ]
    }
  ],
  "nodes": [
    {
      "children": [
        1
      ],
      "matrix": [
        1.0,
        0.0,
        0.0,
        0.0,
        0.0,
        2.220446049250313e-16,
        -1.0,
        0.0,
        0.0,
        1.0,
        2.220446049250313e-16,
        0.0,
        0.0,
        0.0,
        0.0,
        1.0
      ],
      "name": "Sketchfab_model"
    },
    {
      "children": [
        2
      ],
      "name": "root"
    },
    {
      "children": [
        3,
        12
      ],
      "matrix": [
        1.0,
        0.0,
        0.0,
        0.0,
        0.0,
        2.220446049250313e-16,
        1.0,
        0.0,
        0.0,
        -1.0,
        2.220446049250313e-16,
        0.0,
        0.0,
        0.0,
        0.0,
        1.0
      ],
      "name": "GLTF_SceneRootNode"
    },
    {
      "children": [
        4,
        6,
        8,
        10
      ],
      "matrix": [
        1.0,
        0.0,
        0.0,
        0.0,
        0.0,
        1.0,
        0.0,
        0.0,
        0.0,
        0.0,
        1.0,
        0.0,
        0.0,
        0.19693249464035034,
        -1.5799914598464966,
        1.0
      ],
      "name": "wpn_h1_sni_m40a3_furniture_asn_01_patch_vm_camo_LOD0_8"
    },
    {
      "children": [
        5
      ],
      "name": "mtl_wpn_h1_sni_m21_bipod_1"
    },
    {
      "mesh": 0,
      "name": "Object_5"
    },
    {
      "children": [
        7
      ],
      "name": "mtl_wpn_h1_sni_m40a3_asn_receiver_camo_3"
    },
    {
      "mesh": 1,
      "name": "Object_7"
    },
    {
      "children": [
        9
      ],
      "name": "mtl_wpn_h1_sni_m40a3_asn_stock_camo_5"
    },
    {
      "mesh": 2,
      "name": "Object_9"
    },
    {
      "children": [
        11
      ],
      "name": "mtl_wpn_h1_sni_m40a3_receiver_camo_7"
    },
    {
      "mesh": 3,
      "name": "Object_11"
    },
    {
      "children": [
        13
      ],
      "matrix": [
        1.0,
        0.0,
        0.0,
        0.0,
        0.0,
        1.0,
        0.0,
        0.0,
        0.0,
        0.0,
        1.0,
        0.0,
        16.162832260131836,
        12.676239967346191,
        1.5799909830093384,
        1.0
      ],
      "name": "attach_h1_scope_m40a3_furniture_asn_01_patch_vm_camo_LOD0_11"
    },
    {
      "children": [
        14
      ],
      "matrix": [
        1.0,
        0.0,
        0.0,
        0.0,
        0.0,
        1.0,
        0.0,
        0.0,
        0.0,
        0.0,
        1.0,
        0.0,
        0.0,
        0.1491374969482422,
        -3.1608970165252686,
        1.0
      ],
      "name": "mtl_wpn_h1_sni_m40a3_asn_scope_10"
    },
    {
      "mesh": 4,
      "name": "Object_14"
    }
  ],
  "samplers": [
    {
      "magFilter": 9729,
      "minFilter": 9987,
      "wrapS": 10497,
      "wrapT": 10497
    }
  ],
  "scene": 0,
  "scenes": [
    {
      "name": "Sketchfab_Scene",
      "nodes": [
        0
      ]
    }
  ],
  "textures": [
    {
      "sampler": 0,
      "source": 0
    },
    {
      "sampler": 0,
      "source": 1
    },
    {
      "sampler": 0,
      "source": 2
    },
    {
      "sampler": 0,
      "source": 3
    },
    {
      "sampler": 0,
      "source": 4
    },
    {
      "sampler": 0,
      "source": 5
    },
    {
      "sampler": 0,
      "source": 6
    },
    {
      "sampler": 0,
      "source": 7
    },
    {
      "sampler": 0,
      "source": 8
    },
    {
      "sampler": 0,
      "source": 9
    }
  ]
}
