{
  "accessors": [
    {
      "bufferView": 2,
      "componentType": 5126,
      "count": 799,
      "max": [
        1.0,
        1.0,
        1.0
      ],
      "min": [
        -1.0,
        -1.0,
        -1.0
      ],
      "type": "VEC3"
    },
    {
      "bufferView": 2,
      "byteOffset": 9588,
      "componentType": 5126,
      "count": 799,
      "max": [
        1.0,
        1.0,
        1.0
      ],
      "min": [
        -1.0,
        -1.0,
        -1.0
      ],
      "type": "VEC3"
    },
    {
      "bufferView": 1,
      "componentType": 5126,
      "count": 799,
      "max": [
        0.9986513257026672,
        0.7723815441131592
      ],
      "min": [
        0.0019073503790423274,
        0.0019073502626270056
      ],
      "type": "VEC2"
    },
    {
      "bufferView": 0,
      "componentType": 5125,
      "count": 4020,
      "type": "SCALAR"
    },
    {
      "bufferView": 2,
      "byteOffset": 19176,
      "componentType": 5126,
      "count": 518,
      "max": [
        0.04391675069928169,
        0.015000272542238235,
        0.21019120514392853
      ],
      "min": [
        -0.03688231483101845,
        -0.015000272542238235,
        -0.20025771856307983
      ],
      "type": "VEC3"
    },
    {
      "bufferView": 2,
      "byteOffset": 25392,
      "componentType": 5126,
      "count": 518,
      "max": [
        1.0,
        1.0,
        1.0
      ],
      "min": [
        -1.0,
        -1.0,
        -1.0
      ],
      "type": "VEC3"
    },
    {
      "bufferView": 1,
      "byteOffset": 6392,
      "componentType": 5126,
      "count": 518,
      "max": [
        0.6066909432411194,
        1.0951967239379883
      ],
      "min": [
        0.4196760654449463,
        0.14518514275550842
      ],
      "type": "VEC2"
    },
    {
      "bufferView": 1,
      "byteOffset": 10536,
      "componentType": 5126,
      "count": 518,
      "max": [
        0.5241981744766235,
        0.9950495362281799
      ],
      "min": [
        0.0009366567828692496,
        0.0003603624936658889
      ],
      "type": "VEC2"
    },
    {
      "bufferView": 0,
      "byteOffset": 16080,
      "componentType": 5125,
      "count": 1584,
      "type": "SCALAR"
    },
    {
      "bufferView": 2,
      "byteOffset": 31608,
      "componentType": 5126,
      "count": 144,
      "max": [
        0.01191518921405077,
        0.015000272542238235,
        -0.1135321632027626
      ],
      "min": [
        -0.012504886835813522,
        -0.015000272542238235,
        -0.1379532814025879
      ],
      "type": "VEC3"
    },
    {
      "bufferView": 2,
      "byteOffset": 33336,
      "componentType": 5126,
      "count": 144,
      "max": [
        0.9200855493545532,
        0.7132031321525574,
        0.9197288751602173
      ],
      "min": [
        -0.9197881817817688,
        -0.7132037878036499,
        -0.9197267293930054
      ],
      "type": "VEC3"
    },
    {
      "bufferView": 1,
      "byteOffset": 14680,
      "componentType": 5126,
      "count": 144,
      "max": [
        0.5150378346443176,
        0.842129111289978
      ],
      "min": [
        0.05720771104097366,
        0.14594684541225433
      ],
      "type": "VEC2"
    },
    {
      "bufferView": 1,
      "byteOffset": 15832,
      "componentType": 5126,
      "count": 144,
      "max": [
        0.5150378346443176,
        0.842129111289978
      ],
      "min": [
        0.05720771104097366,
        0.14594684541225433
      ],
      "type": "VEC2"
    },
    {
      "bufferView": 0,
      "byteOffset": 22416,
      "componentType": 5125,
      "count": 384,
      "type": "SCALAR"
    },
    {
      "bufferView": 2,
      "byteOffset": 35064,
      "componentType": 5126,
      "count": 2656,
      "max": [
        0.11146293580532074,
        0.05000564455986023,
        0.5571191310882568
      ],
      "min": [
        -0.19784200191497803,
        -0.05000564455986023,
        -0.6933942437171936
      ],
      "type": "VEC3"
    },
    {
      "bufferView": 2,
      "byteOffset": 66936,
      "componentType": 5126,
      "count": 2656,
      "max": [
        1.0,
        1.0,
        1.0
      ],
      "min": [
        -1.0,
        -1.0,
        -1.0
      ],
      "type": "VEC3"
    },
    {
      "bufferView": 1,
      "byteOffset": 16984,
      "componentType": 5126,
      "count": 2656,
      "max": [
        0.7914192080497742,
        0.9950494766235352
      ],
      "min": [
        0.0010385916102677584,
        0.000848923169542104
      ],
      "type": "VEC2"
    },
    {
      "bufferView": 1,
      "byteOffset": 38232,
      "componentType": 5126,
      "count": 2656,
      "max": [
        0.6402519941329956,
        1.2244277000427246
      ],
      "min": [
        0.3366064429283142,
        -0.016147136688232422
      ],
      "type": "VEC2"
    },
    {
      "bufferView": 0,
      "byteOffset": 23952,
      "componentType": 5125,
      "count": 8664,
      "type": "SCALAR"
    },
    {
      "bufferView": 2,
      "byteOffset": 98808,
      "componentType": 5126,
      "count": 1848,
      "max": [
        0.3948807120323181,
        0.3948807120323181,
        0.0945732370018959
      ],
      "min": [
        -0.39488089084625244,
        -0.39488178491592407,
        -1.9245250225067139
      ],
      "type": "VEC3"
    },
    {
      "bufferView": 2,
      "byteOffset": 120984,
      "componentType": 5126,
      "count": 1848,
      "max": [
        1.0,
        1.0,
        0.99970543384552
      ],
      "min": [
        -1.0,
        -1.0,
        -0.9997057914733887
      ],
      "type": "VEC3"
    },
    {
      "bufferView": 0,
      "byteOffset": 58608,
      "componentType": 5125,
      "count": 10908,
      "type": "SCALAR"
    },
    {
      "bufferView": 2,
      "byteOffset": 143160,
      "componentType": 5126,
      "count": 258,
      "max": [
        0.030488384887576103,
        0.019999777898192406,
        0.11822512745857239
      ],
      "min": [
        -0.0299002043902874,
        -0.02000025287270546,
        -0.1405181735754013
      ],
      "type": "VEC3"
    },
    {
      "bufferView": 2,
      "byteOffset": 146256,
      "componentType": 5126,
      "count": 258,
      "max": [
        1.0,
        1.0,
        1.0
      ],
      "min": [
        -1.0,
        -1.0,
        -1.0
      ],
      "type": "VEC3"
    },
    {
      "bufferView": 1,
      "byteOffset": 59480,
      "componentType": 5126,
      "count": 258,
      "max": [
        0.7861016988754272,
        0.9950494766235352
      ],
      "min": [
        0.0009281369275413454,
        0.0007483551162295043
      ],
      "type": "VEC2"
    },
    {
      "bufferView": 1,
      "byteOffset": 61544,
      "componentType": 5126,
      "count": 258,
      "max": [
        0.5415851473808289,
        0.727445662021637
      ],
      "min": [
        0.4463866353034973,
        0.3195544481277466
      ],
      "type": "VEC2"
    },
    {
      "bufferView": 0,
      "byteOffset": 102240,
      "componentType": 5125,
      "count": 708,
      "type": "SCALAR"
    },
    {
      "bufferView": 2,
      "byteOffset": 149352,
      "componentType": 5126,
      "count": 754,
      "max": [
        0.06392311304807663,
        0.015000104904174805,
        0.36847901344299316
      ],
      "min": [
        -0.07060220837593079,
        -0.015000104904174805,
        -0.1633628010749817
      ],
      "type": "VEC3"
    },
    {
      "bufferView": 2,
      "byteOffset": 158400,
      "componentType": 5126,
      "count": 754,
      "max": [
        0.9999851584434509,
        1.0,
        0.9951860308647156
      ],
      "min": [
        -1.0,
        -1.0,
        -0.9982745051383972
      ],
      "type": "VEC3"
    },
    {
      "bufferView": 1,
      "byteOffset": 63608,
      "componentType": 5126,
      "count": 754,
      "max": [
        0.6483397483825684,
        1.01051664352417
      ],
      "min": [
        0.36760786175727844,
        -0.09934854507446289
      ],
      "type": "VEC2"
    },
    {
      "bufferView": 1,
      "byteOffset": 69640,
      "componentType": 5126,
      "count": 754,
      "max": [
        1.0,
        0.8573072552680969
      ],
      "min": [
        0.0,
        0.0
      ],
      "type": "VEC2"
    },
    {
      "bufferView": 0,
      "byteOffset": 105072,
      "componentType": 5125,
      "count": 1422,
      "type": "SCALAR"
    },
    {
      "bufferView": 2,
      "byteOffset": 167448,
      "componentType": 5126,
      "count": 256,
      "max": [
        -0.004849890246987343,
        0.014999406412243843,
        0.3178006112575531
      ],
      "min": [
        -0.029884183779358864,
        -0.014999406412243843,
        0.2927663028240204
      ],
      "type": "VEC3"
    },
    {
      "bufferView": 2,
      "byteOffset": 170520,
      "componentType": 5126,
      "count": 256,
      "max": [
        0.7045505046844482,
        0.7096576690673828,
        0.7046253085136414
      ],
      "min": [
        -0.7038470506668091,
        -0.709657609462738,
        -0.7037655711174011
      ],
      "type": "VEC3"
    },
    {
      "bufferView": 1,
      "byteOffset": 75672,
      "componentType": 5126,
      "count": 256,
      "max": [
        0.78125,
        0.8715797662734985
      ],
      "min": [
        0.0,
        0.0
      ],
      "type": "VEC2"
    },
    {
      "bufferView": 1,
      "byteOffset": 77720,
      "componentType": 5126,
      "count": 256,
      "max": [
        0.78125,
        0.8715797662734985
      ],
      "min": [
        0.0,
        0.0
      ],
      "type": "VEC2"
    },
    {
      "bufferView": 0,
      "byteOffset": 110760,
      "componentType": 5125,
      "count": 384,
      "type": "SCALAR"
    },
    {
      "bufferView": 2,
      "byteOffset": 173592,
      "componentType": 5126,
      "count": 2186,
      "max": [
        0.13566362857818604,
        0.060000207275152206,
        0.28213948011398315
      ],
      "min": [
        -0.06469602882862091,
        -0.060000207275152206,
        -0.310709148645401
      ],
      "type": "VEC3"
    },
    {
      "bufferView": 2,
      "byteOffset": 199824,
      "componentType": 5126,
      "count": 2186,
      "max": [
        1.0,
        1.0,
        1.0
      ],
      "min": [
        -1.0,
        -1.0,
        -1.0
      ],
      "type": "VEC3"
    },
    {
      "bufferView": 1,
      "byteOffset": 79768,
      "componentType": 5126,
      "count": 2186,
      "max": [
        0.9772109985351563,
        0.9987267255783081
      ],
      "min": [
        0.0008835893240757287,
        0.0011506153969094157
      ],
      "type": "VEC2"
    },
    {
      "bufferView": 1,
      "byteOffset": 97256,
      "componentType": 5126,
      "count": 2186,
      "max": [
        0.6199820041656494,
        0.7316814064979553
      ],
      "min": [
        0.41080155968666077,
        0.11273273825645447
      ],
      "type": "VEC2"
    },
    {
      "bufferView": 0,
      "byteOffset": 112296,
      "componentType": 5125,
      "count": 8475,
      "type": "SCALAR"
    },
    {
      "bufferView": 2,
      "byteOffset": 226056,
      "componentType": 5126,
      "count": 128,
      "max": [
        0.007496754638850689,
        0.06000015512108803,
        -0.13278353214263916
      ],
      "min": [
        -0.03345157578587532,
        -0.06000015512108803,
        -0.17373186349868774
      ],
      "type": "VEC3"
    },
    {
      "bufferView": 2,
      "byteOffset": 227592,
      "componentType": 5126,
      "count": 128,
      "max": [
        0.6193597316741943,
        0.7851852178573608,
        0.6192411780357361
      ],
      "min": [
        -0.6192663311958313,
        -0.7851854562759399,
        -0.6193855404853821
      ],
      "type": "VEC3"
    },
    {
      "bufferView": 1,
      "byteOffset": 114744,
      "componentType": 5126,
      "count": 128,
      "max": [
        0.627555787563324,
        0.2692030966281891
      ],
      "min": [
        0.33465275168418884,
        0.14334478974342346
      ],
      "type": "VEC2"
    },
    {
      "bufferView": 1,
      "byteOffset": 115768,
      "componentType": 5126,
      "count": 128,
      "max": [
        0.627555787563324,
        0.2692030966281891
      ],
      "min": [
        0.33465275168418884,
        0.14334478974342346
      ],
      "type": "VEC2"
    },
    {
      "bufferView": 0,
      "byteOffset": 146196,
      "componentType": 5125,
      "count": 384,
      "type": "SCALAR"
    },
    {
      "bufferView": 2,
      "byteOffset": 229128,
      "componentType": 5126,
      "count": 831,
      "max": [
        0.14911727607250214,
        0.10500390082597733,
        0.171065554022789
      ],
      "min": [
        -0.07153695821762085,
        -0.10500390082597733,
        -0.07840016484260559
      ],
      "type": "VEC3"
    },
    {
      "bufferView": 2,
      "byteOffset": 239100,
      "componentType": 5126,
      "count": 831,
      "max": [
        1.0,
        1.0,
        1.0
      ],
      "min": [
        -1.0,
        -1.0,
        -1.0
      ],
      "type": "VEC3"
    },
    {
      "bufferView": 1,
      "byteOffset": 116792,
      "componentType": 5126,
      "count": 831,
      "max": [
        0.9998026490211487,
        0.9552079439163208
      ],
      "min": [
        0.0015485344920307398,
        0.0014134915545582771
      ],
      "type": "VEC2"
    },
    {
      "bufferView": 0,
      "byteOffset": 147732,
      "componentType": 5125,
      "count": 2784,
      "type": "SCALAR"
    },
    {
      "bufferView": 2,
      "byteOffset": 249072,
      "componentType": 5126,
      "count": 276,
      "max": [
        0.11459826678037643,
        0.10500390082597733,
        0.12036033719778061
      ],
      "min": [
        -0.06223210319876671,
        -0.10500390082597733,
        -0.0521814301609993
      ],
      "type": "VEC3"
    },
    {
      "bufferView": 2,
      "byteOffset": 252384,
      "componentType": 5126,
      "count": 276,
      "max": [
        0.7057158946990967,
        0.7154412865638733,
        0.7072141170501709
      ],
      "min": [
        -0.7054064869880676,
        -0.7154418230056763,
        -0.7053917646408081
      ],
      "type": "VEC3"
    },
    {
      "bufferView": 1,
      "byteOffset": 123440,
      "componentType": 5126,
      "count": 276,
      "max": [
        0.9998025298118591,
        0.8647178411483765
      ],
      "min": [
        0.08100620657205582,
        0.03154180571436882
      ],
      "type": "VEC2"
    },
    {
      "bufferView": 0,
      "byteOffset": 158868,
      "componentType": 5125,
      "count": 768,
      "type": "SCALAR"
    },
    {
      "bufferView": 2,
      "byteOffset": 255696,
      "componentType": 5126,
      "count": 1848,
      "max": [
        0.3948807120323181,
        0.3948807120323181,
        0.0945732370018959
      ],
      "min": [
        -0.3949257731437683,
        -0.3949640393257141,
        -1.8337767124176025
      ],
      "type": "VEC3"
    },
    {
      "bufferView": 2,
      "byteOffset": 277872,
      "componentType": 5126,
      "count": 1848,
      "max": [
        1.0,
        1.0,
        0.99970543384552
      ],
      "min": [
        -1.0,
        -1.0,
        -0.9997090101242065
      ],
      "type": "VEC3"
    },
    {
      "bufferView": 0,
      "byteOffset": 161940,
      "componentType": 5125,
      "count": 10908,
      "type": "SCALAR"
    },
    {
      "bufferView": 2,
      "byteOffset": 300048,
      "componentType": 5126,
      "count": 1848,
      "max": [
        0.3948807120323181,
        0.3948807120323181,
        0.0945732370018959
      ],
      "min": [
        -0.39492836594581604,
        -0.3949645161628723,
        -0.7074176073074341
      ],
      "type": "VEC3"
    },
    {
      "bufferView": 2,
      "byteOffset": 322224,
      "componentType": 5126,
      "count": 1848,
      "max": [
        1.0,
        1.0,
        0.99970543384552
      ],
      "min": [
        -1.0,
        -1.0,
        -0.9997067451477051
      ],
      "type": "VEC3"
    },
    {
      "bufferView": 0,
      "byteOffset": 205572,
      "componentType": 5125,
      "count": 10908,
      "type": "SCALAR"
    },
    {
      "bufferView": 2,
      "byteOffset": 344400,
      "componentType": 5126,
      "count": 1848,
      "max": [
        0.3948807120323181,
        0.3948807120323181,
        0.0945732370018959
      ],
      "min": [
        -0.3949257731437683,
        -0.3949640393257141,
        -1.8337767124176025
      ],
      "type": "VEC3"
    },
    {
      "bufferView": 2,
      "byteOffset": 366576,
      "componentType": 5126,
      "count": 1848,
      "max": [
        1.0,
        1.0,
        0.99970543384552
      ],
      "min": [
        -1.0,
        -1.0,
        -0.9997090101242065
      ],
      "type": "VEC3"
    },
    {
      "bufferView": 0,
      "byteOffset": 249204,
      "componentType": 5125,
      "count": 10908,
      "type": "SCALAR"
    },
    {
      "bufferView": 2,
      "byteOffset": 388752,
      "componentType": 5126,
      "count": 1848,
      "max": [
        0.3948807120323181,
        0.3948807120323181,
        0.0945732370018959
      ],
      "min": [
        -0.39492836594581604,
        -0.3949645161628723,
        -0.7074176073074341
      ],
      "type": "VEC3"
    },
    {
      "bufferView": 2,
      "byteOffset": 410928,
      "componentType": 5126,
      "count": 1848,
      "max": [
        1.0,
        1.0,
        0.99970543384552
      ],
      "min": [
        -1.0,
        -1.0,
        -0.9997067451477051
      ],
      "type": "VEC3"
    },
    {
      "bufferView": 0,
      "byteOffset": 292836,
      "componentType": 5125,
      "count": 10908,
      "type": "SCALAR"
    },
    {
      "bufferView": 2,
      "byteOffset": 433104,
      "componentType": 5126,
      "count": 1848,
      "max": [
        0.3948807120323181,
        0.3948807120323181,
        0.0945732370018959
      ],
      "min": [
        -0.3949257731437683,
        -0.3949640393257141,
        -1.8337767124176025
      ],
      "type": "VEC3"
    },
    {
      "bufferView": 2,
      "byteOffset": 455280,
      "componentType": 5126,
      "count": 1848,
      "max": [
        1.0,
        1.0,
        0.99970543384552
      ],
      "min": [
        -1.0,
        -1.0,
        -0.9997090101242065
      ],
      "type": "VEC3"
    },
    {
      "bufferView": 0,
      "byteOffset": 336468,
      "componentType": 5125,
      "count": 10908,
      "type": "SCALAR"
    },
    {
      "bufferView": 2,
      "byteOffset": 477456,
      "componentType": 5126,
      "count": 1848,
      "max": [
        0.3948807120323181,
        0.3948807120323181,
        0.0945732370018959
      ],
      "min": [
        -0.3950008749961853,
        -0.3950999677181244,
        -4.829581260681152
      ],
      "type": "VEC3"
    },
    {
      "bufferView": 2,
      "byteOffset": 499632,
      "componentType": 5126,
      "count": 1848,
      "max": [
        1.0,
        1.0,
        0.99970543384552
      ],
      "min": [
        -1.0,
        -1.0,
        -0.9997092485427856
      ],
      "type": "VEC3"
    },
    {
      "bufferView": 0,
      "byteOffset": 380100,
      "componentType": 5125,
      "count": 10908,
      "type": "SCALAR"
    },
    {
      "bufferView": 2,
      "byteOffset": 521808,
      "componentType": 5126,
      "count": 323,
      "max": [
        0.1392105668783188,
        0.050000157207250595,
        0.2323678731918335
      ],
      "min": [
        -0.06722024828195572,
        -0.050000157207250595,
        -0.23196285963058472
      ],
      "type": "VEC3"
    },
    {
      "bufferView": 2,
      "byteOffset": 525684,
      "componentType": 5126,
      "count": 323,
      "max": [
        1.0,
        1.0,
        1.0
      ],
      "min": [
        -1.0,
        -1.0,
        -1.0
      ],
      "type": "VEC3"
    },
    {
      "bufferView": 1,
      "byteOffset": 125648,
      "componentType": 5126,
      "count": 323,
      "max": [
        0.9998510479927063,
        0.9490363597869873
      ],
      "min": [
        0.0014727336820214987,
        0.002470264909788966
      ],
      "type": "VEC2"
    },
    {
      "bufferView": 1,
      "byteOffset": 128232,
      "componentType": 5126,
      "count": 323,
      "max": [
        0.6556222438812256,
        0.7106104493141174
      ],
      "min": [
        0.44919145107269287,
        0.24627971649169922
      ],
      "type": "VEC2"
    },
    {
      "bufferView": 0,
      "byteOffset": 423732,
      "componentType": 5125,
      "count": 972,
      "type": "SCALAR"
    },
    {
      "bufferView": 2,
      "byteOffset": 529560,
      "componentType": 5126,
      "count": 128,
      "max": [
        -0.02770185098052025,
        0.04999968782067299,
        0.07024607062339783
      ],
      "min": [
        -0.053768325597047806,
        -0.04999968782067299,
        0.044178400188684464
      ],
      "type": "VEC3"
    },
    {
      "bufferView": 2,
      "byteOffset": 531096,
      "componentType": 5126,
      "count": 128,
      "max": [
        0.7059551477432251,
        0.7119264602661133,
        0.7053893804550171
      ],
      "min": [
        -0.7058267593383789,
        -0.7119258642196655,
        -0.7054174542427063
      ],
      "type": "VEC3"
    },
    {
      "bufferView": 1,
      "byteOffset": 130816,
      "componentType": 5126,
      "count": 128,
      "max": [
        0.4340982735157013,
        0.6734593510627747
      ],
      "min": [
        0.08591429144144058,
        0.2802985608577728
      ],
      "type": "VEC2"
    },
    {
      "bufferView": 1,
      "byteOffset": 131840,
      "componentType": 5126,
      "count": 128,
      "max": [
        0.4340982735157013,
        0.6734593510627747
      ],
      "min": [
        0.08591429144144058,
        0.2802985608577728
      ],
      "type": "VEC2"
    },
    {
      "bufferView": 0,
      "byteOffset": 427620,
      "componentType": 5125,
      "count": 384,
      "type": "SCALAR"
    },
    {
      "bufferView": 2,
      "byteOffset": 532632,
      "componentType": 5126,
      "count": 464,
      "max": [
        0.10841035842895508,
        0.015000158920884132,
        1.8963348865509033
      ],
      "min": [
        -0.1769959181547165,
        -0.01500031165778637,
        -1.6155197620391846
      ],
      "type": "VEC3"
    },
    {
      "bufferView": 2,
      "byteOffset": 538200,
      "componentType": 5126,
      "count": 464,
      "max": [
        0.9999998211860657,
        1.0,
        0.99767005443573
      ],
      "min": [
        -0.9999979734420776,
        -1.0,
        -0.9982209205627441
      ],
      "type": "VEC3"
    },
    {
      "bufferView": 1,
      "byteOffset": 132864,
      "componentType": 5126,
      "count": 464,
      "max": [
        0.2673259377479553,
        0.9950495362281799
      ],
      "min": [
        0.00026854686439037323,
        0.00017172259686049074
      ],
      "type": "VEC2"
    },
    {
      "bufferView": 1,
      "byteOffset": 136576,
      "componentType": 5126,
      "count": 464,
      "max": [
        0.6058493256568909,
        2.3974390029907227
      ],
      "min": [
        0.32789140939712524,
        -1.1144157648086548
      ],
      "type": "VEC2"
    },
    {
      "bufferView": 0,
      "byteOffset": 429156,
      "componentType": 5125,
      "count": 1140,
      "type": "SCALAR"
    },
    {
      "bufferView": 2,
      "byteOffset": 543768,
      "componentType": 5126,
      "count": 249,
      "max": [
        0.11921679228544235,
        0.005000291392207146,
        1.228407859802246
      ],
      "min": [
        -0.14065797626972198,
        -0.00500018335878849,
        -2.3089263439178467
      ],
      "type": "VEC3"
    },
    {
      "bufferView": 2,
      "byteOffset": 546756,
      "componentType": 5126,
      "count": 249,
      "max": [
        0.8413514494895935,
        1.0,
        0.7174001336097717
      ],
      "min": [
        -0.999998927116394,
        -1.0,
        -0.5825449228286743
      ],
      "type": "VEC3"
    },
    {
      "bufferView": 1,
      "byteOffset": 140288,
      "componentType": 5126,
      "count": 249,
      "max": [
        0.20566049218177795,
        0.9950495362281799
      ],
      "min": [
        0.0002571300428826362,
        0.0049278466030955315
      ],
      "type": "VEC2"
    },
    {
      "bufferView": 1,
      "byteOffset": 142280,
      "componentType": 5126,
      "count": 249,
      "max": [
        0.20581509172916412,
        0.9950494766235352
      ],
      "min": [
        0.0002568424097262323,
        0.004924459382891655
      ],
      "type": "VEC2"
    },
    {
      "bufferView": 0,
      "byteOffset": 433716,
      "componentType": 5125,
      "count": 762,
      "type": "SCALAR"
    },
    {
      "bufferView": 2,
      "byteOffset": 549744,
      "componentType": 5126,
      "count": 124,
      "max": [
        0.08054131269454956,
        0.014999951235949993,
        0.7917333841323853
      ],
      "min": [
        -0.07327048480510712,
        -0.015000189654529095,
        -0.2647106647491455
      ],
      "type": "VEC3"
    },
    {
      "bufferView": 2,
      "byteOffset": 551232,
      "componentType": 5126,
      "count": 124,
      "max": [
        0.9999982714653015,
        1.0,
        0.6856781244277954
      ],
      "min": [
        -0.9998562932014465,
        -1.0,
        -0.974873960018158
      ],
      "type": "VEC3"
    },
    {
      "bufferView": 1,
      "byteOffset": 144272,
      "componentType": 5126,
      "count": 124,
      "max": [
        0.32140153646469116,
        0.9950494766235352
      ],
      "min": [
        0.0006164485239423811,
        0.00014001168892718852
      ],
      "type": "VEC2"
    },
    {
      "bufferView": 1,
      "byteOffset": 145264,
      "componentType": 5126,
      "count": 124,
      "max": [
        0.5964388847351074,
        1.4409528970718384
      ],
      "min": [
        0.4136355519294739,
        0.18538254499435425
      ],
      "type": "VEC2"
    },
    {
      "bufferView": 0,
      "byteOffset": 436764,
      "componentType": 5125,
      "count": 312,
      "type": "SCALAR"
    },
    {
      "bufferView": 2,
      "byteOffset": 552720,
      "componentType": 5126,
      "count": 242,
      "max": [
        1.1881531476974487,
        2.829200267791748,
        1.1881526708602905
      ],
      "min": [
        -1.1881523132324219,
        -2.829200267791748,
        -1.1881526708602905
      ],
      "type": "VEC3"
    },
    {
      "bufferView": 2,
      "byteOffset": 555624,
      "componentType": 5126,
      "count": 242,
      "max": [
        1.0,
        0.9829797148704529,
        1.0
      ],
      "min": [
        -1.0,
        -0.9829797744750977,
        -1.0
      ],
      "type": "VEC3"
    },
    {
      "bufferView": 1,
      "byteOffset": 146256,
      "componentType": 5126,
      "count": 242,
      "max": [
        0.8483443260192871,
        0.9988929629325867
      ],
      "min": [
        0.001088216551579535,
        0.0006940888706594706
      ],
      "type": "VEC2"
    },
    {
      "bufferView": 0,
      "byteOffset": 438012,
      "componentType": 5125,
      "count": 456,
      "type": "SCALAR"
    }
  ],
  "asset": {
    "extras": {
      "author": "jordanger88 (https://sketchfab.com/jordanger88)",
      "license": "CC-BY-4.0 (http://creativecommons.org/licenses/by/4.0/)",
      "source": "https://sketchfab.com/3d-models/cyber-blade-7a9afdc5ecb241a298ba3b278bb88680",
      "title": "Cyber Blade"
    },
    "generator": "Sketchfab-12.65.0",
    "version": "2.0"
  },
  "bufferViews": [
    {
      "buffer": 0,
      "byteLength": 439836,
      "name": "floatBufferViews",
      "target": 34963
    },
    {
      "buffer": 0,
      "byteLength": 148192,
      "byteOffset": 439836,
      "byteStride": 8,
      "name": "floatBufferViews",
      "target": 34962
    },
    {
      "buffer": 0,
      "byteLength": 558528,
      "byteOffset": 588028,
      "byteStride": 12,
      "name": "floatBufferViews",
      "target": 34962
    }
  ],
  "buffers": [
    {
      "byteLength": 1146556,
      "uri": "scene.bin"
    }
  ],
  "extensionsUsed": [
    "KHR_materials_clearcoat"
  ],
  "images": [
    {
      "uri": "textures/carbon_fiber_plane_baseColor.jpeg"
    }
  ],
  "materials": [
    {
      "doubleSided": true,
      "name": "Handle_Bottom",
      "pbrMetallicRoughness": {
        "baseColorFactor": [
          0.020379,
          0.020379,
          0.020379,
          1.0
        ],
        "metallicFactor": 0.34927591463414637,
        "roughnessFactor": 0.3641387195121951
      }
    },
    {
      "doubleSided": true,
      "name": "carbon_fiber_plane",
      "pbrMetallicRoughness": {
        "baseColorTexture": {
          "index": 0
        },
        "metallicFactor": 0.8370807926829268,
        "roughnessFactor": 0.08365091463414631
      }
    },
    {
      "doubleSided": true,
      "extensions": {
        "KHR_materials_clearcoat": {
          "clearcoatFactor": 1.0,
          "clearcoatRoughnessFactor": 0.04
        }
      },
      "name": "Hole_outers",
      "pbrMetallicRoughness": {
        "baseColorFactor": [
          0.8,
          0.8,
          0.8,
          1.0
        ],
        "roughnessFactor": 0.08974847560975607
      }
    },
    {
      "doubleSided": true,
      "name": "steel_dark_used",
      "pbrMetallicRoughness": {
        "baseColorFactor": [
          0.0444522,
          0.0444522,
          0.0444522,
          1.0
        ],
        "roughnessFactor": 0.27877286585365857
      }
    },
    {
      "doubleSided": true,
      "extensions": {
        "KHR_materials_clearcoat": {
          "clearcoatFactor": 1.0,
          "clearcoatRoughnessFactor": 0.04
        }
      },
      "name": "Buttons",
      "pbrMetallicRoughness": {
        "baseColorFactor": [
          0.8,
          0.8,
          0.8,
          1.0
        ],
        "roughnessFactor": 0.07145579268292679
      }
    },
    {
      "doubleSided": true,
      "name": "Brushed_Aluminium",
      "pbrMetallicRoughness": {
        "baseColorFactor": [
          0.8,
          0.8,
          0.8,
          1.0
        ],
        "roughnessFactor": 0.1934070121951219
      }
    },
    {
      "doubleSided": true,
      "name": "matte_plastic",
      "pbrMetallicRoughness": {
        "baseColorFactor": [
          0.0,
          0.0,
          0.0,
          1.0
        ],
        "metallicFactor": 0.0,
        "roughnessFactor": 0.8336509146341463
      }
    },
    {
      "doubleSided": true,
      "name": "Blade_badge",
      "pbrMetallicRoughness": {
        "baseColorFactor": [
          0.0331027,
          0.0331027,
          0.0331027,
          1.0
        ],
        "metallicFactor": 0.7883003048780488,
        "roughnessFactor": 0.42511432926829273
      }
    },
    {
      "doubleSided": true,
      "emissiveFactor": [
        0.0,
        0.04819520221620424,
        1.0
      ],
      "name": "LED_Bulb",
      "pbrMetallicRoughness": {
        "baseColorFactor": [
          0.8,
          0.8,
          0.8,
          1.0
        ],
        "metallicFactor": 0.8614710365853658,
        "roughnessFactor": 0.16901676829268297
      }
    },
    {
      "doubleSided": true,
      "name": "deted_metal_dark_bronze",
      "pbrMetallicRoughness": {
        "baseColorFactor": [
          0.04011232605020126,
          0.04011232605020126,
          0.04011232605020126,
          1.0
        ],
        "metallicFactor": 0.9773246951219512,
        "roughnessFactor": 0.19950457317073167
      }
    },
    {
      "doubleSided": true,
      "name": "lil_button",
      "pbrMetallicRoughness": {
        "baseColorFactor": [
          0.020379,
          0.020379,
          0.020379,
          1.0
        ],
        "metallicFactor": 0.8492759146341463,
        "roughnessFactor": 0.38852896341463417
      }
    }
  ],
  "meshes": [
    {
      "name": "Cylinder_Handle Bottom_0",
      "primitives": [
        {
          "attributes": {
            "NORMAL": 1,
            "POSITION": 0,
            "TEXCOORD_0": 2
          },
          "indices": 3,
          "material": 0,
          "mode": 4
        }
      ]
    },
    {
      "name": "Handle piece_carbon fiber plane_0",
      "primitives": [
        {
          "attributes": {
            "NORMAL": 5,
            "POSITION": 4,
            "TEXCOORD_0": 6,
            "TEXCOORD_1": 7
          },
          "indices": 8,
          "material": 1,
          "mode": 4
        }
      ]
    },
    {
      "name": "Handle piece_Hole outers_0",
      "primitives": [
        {
          "attributes": {
            "NORMAL": 10,
            "POSITION": 9,
            "TEXCOORD_0": 11,
            "TEXCOORD_1": 12
          },
          "indices": 13,
          "material": 2,
          "mode": 4
        }
      ]
    },
    {
      "name": "Vert.001_steel dark used_0",
      "primitives": [
        {
          "attributes": {
            "NORMAL": 15,
            "POSITION": 14,
            "TEXCOORD_0": 16,
            "TEXCOORD_1": 17
          },
          "indices": 18,
          "material": 3,
          "mode": 4
        }
      ]
    },
    {
      "name": "Plane.000_Buttons_0",
      "primitives": [
        {
          "attributes": {
            "NORMAL": 20,
            "POSITION": 19
          },
          "indices": 21,
          "material": 4,
          "mode": 4
        }
      ]
    },
    {
      "name": "Vert.002_Brushed Aluminium_0",
      "primitives": [
        {
          "attributes": {
            "NORMAL": 23,
            "POSITION": 22,
            "TEXCOORD_0": 24,
            "TEXCOORD_1": 25
          },
          "indices": 26,
          "material": 5,
          "mode": 4
        }
      ]
    },
    {
      "name": "Vert.003_carbon fiber plane_0",
      "primitives": [
        {
          "attributes": {
            "NORMAL": 28,
            "POSITION": 27,
            "TEXCOORD_0": 29,
            "TEXCOORD_1": 30
          },
          "indices": 31,
          "material": 1,
          "mode": 4
        }
      ]
    },
    {
      "name": "Vert.003_Hole outers_0",
      "primitives": [
        {
          "attributes": {
            "NORMAL": 33,
            "POSITION": 32,
            "TEXCOORD_0": 34,
            "TEXCOORD_1": 35
          },
          "indices": 36,
          "material": 2,
          "mode": 4
        }
      ]
    },
    {
      "name": "Vert.004_matte plastic _0",
      "primitives": [
        {
          "attributes": {
            "NORMAL": 38,
            "POSITION": 37,
            "TEXCOORD_0": 39,
            "TEXCOORD_1": 40
          },
          "indices": 41,
          "material": 6,
          "mode": 4
        }
      ]
    },
    {
      "name": "Vert.004_Hole outers_0",
      "primitives": [
        {
          "attributes": {
            "NORMAL": 43,
            "POSITION": 42,
            "TEXCOORD_0": 44,
            "TEXCOORD_1": 45
          },
          "indices": 46,
          "material": 2,
          "mode": 4
        }
      ]
    },
    {
      "name": "Vert.005_Blade badge_0",
      "primitives": [
        {
          "attributes": {
            "NORMAL": 48,
            "POSITION": 47,
            "TEXCOORD_0": 49
          },
          "indices": 50,
          "material": 7,
          "mode": 4
        }
      ]
    },
    {
      "name": "Vert.005_Hole outers_0",
      "primitives": [
        {
          "attributes": {
            "NORMAL": 52,
            "POSITION": 51,
            "TEXCOORD_0": 53
          },
          "indices": 54,
          "material": 2,
          "mode": 4
        }
      ]
    },
    {
      "name": "Plane.098_Buttons_0",
      "primitives": [
        {
          "attributes": {
            "NORMAL": 56,
            "POSITION": 55
          },
          "indices": 57,
          "material": 4,
          "mode": 4
        }
      ]
    },
    {
      "name": "Plane.001_Buttons_0",
      "primitives": [
        {
          "attributes": {
            "NORMAL": 59,
            "POSITION": 58
          },
          "indices": 60,
          "material": 4,
          "mode": 4
        }
      ]
    },
    {
      "name": "Plane.002_Buttons_0",
      "primitives": [
        {
          "attributes": {
            "NORMAL": 62,
            "POSITION": 61
          },
          "indices": 63,
          "material": 4,
          "mode": 4
        }
      ]
    },
    {
      "name": "Plane.003_Buttons_0",
      "primitives": [
        {
          "attributes": {
            "NORMAL": 65,
            "POSITION": 64
          },
          "indices": 66,
          "material": 4,
          "mode": 4
        }
      ]
    },
    {
      "name": "Plane.004_Buttons_0",
      "primitives": [
        {
          "attributes": {
            "NORMAL": 68,
            "POSITION": 67
          },
          "indices": 69,
          "material": 4,
          "mode": 4
        }
      ]
    },
    {
      "name": "Plane.005_Buttons_0",
      "primitives": [
        {
          "attributes": {
            "NORMAL": 71,
            "POSITION": 70
          },
          "indices": 72,
          "material": 4,
          "mode": 4
        }
      ]
    },
    {
      "name": "Vert.006_steel dark used_0",
      "primitives": [
        {
          "attributes": {
            "NORMAL": 74,
            "POSITION": 73,
            "TEXCOORD_0": 75,
            "TEXCOORD_1": 76
          },
          "indices": 77,
          "material": 3,
          "mode": 4
        }
      ]
    },
    {
      "name": "Vert.006_Hole outers_0",
      "primitives": [
        {
          "attributes": {
            "NORMAL": 79,
            "POSITION": 78,
            "TEXCOORD_0": 80,
            "TEXCOORD_1": 81
          },
          "indices": 82,
          "material": 2,
          "mode": 4
        }
      ]
    },
    {
      "name": "Vert.007_steel dark used_0",
      "primitives": [
        {
          "attributes": {
            "NORMAL": 84,
            "POSITION": 83,
            "TEXCOORD_0": 85,
            "TEXCOORD_1": 86
          },
          "indices": 87,
          "material": 3,
          "mode": 4
        }
      ]
    },
    {
      "name": "Vert.008_LED Bulb_0",
      "primitives": [
        {
          "attributes": {
            "NORMAL": 89,
            "POSITION": 88,
            "TEXCOORD_0": 90,
            "TEXCOORD_1": 91
          },
          "indices": 92,
          "material": 8,
          "mode": 4
        }
      ]
    },
    {
      "name": "Vert.009_deted metal dark bronze_0",
      "primitives": [
        {
          "attributes": {
            "NORMAL": 94,
            "POSITION": 93,
            "TEXCOORD_0": 95,
            "TEXCOORD_1": 96
          },
          "indices": 97,
          "material": 9,
          "mode": 4
        }
      ]
    },
    {
      "name": "Cube_lil button_0",
      "primitives": [
        {
          "attributes": {
            "NORMAL": 99,
            "POSITION": 98,
            "TEXCOORD_0": 100
          },
          "indices": 101,
          "material": 10,
          "mode": 4
        }
      ]
    }
  ],
  "nodes": [
    {
      "children": [
        1
      ],
      "matrix": [
        1.0,
        0.0,
        0.0,
        0.0,
        0.0,
        2.220446049250313e-16,
        -1.0,
        0.0,
        0.0,
        1.0,
        2.220446049250313e-16,
        0.0,
        0.0,
        0.0,
        0.0,
        1.0
      ],
      "name": "Sketchfab_model"
    },
    {
      "children": [
        2
      ],
      "matrix": [
        1.0,
        0.0,
        0.0,
        0.0,
        0.0,
        0.0,
        1.0,
        0.0,
        0.0,
        -1.0,
        0.0,
        0.0,
        0.0,
        0.0,
        0.0,
        1.0
      ],
      "name": "d14f3367ee2b44d58c4a569a4a595def.fbx"
    },
    {
      "children": [
        3,
        5,
        8,
        12,
        14,
        17,
        20,
        35,
        38,
        40,
        42,
        44
      ],
      "name": "RootNode"
    },
    {
      "children": [
        4
      ],
      "matrix": [
        2.091926294103907,
        -1.9753609450844893,
        -1.1268695569755705e-07,
        0.0,
        -1.6827745944211704e-07,
        -1.4074678483141394e-08,
        -2.8771872520446724,
        0.0,
        9.803603511421338,
        10.382110678833222,
        -6.241687460878109e-07,
        0.0,
        -70.53067016601563,
        41.506378173828125,
        0.0,
        1.0
      ],
      "name": "Cylinder"
    },
    {
      "mesh": 0,
      "name": "Cylinder_Handle Bottom_0"
    },
    {
      "children": [
        6,
        7
      ],
      "matrix": [
        72.70733508486758,
        -68.6559787990586,
        -1.6653345369377348e-14,
        0.0,
        -1.483628851941259e-05,
        -1.571177063429093e-05,
        -494.3702087402339,
        0.0,
        68.65597879905853,
        72.70733508486751,
        -4.371138961900556e-06,
        0.0,
        -67.63087463378906,
        47.73284149169922,
        0.0,
        1.0
      ],
      "name": "Handle piece"
    },
    {
      "mesh": 1,
      "name": "Handle piece_carbon fiber plane_0"
    },
    {
      "mesh": 2,
      "name": "Handle piece_Hole outers_0"
    },
    {
      "children": [
        9,
        10
      ],
      "matrix": [
        72.70733508486758,
        -68.6559787990586,
        -1.6653345369377348e-14,
        0.0,
        -2.9294956276294615e-06,
        -3.1023637289910708e-06,
        -97.61574554443351,
        0.0,
        68.65597879905853,
        72.70733508486751,
        -4.371138961900556e-06,
        0.0,
        -20.62421989440918,
        80.87976837158203,
        0.0,
        1.0
      ],
      "name": "Vert.001"
    },
    {
      "mesh": 3,
      "name": "Vert.001_steel dark used_0"
    },
    {
      "children": [
        11
      ],
      "matrix": [
        0.05334380269050596,
        -1.6555033302922072e-09,
        -1.2500620408877447e-18,
        0.0,
        -2.6846566493135726e-16,
        -8.690808575681039e-09,
        0.053343802690505274,
        0.0,
        -1.6959387027725235e-09,
        -0.05464671552181169,
        -8.903080019345822e-09,
        0.0,
        -0.02381017804145813,
        -0.050000425428152084,
        -0.38916584849357605,
        1.0
      ],
      "name": "Plane.000"
    },
    {
      "mesh": 4,
      "name": "Plane.000_Buttons_0"
    },
    {
      "children": [
        13
      ],
      "matrix": [
        72.70733508486758,
        -68.6559787990586,
        -1.6653345369377348e-14,
        0.0,
        -8.190748874772931e-06,
        -8.674080951925575e-06,
        -272.9295959472654,
        0.0,
        68.65597879905853,
        72.70733508486751,
        -4.371138961900556e-06,
        0.0,
        -70.4079360961914,
        53.39060592651367,
        0.0,
        1.0
      ],
      "name": "Vert.002"
    },
    {
      "mesh": 5,
      "name": "Vert.002_Brushed Aluminium_0"
    },
    {
      "children": [
        15,
        16
      ],
      "matrix": [
        72.70733508486758,
        -68.6559787990586,
        -1.6653345369377348e-14,
        0.0,
        -1.2785965721308362e-05,
        -1.3540459292649088e-05,
        -426.04998779296835,
        0.0,
        68.65597879905853,
        72.70733508486751,
        -4.371138961900556e-06,
        0.0,
        -67.86604309082031,
        50.13865280151367,
        0.0,
        1.0
      ],
      "name": "Vert.003"
    },
    {
      "mesh": 6,
      "name": "Vert.003_carbon fiber plane_0"
    },
    {
      "mesh": 7,
      "name": "Vert.003_Hole outers_0"
    },
    {
      "children": [
        18,
        19
      ],
      "matrix": [
        72.70733508486758,
        -68.6559787990586,
        -1.6653345369377348e-14,
        0.0,
        -3.397409770102688e-06,
        -3.597889255706248e-06,
        -113.20743560791006,
        0.0,
        68.65597879905853,
        72.70733508486751,
        -4.371138961900556e-06,
        0.0,
        -20.432252883911133,
        95.39583587646484,
        0.0,
        1.0
      ],
      "name": "Vert.004"
    },
    {
      "mesh": 8,
      "name": "Vert.004_matte plastic _0"
    },
    {
      "mesh": 9,
      "name": "Vert.004_Hole outers_0"
    },
    {
      "children": [
        21,
        22,
        23,
        25,
        27,
        29,
        31,
        33
      ],
      "matrix": [
        72.70733508486758,
        -68.6559787990586,
        -1.6653345369377348e-14,
        0.0,
        -1.998505305757835e-06,
        -2.116436124465702e-06,
        -66.59357452392572,
        0.0,
        68.65597879905853,
        72.70733508486751,
        -4.371138961900556e-06,
        0.0,
        -0.21384404599666595,
        118.28543090820313,
        0.0,
        1.0
      ],
      "name": "Vert.005"
    },
    {
      "mesh": 10,
      "name": "Vert.005_Blade badge_0"
    },
    {
      "mesh": 11,
      "name": "Vert.005_Hole outers_0"
    },
    {
      "children": [
        24
      ],
      "matrix": [
        0.04121073333318158,
        -1.2252881790169542e-06,
        -4.712824618276213e-07,
        0.0,
        4.7121594745725816e-07,
        -2.2370949101237453e-06,
        0.0412107332906781,
        0.0,
        -1.0329076281984728e-06,
        -0.034739576213577025,
        -1.885801008600144e-06,
        0.0,
        0.08558696508407593,
        -0.030209025368094444,
        1.3239259719848633,
        1.0
      ],
      "name": "Plane.098"
    },
    {
      "mesh": 12,
      "name": "Plane.098_Buttons_0"
    },
    {
      "children": [
        26
      ],
      "matrix": [
        0.04121073333318158,
        -1.225288253978841e-06,
        -4.712823868632832e-07,
        0.0,
        4.712158724888511e-07,
        -2.2370949101145948e-06,
        0.04121073329067809,
        0.0,
        -2.931309410460127e-06,
        -0.0985881386299056,
        -5.35175242554817e-06,
        0.0,
        0.029415428638458252,
        -0.030209025368094444,
        1.3568482398986816,
        1.0
      ],
      "name": "Plane.001"
    },
    {
      "mesh": 13,
      "name": "Plane.001_Buttons_0"
    },
    {
      "children": [
        28
      ],
      "matrix": [
        0.04121073333318158,
        -1.2252881790169542e-06,
        -4.712824618276213e-07,
        0.0,
        4.7121594745725816e-07,
        -2.2370949101237453e-06,
        0.0412107332906781,
        0.0,
        -1.0329076281984728e-06,
        -0.034739576213577025,
        -1.885801008600144e-06,
        0.0,
        0.0855867862701416,
        -0.030209025368094444,
        2.7590997219085693,
        1.0
      ],
      "name": "Plane.002"
    },
    {
      "mesh": 14,
      "name": "Plane.002_Buttons_0"
    },
    {
      "children": [
        30
      ],
      "matrix": [
        0.04121073333318158,
        -1.225288253978841e-06,
        -4.712823868632832e-07,
        0.0,
        4.712158724888511e-07,
        -2.2370949101145948e-06,
        0.04121073329067809,
        0.0,
        -2.931309410460127e-06,
        -0.0985881386299056,
        -5.35175242554817e-06,
        0.0,
        0.029415488243103027,
        -0.030209025368094444,
        2.7920219898223877,
        1.0
      ],
      "name": "Plane.003"
    },
    {
      "mesh": 15,
      "name": "Plane.003_Buttons_0"
    },
    {
      "children": [
        32
      ],
      "matrix": [
        0.04121073333318158,
        -1.2252881790169542e-06,
        -4.712824618276213e-07,
        0.0,
        4.7121594745725816e-07,
        -2.2370949101237453e-06,
        0.0412107332906781,
        0.0,
        -1.0329076281984728e-06,
        -0.034739576213577025,
        -1.885801008600144e-06,
        0.0,
        -0.050777316093444824,
        -0.030209025368094444,
        3.4326326847076416,
        1.0
      ],
      "name": "Plane.004"
    },
    {
      "mesh": 16,
      "name": "Plane.004_Buttons_0"
    },
    {
      "children": [
        34
      ],
      "matrix": [
        0.05301303413797412,
        -1.5761972381787546e-06,
        -6.091275925200451e-07,
        0.0,
        6.090420291600061e-07,
        -2.8777743750361714e-06,
        0.053013034083298084,
        0.0,
        -1.3287210229854698e-06,
        -0.044688604686494576,
        -2.4258734554580935e-06,
        0.0,
        0.02600579708814621,
        -0.10579971969127655,
        0.04177149385213852,
        1.0
      ],
      "name": "Plane.005"
    },
    {
      "mesh": 17,
      "name": "Plane.005_Buttons_0"
    },
    {
      "children": [
        36,
        37
      ],
      "matrix": [
        72.70733508486758,
        -68.6559787990586,
        -1.6653345369377348e-14,
        0.0,
        -3.001048254347438e-06,
        -3.1781386411466883e-06,
        -99.99999999999991,
        0.0,
        68.65597879905853,
        72.70733508486751,
        -4.371138961900556e-06,
        0.0,
        17.552471160888672,
        129.85951232910156,
        0.0,
        1.0
      ],
      "name": "Vert.006"
    },
    {
      "mesh": 18,
      "name": "Vert.006_steel dark used_0"
    },
    {
      "mesh": 19,
      "name": "Vert.006_Hole outers_0"
    },
    {
      "children": [
        39
      ],
      "matrix": [
        72.70733508486758,
        -68.6559787990586,
        -1.6653345369377348e-14,
        0.0,
        -3.001048254347438e-06,
        -3.1781386411466883e-06,
        -99.99999999999991,
        0.0,
        68.65597879905853,
        72.70733508486751,
        -4.371138961900556e-06,
        0.0,
        123.0704345703125,
        237.8701629638672,
        0.0,
        1.0
      ],
      "name": "Vert.007"
    },
    {
      "mesh": 20,
      "name": "Vert.007_steel dark used_0"
    },
    {
      "children": [
        41
      ],
      "matrix": [
        72.70733508486758,
        -68.6559787990586,
        -1.6653345369377348e-14,
        0.0,
        -3.001048254347438e-06,
        -3.1781386411466883e-06,
        -99.99999999999991,
        0.0,
        68.65597879905853,
        72.70733508486751,
        -4.371138961900556e-06,
        0.0,
        169.6900177001953,
        289.72064208984375,
        0.0,
        1.0
      ],
      "name": "Vert.008"
    },
    {
      "mesh": 21,
      "name": "Vert.008_LED Bulb_0"
    },
    {
      "children": [
        43
      ],
      "matrix": [
        72.70733508486758,
        -68.6559787990586,
        -1.6653345369377348e-14,
        0.0,
        -4.698027110783563e-06,
        -4.975255388281865e-06,
        -156.5462036132811,
        0.0,
        68.65597879905853,
        72.70733508486751,
        -4.371138961900556e-06,
        0.0,
        23.807788848876953,
        127.79259490966797,
        0.0,
        1.0
      ],
      "name": "Vert.009"
    },
    {
      "mesh": 22,
      "name": "Vert.009_deted metal dark bronze_0"
    },
    {
      "children": [
        45
      ],
      "matrix": [
        2.4018064720442682,
        -1.9007941515343936,
        -3.4005630563093423e-16,
        0.0,
        1.435059660713681e-07,
        1.8133134522841244e-07,
        -3.062954902648917,
        0.0,
        1.9007941515343882,
        2.401806472044261,
        2.3124666273573035e-07,
        0.0,
        -5.202852249145508,
        117.35884857177734,
        1.514592077000998e-05,
        1.0
      ],
      "name": "Cube"
    },
    {
      "mesh": 23,
      "name": "Cube_lil button_0"
    }
  ],
  "samplers": [
    {
      "magFilter": 9729,
      "minFilter": 9987,
      "wrapS": 10497,
      "wrapT": 10497
    }
  ],
  "scene": 0,
  "scenes": [
    {
      "name": "Sketchfab_Scene",
      "nodes": [
        0
      ]
    }
  ],
  "textures": [
    {
      "sampler": 0,
      "source": 0
    }
  ]
}
